<?xml version="1.0" encoding="UTF-8" standalone="no"?>
<!-- Created with Inkscape (http://www.inkscape.org/) -->

<svg
   xmlns:dc="http://purl.org/dc/elements/1.1/"
   xmlns:cc="http://creativecommons.org/ns#"
   xmlns:rdf="http://www.w3.org/1999/02/22-rdf-syntax-ns#"
   xmlns:svg="http://www.w3.org/2000/svg"
   xmlns="http://www.w3.org/2000/svg"
   xmlns:sodipodi="http://sodipodi.sourceforge.net/DTD/sodipodi-0.dtd"
   xmlns:inkscape="http://www.inkscape.org/namespaces/inkscape"
   width="242.39461mm"
   height="242.39461mm"
   viewBox="0 0 242.39461 242.39461"
   version="1.1"
   id="svg6693"
   inkscape:version="0.92.5 (2060ec1f9f, 2020-04-08)"
   sodipodi:docname="logo-ugp.svg">
  <defs
     id="defs6687" />
  <sodipodi:namedview
     id="base"
     pagecolor="#ffffff"
     bordercolor="#666666"
     borderopacity="1.0"
     inkscape:pageopacity="0.0"
     inkscape:pageshadow="2"
     inkscape:zoom="0.69753788"
     inkscape:cx="222.8684"
     inkscape:cy="464.48219"
     inkscape:document-units="px"
     inkscape:current-layer="layer1"
     showgrid="false"
     showguides="true"
     inkscape:guide-bbox="true"
     fit-margin-top="0"
     fit-margin-left="0"
     fit-margin-right="0"
     fit-margin-bottom="0"
     inkscape:window-width="1920"
     inkscape:window-height="1017"
     inkscape:window-x="-8"
     inkscape:window-y="-8"
     inkscape:window-maximized="1">
    <inkscape:grid
       type="xygrid"
       id="grid7323"
       originx="20.267235"
       originy="-25.605754" />
    <sodipodi:guide
       position="129.0219,82.310051"
       orientation="0,1"
       id="guide7377"
       inkscape:locked="false" />
  </sodipodi:namedview>
  <metadata
     id="metadata6690">
    <rdf:RDF>
      <cc:Work
         rdf:about="">
        <dc:format>image/svg+xml</dc:format>
        <dc:type
           rdf:resource="http://purl.org/dc/dcmitype/StillImage" />
        <dc:title></dc:title>
      </cc:Work>
    </rdf:RDF>
  </metadata>
  <g
     inkscape:label="Layer 1"
     inkscape:groupmode="layer"
     id="layer1"
     transform="translate(20.267234,-28.999648)">
    <g
       aria-label="УДРУЕЖЕЊЕ &quot;ГОЧКА ПРУГА&quot;"
       style="font-style:normal;font-variant:normal;font-weight:bold;font-stretch:normal;font-size:14.11111069px;line-height:1.25;font-family:Arial;-inkscape-font-specification:'Arial, Bold';font-variant-ligatures:normal;font-variant-caps:normal;font-variant-numeric:normal;font-feature-settings:normal;text-align:start;letter-spacing:1.05833328px;word-spacing:0px;writing-mode:lr-tb;text-anchor:start;fill:#000000;fill-opacity:1;stroke:none;stroke-width:0.26458332"
       id="text7254"
       transform="translate(-5.1448688,-3.175)">
      <path
         d="m 5.7505546,101.69574 1.0832953,-2.006948 5.7334631,0.416948 -3.6585109,-4.261077 1.0112938,-1.873558 5.1344761,6.647225 q 0.83236,1.0835 1.133458,1.90373 0.295035,0.81696 -0.140247,1.62338 -0.428736,0.79429 -0.773999,1.18734 l -1.333925,-0.72001 q 0.23044,-0.3689 0.397352,-0.67813 0.337098,-0.62452 0.256759,-1.0124 -0.08313,-0.39721 -0.700793,-1.05163 z"
         style="font-style:normal;font-variant:normal;font-weight:bold;font-stretch:normal;font-size:14.11111069px;font-family:Arial;-inkscape-font-specification:'Arial, Bold';font-variant-ligatures:normal;font-variant-caps:normal;font-variant-numeric:normal;font-feature-settings:normal;text-align:start;letter-spacing:1.05833328px;writing-mode:lr-tb;text-anchor:start;stroke-width:0.26458332"
         id="path7280"
         inkscape:connector-curvature="0" />
      <path
         d="m 11.644922,91.269335 3.908545,-5.782765 6.964436,4.707231 0.497732,-0.736403 3.231041,2.183846 -0.949163,1.404305 -1.826737,-1.234684 -3.561291,5.268995 1.826738,1.234684 -0.949163,1.404304 -3.231042,-2.183847 0.47844,-0.70786 q -0.722095,-1.244855 -2.025923,-2.367283 -1.309537,-1.126286 -3.478787,-2.592473 z m 2.492369,-0.660649 q 3.813314,2.577402 5.093267,4.448803 l 2.149121,-3.179664 -5.560131,-3.758068 z"
         style="font-style:normal;font-variant:normal;font-weight:bold;font-stretch:normal;font-size:14.11111069px;font-family:Arial;-inkscape-font-specification:'Arial, Bold';font-variant-ligatures:normal;font-variant-caps:normal;font-variant-numeric:normal;font-feature-settings:normal;text-align:start;letter-spacing:1.05833328px;writing-mode:lr-tb;text-anchor:start;stroke-width:0.26458332"
         id="path7282"
         inkscape:connector-curvature="0" />
      <path
         d="m 25.938945,88.492036 -7.722308,-6.511264 2.109721,-2.502112 q 1.199209,-1.422253 1.679301,-1.756484 0.733462,-0.517148 1.695695,-0.471886 0.956966,0.04082 1.878796,0.818086 0.711127,0.599605 0.978112,1.266337 0.266985,0.666733 0.208613,1.302471 -0.0592,0.626029 -0.316087,1.112408 -0.360182,0.651638 -1.252926,1.710426 l -0.857213,1.016648 2.912985,2.456159 z m -5.101253,-6.968979 2.191323,1.847671 0.719526,-0.853352 q 0.777266,-0.92183 0.91816,-1.334774 0.140895,-0.412943 0.02935,-0.804409 -0.107101,-0.396733 -0.449495,-0.685431 -0.421408,-0.355322 -0.904075,-0.338703 -0.482667,0.01662 -0.870935,0.338146 -0.288076,0.234768 -0.998719,1.077585 z"
         style="font-style:normal;font-variant:normal;font-weight:bold;font-stretch:normal;font-size:14.11111069px;font-family:Arial;-inkscape-font-specification:'Arial, Bold';font-variant-ligatures:normal;font-variant-caps:normal;font-variant-numeric:normal;font-feature-settings:normal;text-align:start;letter-spacing:1.05833328px;writing-mode:lr-tb;text-anchor:start;stroke-width:0.26458332"
         id="path7284"
         inkscape:connector-curvature="0" />
      <path
         d="m 24.931351,74.195602 1.637189,-1.587763 5.342013,2.123522 -2.206129,-5.164736 1.528373,-1.482232 2.895346,7.884505 q 0.467591,1.283807 0.507814,2.156631 0.03543,0.867879 -0.622418,1.505862 -0.647951,0.62839 -1.095515,0.899273 l -1.055311,-1.088162 q 0.330797,-0.282418 0.583053,-0.527058 0.509457,-0.494077 0.549606,-0.888148 0.0403,-0.403815 -0.35172,-1.213814 z"
         style="font-style:normal;font-variant:normal;font-weight:bold;font-stretch:normal;font-size:14.11111069px;font-family:Arial;-inkscape-font-specification:'Arial, Bold';font-variant-ligatures:normal;font-variant-caps:normal;font-variant-numeric:normal;font-feature-settings:normal;text-align:start;letter-spacing:1.05833328px;writing-mode:lr-tb;text-anchor:start;stroke-width:0.26458332"
         id="path7286"
         inkscape:connector-curvature="0" />
      <path
         d="m 39.871331,73.975101 -6.265119,-7.923312 5.874926,-4.645419 1.059856,1.340369 -4.27513,3.380429 1.388925,1.756533 3.97787,-3.145381 1.055583,1.334965 -3.97787,3.14538 1.705172,2.156482 4.426462,-3.500091 1.055583,1.334965 z"
         style="font-style:normal;font-variant:normal;font-weight:bold;font-stretch:normal;font-size:14.11111069px;font-family:Arial;-inkscape-font-specification:'Arial, Bold';font-variant-ligatures:normal;font-variant-caps:normal;font-variant-numeric:normal;font-feature-settings:normal;text-align:start;letter-spacing:1.05833328px;writing-mode:lr-tb;text-anchor:start;stroke-width:0.26458332"
         id="path7288"
         inkscape:connector-curvature="0" />
      <path
         d="m 48.30132,55.607774 2.243082,3.667984 q 0.413417,-0.301276 0.460649,-0.725905 0.04723,-0.424628 -0.188001,-1.694153 -0.305902,-1.662435 0.0084,-2.363471 0.312044,-0.691564 1.558218,-1.453637 0.05878,-0.03595 0.249166,-0.160449 l 0.787236,1.287321 -0.256356,0.148693 q -0.529036,0.323522 -0.693242,0.609696 -0.1678,0.280297 -0.155278,0.644155 0.01252,0.363858 0.226776,1.387766 0.114485,0.543798 0.109712,0.958615 0.0011,0.411223 -0.307388,0.963315 0.686185,-0.185406 1.367937,0.08418 0.684035,0.260113 1.693831,0.89444 l 2.620698,1.644091 -2.045606,1.25095 -2.396945,-1.595166 q -0.04639,-0.03624 -0.211364,-0.121114 -0.100945,-0.05941 -0.459647,-0.276185 -0.70662,-0.415907 -1.02248,-0.456965 -0.315861,-0.04106 -0.627404,0.149459 l 2.307787,3.773791 -1.698794,1.038863 -2.307786,-3.77379 q -0.299788,0.183329 -0.416629,0.480921 -0.116841,0.297592 -0.05551,1.124265 0.03346,0.464126 0.03054,0.538598 10e-4,0.120524 0.01151,0.243333 l 0.327825,2.860493 -2.045606,1.25095 -0.269427,-3.081964 q -0.100623,-1.141855 -0.03128,-1.886911 0.07163,-0.754529 0.561077,-1.288059 -0.632015,0.02306 -0.999851,-0.155822 -0.365552,-0.188352 -0.806932,-0.540321 -0.797164,-0.643211 -1.118947,-0.826023 -0.315904,-0.186408 -0.651344,-0.167034 -0.329561,0.01578 -0.893866,0.360868 -0.07054,0.04314 -0.219776,0.142476 l -0.787236,-1.287321 q 0.197575,-0.112746 0.256356,-0.148693 1.263809,-0.772857 2.025188,-0.729648 0.759096,0.05268 2.08649,1.074291 1.032381,0.790121 1.426013,0.945148 0.395916,0.145555 0.852469,-0.08518 l -2.243083,-3.667983 z"
         style="font-style:normal;font-variant:normal;font-weight:bold;font-stretch:normal;font-size:14.11111069px;font-family:Arial;-inkscape-font-specification:'Arial, Bold';font-variant-ligatures:normal;font-variant-caps:normal;font-variant-numeric:normal;font-feature-settings:normal;text-align:start;letter-spacing:1.05833328px;writing-mode:lr-tb;text-anchor:start;stroke-width:0.26458332"
         id="path7290"
         inkscape:connector-curvature="0" />
      <path
         d="m 60.093984,60.572436 -4.203614,-9.184782 6.810272,-3.116868 0.711116,1.55377 -4.955773,2.268116 0.931906,2.03619 4.611187,-2.110409 0.708249,1.547504 -4.611187,2.110409 1.144094,2.499815 5.131198,-2.348404 0.708249,1.547504 z"
         style="font-style:normal;font-variant:normal;font-weight:bold;font-stretch:normal;font-size:14.11111069px;font-family:Arial;-inkscape-font-specification:'Arial, Bold';font-variant-ligatures:normal;font-variant-caps:normal;font-variant-numeric:normal;font-feature-settings:normal;text-align:start;letter-spacing:1.05833328px;writing-mode:lr-tb;text-anchor:start;stroke-width:0.26458332"
         id="path7292"
         inkscape:connector-curvature="0" />
      <path
         d="m 74.419638,48.343842 2.614071,-0.805652 q 1.033777,-0.318607 1.836727,-0.263255 0.80295,0.05535 1.535715,0.608197 0.732766,0.552843 1.041227,1.553697 0.306431,0.994269 0.02567,1.837849 -0.28279,0.836996 -0.848933,1.29267 -0.568172,0.44909 -1.786316,0.824519 l -4.556518,1.404309 -1.300812,-4.220705 -2.627241,0.80971 1.300812,4.220705 -1.94903,0.600687 -2.975025,-9.65297 1.949031,-0.600687 1.170934,3.799293 2.62724,-0.80971 -1.170933,-3.799293 1.942446,-0.598658 z m 1.304871,4.233874 1.902938,-0.586482 q 0.921839,-0.284109 1.251024,-0.479293 0.327156,-0.201768 0.504269,-0.609645 0.181669,-0.41649 0.03759,-0.883994 -0.206993,-0.671625 -0.77849,-0.841571 -0.571498,-0.169946 -1.730381,0.187219 l -1.988538,0.612863 z"
         style="font-style:normal;font-variant:normal;font-weight:bold;font-stretch:normal;font-size:14.11111069px;font-family:Arial;-inkscape-font-specification:'Arial, Bold';font-variant-ligatures:normal;font-variant-caps:normal;font-variant-numeric:normal;font-feature-settings:normal;text-align:start;letter-spacing:1.05833328px;writing-mode:lr-tb;text-anchor:start;stroke-width:0.26458332"
         id="path7294"
         inkscape:connector-curvature="0" />
      <path
         d="m 85.098868,51.863899 -1.694857,-9.957814 7.383454,-1.256691 0.286715,1.684542 -5.372872,0.914482 0.375736,2.207565 4.999284,-0.850897 0.285559,1.677749 -4.999284,0.850897 0.461288,2.71021 5.563062,-0.946854 0.285559,1.677749 z"
         style="font-style:normal;font-variant:normal;font-weight:bold;font-stretch:normal;font-size:14.11111069px;font-family:Arial;-inkscape-font-specification:'Arial, Bold';font-variant-ligatures:normal;font-variant-caps:normal;font-variant-numeric:normal;font-feature-settings:normal;text-align:start;letter-spacing:1.05833328px;writing-mode:lr-tb;text-anchor:start;stroke-width:0.26458332"
         id="path7296"
         inkscape:connector-curvature="0" />
      <path
         d="m 100.34164,43.408881 -0.420464,-1.869442 -0.05036,-1.708025 2.107474,-0.06214 0.0504,1.708025 -0.26137,1.889547 z m 3.10613,-0.09159 -0.42047,-1.869442 -0.0504,-1.708025 2.10748,-0.06214 0.0504,1.708025 -0.26137,1.889547 z"
         style="font-style:normal;font-variant:normal;font-weight:bold;font-stretch:normal;font-size:14.11111069px;font-family:Arial;-inkscape-font-specification:'Arial, Bold';font-variant-ligatures:normal;font-variant-caps:normal;font-variant-numeric:normal;font-feature-settings:normal;text-align:start;letter-spacing:1.05833328px;writing-mode:lr-tb;text-anchor:start;stroke-width:0.26458332"
         id="path7298"
         inkscape:connector-curvature="0" />
      <path
         d="m 108.81653,39.715781 6.83238,0.361919 -0.0897,1.692614 -4.79574,-0.254036 -0.44465,8.394264 -2.03664,-0.107883 z"
         style="font-style:normal;font-variant:normal;font-weight:bold;font-stretch:normal;font-size:14.11111069px;font-family:Arial;-inkscape-font-specification:'Arial, Bold';font-variant-ligatures:normal;font-variant-caps:normal;font-variant-numeric:normal;font-feature-settings:normal;text-align:start;letter-spacing:1.05833328px;writing-mode:lr-tb;text-anchor:start;stroke-width:0.26458332"
         id="path7300"
         inkscape:connector-curvature="0" />
      <path
         d="m 117.39633,45.353498 q 0.241,-1.524471 0.86051,-2.486849 0.46079,-0.708441 1.14183,-1.221619 0.68785,-0.512103 1.43509,-0.69393 0.99478,-0.247333 2.213,-0.05475 2.20504,0.348588 3.30908,1.925251 1.11086,1.577738 0.72569,4.01417 -0.38194,2.416014 -1.91169,3.576307 -1.52867,1.153488 -3.72691,0.805976 -2.22545,-0.351816 -3.32484,-1.913791 -1.09832,-1.568782 -0.72176,-3.950767 z m 2.08649,0.260089 q -0.2679,1.694613 0.37597,2.696272 0.64493,0.994853 1.84954,1.185286 1.2046,0.190432 2.11028,-0.552313 0.91356,-0.748475 1.18791,-2.483921 0.27113,-1.71503 -0.35089,-2.678357 -0.61522,-0.962252 -1.86065,-1.159139 -1.24544,-0.196888 -2.14324,0.540127 -0.89672,0.73021 -1.16892,2.452045 z"
         style="font-style:normal;font-variant:normal;font-weight:bold;font-stretch:normal;font-size:14.11111069px;font-family:Arial;-inkscape-font-specification:'Arial, Bold';font-variant-ligatures:normal;font-variant-caps:normal;font-variant-numeric:normal;font-feature-settings:normal;text-align:start;letter-spacing:1.05833328px;writing-mode:lr-tb;text-anchor:start;stroke-width:0.26458332"
         id="path7302"
         inkscape:connector-curvature="0" />
      <path
         d="m 131.41964,42.653302 1.96498,0.546228 -0.64587,2.323466 q -0.31372,1.128541 -0.33739,1.52244 -0.0152,0.389106 0.32073,0.775696 0.33592,0.38659 1.13254,0.608034 0.63065,0.175309 1.15881,0.179097 0.53,-0.0029 0.96229,-0.16874 l 1.16627,-4.195517 1.96499,0.546228 -2.7053,9.732005 -1.96499,-0.546228 1.08876,-3.9167 q -0.67128,0.09946 -1.28758,0.07832 -0.61445,-0.02778 -1.17208,-0.182788 -1.45383,-0.404135 -2.24625,-1.361012 -0.78394,-0.96167 -0.31337,-2.654481 z"
         style="font-style:normal;font-variant:normal;font-weight:bold;font-stretch:normal;font-size:14.11111069px;font-family:Arial;-inkscape-font-specification:'Arial, Bold';font-variant-ligatures:normal;font-variant-caps:normal;font-variant-numeric:normal;font-feature-settings:normal;text-align:start;letter-spacing:1.05833328px;writing-mode:lr-tb;text-anchor:start;stroke-width:0.26458332"
         id="path7304"
         inkscape:connector-curvature="0" />
      <path
         d="m 143.11426,46.162724 1.89916,0.743446 -1.56726,4.003649 q 0.66031,0.184491 0.98785,0.0093 0.32754,-0.175153 1.26559,-1.191615 1.18805,-1.295961 1.93043,-1.434512 0.73595,-0.141063 2.05126,0.373824 0.0642,0.02512 0.2784,0.101584 l -0.55005,1.405127 -0.26697,-0.111905 q -0.58386,-0.22856 -0.9111,-0.186478 -0.32474,0.03567 -0.60709,0.265503 -0.28236,0.229838 -0.96874,1.019247 -0.36412,0.419809 -0.69753,0.666658 -0.32699,0.24936 -0.95331,0.337154 0.56487,0.428303 0.76201,1.134417 0.20356,0.708626 0.3083,1.896518 l 0.27354,3.081602 -2.23281,-0.874052 -0.1709,-2.87124 q -0.006,-0.06138 -0.0312,-0.241597 -0.012,-0.06389 -0.0641,-0.535642 -0.0945,-0.836103 -0.26404,-1.102269 -0.16317,-0.263653 -0.64186,-0.458443 l -1.61248,4.119138 -1.89916,-0.743446 z"
         style="font-style:normal;font-variant:normal;font-weight:bold;font-stretch:normal;font-size:14.11111069px;font-family:Arial;-inkscape-font-specification:'Arial, Bold';font-variant-ligatures:normal;font-variant-caps:normal;font-variant-numeric:normal;font-feature-settings:normal;text-align:start;letter-spacing:1.05833328px;writing-mode:lr-tb;text-anchor:start;stroke-width:0.26458332"
         id="path7306"
         inkscape:connector-curvature="0" />
      <path
         d="m 156.47829,63.366748 -1.97289,-1.014915 0.26533,-2.443738 -3.59043,-1.84702 -1.79095,1.658911 -1.92388,-0.9897 8.11922,-7.182447 1.91775,0.986549 z m -1.51111,-5.271454 0.47699,-3.969777 -2.92779,2.709012 z"
         style="font-style:normal;font-variant:normal;font-weight:bold;font-stretch:normal;font-size:14.11111069px;font-family:Arial;-inkscape-font-specification:'Arial, Bold';font-variant-ligatures:normal;font-variant-caps:normal;font-variant-numeric:normal;font-feature-settings:normal;text-align:start;letter-spacing:1.05833328px;writing-mode:lr-tb;text-anchor:start;stroke-width:0.26458332"
         id="path7308"
         inkscape:connector-curvature="0" />
      <path
         d="m 168.50878,59.064711 6.47136,4.760883 -5.98581,8.13638 -1.64281,-1.208595 4.98137,-6.771066 -3.18573,-2.343694 -4.98137,6.771066 -1.64282,-1.208594 z"
         style="font-style:normal;font-variant:normal;font-weight:bold;font-stretch:normal;font-size:14.11111069px;font-family:Arial;-inkscape-font-specification:'Arial, Bold';font-variant-ligatures:normal;font-variant-caps:normal;font-variant-numeric:normal;font-feature-settings:normal;text-align:start;letter-spacing:1.05833328px;writing-mode:lr-tb;text-anchor:start;stroke-width:0.26458332"
         id="path7310"
         inkscape:connector-curvature="0" />
      <path
         d="m 171.41046,73.975428 6.81885,-7.452102 2.41456,2.209383 q 1.37249,1.25586 1.68699,1.749101 0.487,0.753817 0.40278,1.713425 -0.0796,0.954525 -0.89355,1.844101 -0.62793,0.686244 -1.30493,0.925991 -0.677,0.239748 -1.30986,0.155661 -0.62311,-0.08452 -1.09868,-0.360907 -0.63651,-0.386292 -1.65825,-1.32121 l -0.98107,-0.897708 -2.57219,2.811059 z m 7.16997,-4.814652 -1.93495,2.114648 0.82349,0.753516 q 0.88958,0.813984 1.29647,0.971497 0.4069,0.157513 0.80256,0.06192 0.40075,-0.09094 0.70308,-0.421349 0.37211,-0.406663 0.37507,-0.889607 0.003,-0.482944 -0.30258,-0.883923 -0.2229,-0.297353 -1.03623,-1.041566 z"
         style="font-style:normal;font-variant:normal;font-weight:bold;font-stretch:normal;font-size:14.11111069px;font-family:Arial;-inkscape-font-specification:'Arial, Bold';font-variant-ligatures:normal;font-variant-caps:normal;font-variant-numeric:normal;font-feature-settings:normal;text-align:start;letter-spacing:1.05833328px;writing-mode:lr-tb;text-anchor:start;stroke-width:0.26458332"
         id="path7312"
         inkscape:connector-curvature="0" />
      <path
         d="m 185.73574,73.548009 1.52014,1.700165 -2.33819,5.251604 5.24987,-1.995094 1.4191,1.587164 -7.99532,2.573567 q -1.3017,0.415201 -2.17543,0.420032 -0.86861,2.39e-4 -1.47942,-0.682909 -0.60162,-0.672875 -0.85415,-1.131046 l 1.13002,-1.010363 q 0.26878,0.341966 0.503,0.603925 0.47304,0.529055 0.86516,0.585134 0.40185,0.05662 1.22706,-0.30226 z"
         style="font-style:normal;font-variant:normal;font-weight:bold;font-stretch:normal;font-size:14.11111069px;font-family:Arial;-inkscape-font-specification:'Arial, Bold';font-variant-ligatures:normal;font-variant-caps:normal;font-variant-numeric:normal;font-feature-settings:normal;text-align:start;letter-spacing:1.05833328px;writing-mode:lr-tb;text-anchor:start;stroke-width:0.26458332"
         id="path7314"
         inkscape:connector-curvature="0" />
      <path
         d="m 193.48517,82.555203 4.08672,5.487357 -1.3594,1.012422 -2.86853,-3.85165 -6.74177,5.020951 -1.2182,-1.635708 z"
         style="font-style:normal;font-variant:normal;font-weight:bold;font-stretch:normal;font-size:14.11111069px;font-family:Arial;-inkscape-font-specification:'Arial, Bold';font-variant-ligatures:normal;font-variant-caps:normal;font-variant-numeric:normal;font-feature-settings:normal;text-align:start;letter-spacing:1.05833328px;writing-mode:lr-tb;text-anchor:start;stroke-width:0.26458332"
         id="path7316"
         inkscape:connector-curvature="0" />
      <path
         d="m 194.85839,102.89914 -1.14853,-1.89822 1.50651,-1.94234 -2.09019,-3.454526 -2.39466,0.474461 -1.11999,-1.85106 10.67889,-1.862933 1.11643,1.845165 z m 1.47521,-5.281611 2.48643,-3.131187 -3.91317,0.773149 z"
         style="font-style:normal;font-variant:normal;font-weight:bold;font-stretch:normal;font-size:14.11111069px;font-family:Arial;-inkscape-font-specification:'Arial, Bold';font-variant-ligatures:normal;font-variant-caps:normal;font-variant-numeric:normal;font-feature-settings:normal;text-align:start;letter-spacing:1.05833328px;writing-mode:lr-tb;text-anchor:start;stroke-width:0.26458332"
         id="path7318"
         inkscape:connector-curvature="0" />
      <path
         d="m 201.68248,102.11493 1.53433,-1.1478 1.53827,-0.74405 0.91806,1.89803 -1.53827,0.74405 -1.83134,0.53373 z m 1.3531,2.79742 1.53432,-1.1478 1.53827,-0.74405 0.91807,1.89802 -1.53827,0.74406 -1.83135,0.53373 z"
         style="font-style:normal;font-variant:normal;font-weight:bold;font-stretch:normal;font-size:14.11111069px;font-family:Arial;-inkscape-font-specification:'Arial, Bold';font-variant-ligatures:normal;font-variant-caps:normal;font-variant-numeric:normal;font-feature-settings:normal;text-align:start;letter-spacing:1.05833328px;writing-mode:lr-tb;text-anchor:start;stroke-width:0.26458332"
         id="path7320"
         inkscape:connector-curvature="0" />
    </g>
    <g
       aria-label="КАМЕНИЦА - КРАЉЕВО "
       style="font-style:normal;font-variant:normal;font-weight:bold;font-stretch:normal;font-size:14.11111069px;line-height:1.25;font-family:Arial;-inkscape-font-specification:'Arial, Bold';font-variant-ligatures:normal;font-variant-caps:normal;font-variant-numeric:normal;font-feature-settings:normal;text-align:start;letter-spacing:1.05833328px;word-spacing:0px;writing-mode:lr-tb;text-anchor:start;fill:#000000;fill-opacity:1;stroke:none;stroke-width:0.26458332"
       id="text7275"
       transform="translate(-4.6494722,-5.2916667)">
      <path
         d="m 31.094303,229.25643 1.516595,1.36363 -2.87468,3.19714 q 0.553307,0.40485 0.921516,0.35602 0.368208,-0.0488 1.603716,-0.67065 1.567806,-0.79559 2.311501,-0.66433 0.738572,0.12667 1.788916,1.07107 0.05124,0.0461 0.224923,0.19297 l -1.008902,1.12208 -0.210586,-0.19861 q -0.46625,-0.41923 -0.7874,-0.49487 -0.316544,-0.0808 -0.661673,0.0351 -0.34513,0.11591 -1.265216,0.61364 -0.48846,0.26501 -0.887365,0.37889 -0.393783,0.11849 -1.010982,-0.0195 0.378247,0.59954 0.314577,1.32989 -0.05855,0.73495 -0.378091,1.88384 l -0.827231,2.98107 -1.783023,-1.60318 0.849364,-2.74806 q 0.01636,-0.0594 0.05571,-0.23715 0.01124,-0.064 0.128299,-0.52398 0.205494,-0.81595 0.140305,-1.12474 -0.06007,-0.30418 -0.439731,-0.65482 l -2.957604,3.28937 -1.516594,-1.36363 z"
         style="font-style:normal;font-variant:normal;font-weight:bold;font-stretch:normal;font-size:14.11111069px;font-family:Arial;-inkscape-font-specification:'Arial, Bold';font-variant-ligatures:normal;font-variant-caps:normal;font-variant-numeric:normal;font-feature-settings:normal;text-align:start;letter-spacing:1.05833328px;writing-mode:lr-tb;text-anchor:start;stroke-width:0.26458332"
         id="path7325"
         inkscape:connector-curvature="0" />
      <path
         d="m 38.869039,248.61732 -1.773882,-1.33256 0.672936,-2.3642 -3.228244,-2.42509 -2.044664,1.33374 -1.72981,-1.29946 9.212479,-5.7131 1.724301,1.29532 z m -0.602115,-5.45061 1.138472,-3.83282 -3.342052,2.17746 z"
         style="font-style:normal;font-variant:normal;font-weight:bold;font-stretch:normal;font-size:14.11111069px;font-family:Arial;-inkscape-font-specification:'Arial, Bold';font-variant-ligatures:normal;font-variant-caps:normal;font-variant-numeric:normal;font-feature-settings:normal;text-align:start;letter-spacing:1.05833328px;writing-mode:lr-tb;text-anchor:start;stroke-width:0.26458332"
         id="path7327"
         inkscape:connector-curvature="0" />
      <path
         d="m 40.636499,249.80067 5.210209,-8.65357 2.614961,1.57444 -1.983874,6.84822 5.10648,-4.96814 2.620863,1.57799 -5.210209,8.65357 -1.623283,-0.97736 4.101352,-6.81188 -5.81908,5.77766 -1.682311,-1.0129 2.389526,-7.84255 -4.101351,6.81188 z"
         style="font-style:normal;font-variant:normal;font-weight:bold;font-stretch:normal;font-size:14.11111069px;font-family:Arial;-inkscape-font-specification:'Arial, Bold';font-variant-ligatures:normal;font-variant-caps:normal;font-variant-numeric:normal;font-feature-settings:normal;text-align:start;letter-spacing:1.05833328px;writing-mode:lr-tb;text-anchor:start;stroke-width:0.26458332"
         id="path7329"
         inkscape:connector-curvature="0" />
      <path
         d="m 51.757884,256.24819 4.325182,-9.12816 6.768292,3.207 -0.731682,1.5442 -4.925224,-2.33371 -0.958857,2.02363 4.582762,2.17145 -0.728731,1.53796 -4.582762,-2.17144 -1.177181,2.4844 5.099568,2.41632 -0.728731,1.53797 z"
         style="font-style:normal;font-variant:normal;font-weight:bold;font-stretch:normal;font-size:14.11111069px;font-family:Arial;-inkscape-font-specification:'Arial, Bold';font-variant-ligatures:normal;font-variant-caps:normal;font-variant-numeric:normal;font-feature-settings:normal;text-align:start;letter-spacing:1.05833328px;writing-mode:lr-tb;text-anchor:start;stroke-width:0.26458332"
         id="path7331"
         inkscape:connector-curvature="0" />
      <path
         d="m 61.29492,260.62611 3.461651,-9.48935 1.915992,0.69895 -1.362464,3.73489 3.754309,1.36954 1.362464,-3.73489 1.915992,0.69895 -3.46165,9.48934 -1.915992,-0.69895 1.513586,-4.14915 -3.754309,-1.36955 -1.513586,4.14916 z"
         style="font-style:normal;font-variant:normal;font-weight:bold;font-stretch:normal;font-size:14.11111069px;font-family:Arial;-inkscape-font-specification:'Arial, Bold';font-variant-ligatures:normal;font-variant-caps:normal;font-variant-numeric:normal;font-feature-settings:normal;text-align:start;letter-spacing:1.05833328px;writing-mode:lr-tb;text-anchor:start;stroke-width:0.26458332"
         id="path7333"
         inkscape:connector-curvature="0" />
      <path
         d="m 74.48371,254.57108 1.847181,0.48022 -1.692046,6.50847 5.653147,-5.47868 1.967214,0.51143 -2.541536,9.77605 -1.847181,-0.48022 1.659107,-6.38178 -5.61354,5.35372 -1.973882,-0.51316 z"
         style="font-style:normal;font-variant:normal;font-weight:bold;font-stretch:normal;font-size:14.11111069px;font-family:Arial;-inkscape-font-specification:'Arial, Bold';font-variant-ligatures:normal;font-variant-caps:normal;font-variant-numeric:normal;font-feature-settings:normal;text-align:start;letter-spacing:1.05833328px;writing-mode:lr-tb;text-anchor:start;stroke-width:0.26458332"
         id="path7335"
         inkscape:connector-curvature="0" />
      <path
         d="m 84.425619,257.04971 2.013826,0.32257 -1.329501,8.30023 3.90519,0.62552 1.329501,-8.30023 2.013826,0.32257 -1.329501,8.30023 0.830023,0.13295 -0.616801,3.85076 -1.673653,-0.26808 0.348721,-2.17711 -7.089212,-1.13552 z"
         style="font-style:normal;font-variant:normal;font-weight:bold;font-stretch:normal;font-size:14.11111069px;font-family:Arial;-inkscape-font-specification:'Arial, Bold';font-variant-ligatures:normal;font-variant-caps:normal;font-variant-numeric:normal;font-feature-settings:normal;text-align:start;letter-spacing:1.05833328px;writing-mode:lr-tb;text-anchor:start;stroke-width:0.26458332"
         id="path7337"
         inkscape:connector-curvature="0" />
      <path
         d="m 103.13289,269.24355 -2.21418,-0.1406 -0.73477,-2.34571 -4.029539,-0.25587 -0.977438,2.23699 -2.159171,-0.1371 4.566502,-9.8314 2.152295,0.13667 z m -3.494356,-4.22624 -1.15149,-3.82894 -1.599047,3.65428 z"
         style="font-style:normal;font-variant:normal;font-weight:bold;font-stretch:normal;font-size:14.11111069px;font-family:Arial;-inkscape-font-specification:'Arial, Bold';font-variant-ligatures:normal;font-variant-caps:normal;font-variant-numeric:normal;font-feature-settings:normal;text-align:start;letter-spacing:1.05833328px;writing-mode:lr-tb;text-anchor:start;stroke-width:0.26458332"
         id="path7339"
         inkscape:connector-curvature="0" />
      <path
         d="m 109.88717,266.40148 -0.097,-1.93371 3.79861,-0.19058 0.097,1.93371 z"
         style="font-style:normal;font-variant:normal;font-weight:bold;font-stretch:normal;font-size:14.11111069px;font-family:Arial;-inkscape-font-specification:'Arial, Bold';font-variant-ligatures:normal;font-variant-caps:normal;font-variant-numeric:normal;font-feature-settings:normal;text-align:start;letter-spacing:1.05833328px;writing-mode:lr-tb;text-anchor:start;stroke-width:0.26458332"
         id="path7341"
         inkscape:connector-curvature="0" />
      <path
         d="m 119.41726,258.23327 2.01437,-0.31918 0.67287,4.2465 q 0.66294,-0.17481 0.85692,-0.49157 0.19397,-0.31676 0.48911,-1.66806 0.36945,-1.71887 0.9398,-2.21386 0.56354,-0.49391 1.95862,-0.71497 0.0681,-0.0108 0.29155,-0.0532 l 0.23616,1.49036 -0.28691,0.0385 q -0.61928,0.0981 -0.8803,0.29994 -0.2621,0.19501 -0.38943,0.53609 -0.12734,0.34108 -0.3202,1.36923 -0.10179,0.54631 -0.26457,0.92789 -0.15597,0.3805 -0.65187,0.773 0.70392,0.0838 1.23112,0.59323 0.534,0.50836 1.22514,1.48015 l 1.79455,2.52006 -2.36824,0.37526 -1.59961,-2.3905 q -0.0358,-0.0501 -0.14912,-0.19263 -0.0426,-0.049 -0.3262,-0.42967 -0.50436,-0.67351 -0.78527,-0.81735 -0.27411,-0.14492 -0.78558,-0.0709 l 0.69228,4.369 -2.01436,0.31918 z"
         style="font-style:normal;font-variant:normal;font-weight:bold;font-stretch:normal;font-size:14.11111069px;font-family:Arial;-inkscape-font-specification:'Arial, Bold';font-variant-ligatures:normal;font-variant-caps:normal;font-variant-numeric:normal;font-feature-settings:normal;text-align:start;letter-spacing:1.05833328px;writing-mode:lr-tb;text-anchor:start;stroke-width:0.26458332"
         id="path7343"
         inkscape:connector-curvature="0" />
      <path
         d="m 130.50849,266.56819 -2.3728,-9.81837 3.18126,-0.76881 q 1.8083,-0.43701 2.39309,-0.42239 0.89729,0.0171 1.64622,0.62291 0.74732,0.59914 1.03057,1.77118 0.2185,0.90415 0.0392,1.59962 -0.17927,0.69547 -0.60249,1.17344 -0.41814,0.46965 -0.91302,0.70976 -0.67593,0.31221 -2.02211,0.63754 l -1.29259,0.31238 0.89505,3.70365 z m 0.011,-8.63651 0.67332,2.78612 1.08497,-0.26221 q 1.17205,-0.28324 1.52997,-0.53278 0.35792,-0.24953 0.49962,-0.63112 0.1484,-0.3832 0.0432,-0.81853 -0.12949,-0.53579 -0.52843,-0.80798 -0.39894,-0.2722 -0.90219,-0.24273 -0.37115,0.0188 -1.44273,0.27778 z"
         style="font-style:normal;font-variant:normal;font-weight:bold;font-stretch:normal;font-size:14.11111069px;font-family:Arial;-inkscape-font-specification:'Arial, Bold';font-variant-ligatures:normal;font-variant-caps:normal;font-variant-numeric:normal;font-feature-settings:normal;text-align:start;letter-spacing:1.05833328px;writing-mode:lr-tb;text-anchor:start;stroke-width:0.26458332"
         id="path7345"
         inkscape:connector-curvature="0" />
      <path
         d="m 148.10946,261.40712 -2.10317,0.70643 -1.5666,-1.89421 -3.82751,1.28561 -0.0598,2.44048 -2.05091,0.68888 0.51332,-10.82801 2.04438,-0.68668 z m -4.83216,-2.59266 -2.51285,-3.11002 -0.0998,3.98757 z"
         style="font-style:normal;font-variant:normal;font-weight:bold;font-stretch:normal;font-size:14.11111069px;font-family:Arial;-inkscape-font-specification:'Arial, Bold';font-variant-ligatures:normal;font-variant-caps:normal;font-variant-numeric:normal;font-feature-settings:normal;text-align:start;letter-spacing:1.05833328px;writing-mode:lr-tb;text-anchor:start;stroke-width:0.26458332"
         id="path7347"
         inkscape:connector-curvature="0" />
      <path
         d="m 154.20534,252.062 2.47229,-1.17057 q 0.99016,-0.46881 1.79279,-0.52865 0.80263,-0.0598 1.59435,0.38864 0.79501,0.4393 1.22844,1.35473 0.43933,0.92789 0.27564,1.80585 -0.15746,0.87502 -0.65571,1.40062 -0.50119,0.51937 -1.64081,1.05895 l -4.30938,2.04038 -3.59131,-7.58501 -2.54079,1.203 2.05217,4.33429 q 0.66932,1.41363 0.79801,2.02356 0.1287,0.60993 -0.16211,1.23553 -0.29376,0.61936 -1.12823,1.01446 -0.21796,0.1032 -0.49459,0.21131 l -0.51293,0.20474 -0.73124,-1.5444 q 0.53325,-0.14575 0.72007,-0.23421 0.34874,-0.16511 0.34157,-0.40567 -0.007,-0.24056 -0.33151,-0.92558 l -3.11954,-6.58862 6.21498,-2.94263 z m 1.86936,3.94819 1.79973,-0.85212 q 0.86561,-0.40985 1.16356,-0.65003 0.30123,-0.24935 0.42126,-0.6721 0.12625,-0.42571 -0.0831,-0.86786 -0.29485,-0.62274 -0.88181,-0.70313 -0.58695,-0.0804 -1.68921,0.44149 l -1.87446,0.88751 z"
         style="font-style:normal;font-variant:normal;font-weight:bold;font-stretch:normal;font-size:14.11111069px;font-family:Arial;-inkscape-font-specification:'Arial, Bold';font-variant-ligatures:normal;font-variant-caps:normal;font-variant-numeric:normal;font-feature-settings:normal;text-align:start;letter-spacing:1.05833328px;writing-mode:lr-tb;text-anchor:start;stroke-width:0.26458332"
         id="path7349"
         inkscape:connector-curvature="0" />
      <path
         d="m 164.89958,253.31775 -5.34251,-8.57252 6.3563,-3.96133 0.90378,1.45019 -4.62542,2.88263 1.18439,1.90045 4.3038,-2.68219 0.90014,1.44435 -4.30381,2.68219 1.45407,2.33318 4.78915,-2.98467 0.90014,1.44435 z"
         style="font-style:normal;font-variant:normal;font-weight:bold;font-stretch:normal;font-size:14.11111069px;font-family:Arial;-inkscape-font-specification:'Arial, Bold';font-variant-ligatures:normal;font-variant-caps:normal;font-variant-numeric:normal;font-feature-settings:normal;text-align:start;letter-spacing:1.05833328px;writing-mode:lr-tb;text-anchor:start;stroke-width:0.26458332"
         id="path7351"
         inkscape:connector-curvature="0" />
      <path
         d="m 167.63424,239.60332 3.21843,-2.4381 q 0.95564,-0.72394 1.48489,-0.99521 0.53058,-0.28092 1.08994,-0.30703 0.56486,-0.0303 1.13237,0.20539 0.56336,0.23018 0.95861,0.75194 0.42854,0.5657 0.47879,1.27102 0.0557,0.70116 -0.28712,1.33258 0.89822,-0.34332 1.68475,-0.12662 0.78654,0.21671 1.31493,0.91422 0.41606,0.54922 0.55318,1.26653 0.13845,0.70765 -0.0693,1.35771 -0.20639,0.64041 -0.80038,1.20276 -0.37314,0.35182 -1.91911,1.54025 l -2.74061,2.07613 z m 2.64087,0.10856 1.41044,1.86186 1.06549,-0.80715 q 0.95015,-0.71978 1.16002,-0.92199 0.37996,-0.36563 0.43722,-0.7807 0.0586,-0.42472 -0.23681,-0.81467 -0.28292,-0.37347 -0.66637,-0.44604 -0.38211,-0.0822 -0.82598,0.17623 -0.26246,0.1556 -1.41033,1.02517 z m 2.42562,3.20196 1.63095,2.15294 1.50486,-1.14 q 0.87876,-0.66569 1.07748,-0.89402 0.31255,-0.34051 0.34635,-0.76373 0.0351,-0.43288 -0.2894,-0.86127 -0.2746,-0.36249 -0.64174,-0.48199 -0.36713,-0.1195 -0.78953,0.0189 -0.41691,0.1343 -1.52633,0.97474 z"
         style="font-style:normal;font-variant:normal;font-weight:bold;font-stretch:normal;font-size:14.11111069px;font-family:Arial;-inkscape-font-specification:'Arial, Bold';font-variant-ligatures:normal;font-variant-caps:normal;font-variant-numeric:normal;font-feature-settings:normal;text-align:start;letter-spacing:1.05833328px;writing-mode:lr-tb;text-anchor:start;stroke-width:0.26458332"
         id="path7353"
         inkscape:connector-curvature="0" />
      <path
         d="m 178.65525,237.59081 q -1.04642,-1.1345 -1.41716,-2.21734 -0.26997,-0.80082 -0.25017,-1.65334 0.0249,-0.85718 0.34566,-1.55613 0.42292,-0.93375 1.32951,-1.76996 1.64098,-1.51357 3.56251,-1.40183 1.9266,0.10706 3.59901,1.92024 1.65839,1.79798 1.61987,3.7176 -0.0432,1.91455 -1.6791,3.42345 -1.65617,1.52759 -3.5633,1.42131 -1.9118,-0.11134 -3.54683,-1.884 z m 1.49803,-1.47546 q 1.16321,1.26112 2.34828,1.37724 1.1804,0.11107 2.07686,-0.71579 0.89646,-0.82686 0.87549,-1.99797 -0.0206,-1.18084 -1.21181,-2.47235 -1.17723,-1.27631 -2.31868,-1.3858 -1.13639,-0.11416 -2.06324,0.74073 -0.92685,0.85489 -0.90549,2.01625 0.0167,1.15631 1.19859,2.43769 z"
         style="font-style:normal;font-variant:normal;font-weight:bold;font-stretch:normal;font-size:14.11111069px;font-family:Arial;-inkscape-font-specification:'Arial, Bold';font-variant-ligatures:normal;font-variant-caps:normal;font-variant-numeric:normal;font-feature-settings:normal;text-align:start;letter-spacing:1.05833328px;writing-mode:lr-tb;text-anchor:start;stroke-width:0.26458332"
         id="path7355"
         inkscape:connector-curvature="0" />
    </g>
    <g
       aria-label="КАМЕНИЦА"
       style="font-style:normal;font-variant:normal;font-weight:bold;font-stretch:normal;font-size:11.28888893px;line-height:1.25;font-family:Arial;-inkscape-font-specification:'Arial, Bold';font-variant-ligatures:normal;font-variant-caps:normal;font-variant-numeric:normal;font-feature-settings:normal;text-align:start;letter-spacing:2.64583325px;word-spacing:0px;writing-mode:lr-tb;text-anchor:start;fill:#000000;fill-opacity:1;stroke:none;stroke-width:0.26458332"
       id="text7364"
       transform="translate(0.69836022,4.03914)">
      <path
         d="m 64.790858,219.07862 1.494533,0.65458 -1.379936,3.15064 q 0.521974,0.16844 0.789362,0.0388 0.267387,-0.12962 1.04951,-0.91236 0.990838,-0.99824 1.588668,-1.08542 0.59278,-0.0894 1.627845,0.36395 0.05049,0.0221 0.219322,0.09 l -0.484304,1.10575 -0.209851,-0.0979 q -0.459468,-0.20124 -0.722393,-0.17799 -0.260713,0.0182 -0.493716,0.19296 -0.233003,0.17476 -0.806742,0.784 -0.304395,0.32402 -0.578749,0.51076 -0.269305,0.18895 -0.772748,0.23925 0.437941,0.3603 0.573111,0.93101 0.140219,0.57291 0.186227,1.5258 l 0.120822,2.47203 -1.757086,-0.76958 -0.04546,-2.30061 q -0.0025,-0.0492 -0.01728,-0.19412 -0.0076,-0.0515 -0.03423,-0.43021 -0.04896,-0.67135 -0.176071,-0.8895 -0.122059,-0.21594 -0.49853,-0.38684 l -1.419742,3.24152 -1.494532,-0.65459 z"
         id="path7379"
         inkscape:connector-curvature="0" />
      <path
         d="m 77.310932,232.26824 -1.695467,-0.52508 -0.130958,-1.96212 -3.085539,-0.95557 -1.180134,1.55607 -1.653343,-0.51203 5.397135,-6.788 1.648078,0.5104 z m -1.923862,-3.94267 -0.176526,-3.19379 -1.929645,2.54152 z"
         id="path7381"
         inkscape:connector-curvature="0" />
      <path
         d="m 80.718182,233.0823 1.387754,-7.96076 2.405605,0.41935 0.497823,5.68207 2.374785,-5.1813 2.411035,0.4203 -1.387754,7.96076 -1.493321,-0.26032 1.092406,-6.26652 -2.672612,5.99105 -1.547624,-0.26979 -0.482369,-6.54104 -1.092407,6.26652 z"
         id="path7383"
         inkscape:connector-curvature="0" />
      <path
         d="m 92.67149,234.8355 0.388249,-8.07149 5.98479,0.28788 -0.06568,1.36543 -4.355078,-0.20948 -0.08607,1.78938 4.052259,0.19492 -0.06541,1.35993 -4.052259,-0.19492 -0.10567,2.19681 4.50924,0.2169 -0.06542,1.35993 z"
         id="path7385"
         inkscape:connector-curvature="0" />
      <path
         d="m 102.86125,235.09097 -0.5572,-8.06159 1.62771,-0.1125 0.21931,3.17294 3.18944,-0.22045 -0.21931,-3.17294 1.62771,-0.11251 0.55721,8.06159 -1.62771,0.1125 -0.24364,-3.52488 -3.18944,0.22045 0.24364,3.52488 z"
         id="path7387"
         inkscape:connector-curvature="0" />
      <path
         d="m 112.11949,226.14687 1.49977,-0.28637 1.00903,5.28438 2.20708,-5.89849 1.59723,-0.30498 1.51562,7.93741 -1.49977,0.28637 -0.98939,-5.18151 -2.22131,5.79458 -1.60264,0.30602 z"
         id="path7389"
         inkscape:connector-curvature="0" />
      <path
         d="m 121.70625,224.11403 1.55464,-0.4952 2.04103,6.40761 3.01473,-0.96029 -2.04104,-6.40761 1.55464,-0.49521 2.04103,6.40761 0.64076,-0.2041 0.94691,2.97271 -1.29202,0.41155 -0.53536,-1.68068 -5.47273,1.74325 z"
         id="path7391"
         inkscape:connector-curvature="0" />
      <path
         d="m 141.05869,225.24362 -1.61465,0.73704 -1.40406,-1.37683 -2.93846,1.34132 0.15546,1.94677 -1.57453,0.71872 -0.49233,-8.65815 1.56952,-0.71643 z m -4.06045,-1.6609 -2.25809,-2.2655 0.25232,3.18107 z"
         id="path7393"
         inkscape:connector-curvature="0" />
    </g>
    <circle
       style="fill:none;fill-rule:evenodd;stroke:#000000;stroke-width:1.85208333;stroke-miterlimit:4;stroke-dasharray:none;stroke-opacity:1"
       id="path7370"
       cx="46.196342"
       cy="174.96257"
       r="120.24074"
       transform="rotate(-19.109918)" />
    <circle
       transform="rotate(-164.89503)"
       cy="-118.70647"
       cx="-136.5825"
       id="circle7372"
       style="fill:none;fill-rule:evenodd;stroke:#000000;stroke-width:1.85208333;stroke-miterlimit:4;stroke-dasharray:none;stroke-opacity:1"
       r="95.467079" />
    <g
       aria-label="ЖЕЛЕЗНИЧКА СТАНИЦА"
       style="font-style:normal;font-variant:normal;font-weight:normal;font-stretch:normal;font-size:14.11111069px;line-height:1.25;font-family:'Courier New';-inkscape-font-specification:'Courier New';letter-spacing:0px;word-spacing:0px;fill:#000000;fill-opacity:1;stroke:none;stroke-width:0.26458332"
       id="text7398"
       transform="matrix(1.0359163,0.0516138,-0.05353893,0.99866712,1.5437836,-12.119261)">
      <path
         d="m 27.072628,122.34646 3.250971,1.12335 q 0.101959,-0.39633 -0.08492,-0.68252 -0.186876,-0.28619 -0.97799,-0.9503 -1.034643,-0.87072 -1.197244,-1.46345 -0.159191,-0.58571 0.222461,-1.69021 0.018,-0.0521 0.0722,-0.22582 l 1.140965,0.39425 -0.08262,0.22222 q -0.162022,0.46889 -0.117805,0.72912 0.03901,0.25842 0.231856,0.47668 0.192849,0.21827 0.846051,0.74141 0.347345,0.27749 0.555441,0.53602 0.209897,0.25332 0.300322,0.75112 0.329311,-0.46357 0.887368,-0.64399 0.554646,-0.18742 1.500798,-0.30954 l 2.454424,-0.31828 -0.626485,1.81304 -2.291391,0.23465 q -0.04708,0.001 -0.19211,0.0328 -0.09255,0.0147 -0.424292,0.0633 -0.647852,0.10273 -0.863747,0.23807 -0.215896,0.13535 -0.311309,0.41148 l 3.344749,1.15575 -0.52027,1.50566 -3.344749,-1.15575 q -0.09181,0.2657 -0.01254,0.50887 0.07927,0.24318 0.537713,0.72235 0.256786,0.26952 0.292873,0.31698 0.06195,0.0739 0.130903,0.14437 l 1.657705,1.59924 -0.626485,1.81304 -1.734327,-1.76568 q -0.643055,-0.65377 -0.9793,-1.14903 -0.339654,-0.50227 -0.308916,-1.08068 -0.378465,0.33578 -0.696567,0.41248 -0.321512,0.0697 -0.77308,0.077 -0.819397,0.008 -1.111068,0.0593 -0.289871,0.0456 -0.487109,0.22826 -0.195438,0.17741 -0.368261,0.67756 -0.0216,0.0625 -0.0632,0.19977 l -1.140966,-0.39425 q 0.06462,-0.17013 0.08262,-0.22223 0.387052,-1.12012 0.879098,-1.48081 0.495454,-0.35367 1.834721,-0.39828 1.039357,-0.0374 1.36125,-0.14198 0.318484,-0.11156 0.482962,-0.48629 l -3.250971,-1.12336 z"
         style="font-style:normal;font-variant:normal;font-weight:bold;font-stretch:normal;font-size:11.28888893px;font-family:Arial;-inkscape-font-specification:'Arial, Bold';font-variant-ligatures:normal;font-variant-caps:normal;font-variant-numeric:normal;font-feature-settings:normal;text-align:start;letter-spacing:2.64583325px;writing-mode:lr-tb;text-anchor:start;stroke-width:0.26458332"
         id="path7403"
         inkscape:connector-curvature="0" />
      <path
         d="m 37.663495,117.78894 -7.127713,-3.80727 2.822988,-5.28501 1.20578,0.64407 -2.054263,3.84585 1.580155,0.84404 1.911425,-3.57844 1.200918,0.64147 -1.911426,3.57844 1.939944,1.03623 2.12698,-3.98199 1.200918,0.64147 z"
         style="font-style:normal;font-variant:normal;font-weight:bold;font-stretch:normal;font-size:11.28888893px;font-family:Arial;-inkscape-font-specification:'Arial, Bold';font-variant-ligatures:normal;font-variant-caps:normal;font-variant-numeric:normal;font-feature-settings:normal;text-align:start;letter-spacing:2.64583325px;writing-mode:lr-tb;text-anchor:start;stroke-width:0.26458332"
         id="path7405"
         inkscape:connector-curvature="0" />
      <path
         d="m 36.552104,103.69311 3.352608,-4.561439 6.511266,4.785709 -0.966282,1.31469 -5.40977,-3.97612 -1.43963,1.95871 2.780391,2.04355 q 1.194768,0.87815 1.61125,1.30739 0.412041,0.42598 0.450019,0.93276 0.0368,0.49906 -0.446339,1.15641 -0.169753,0.23096 -0.6614,0.8068 l -1.017108,-0.74756 0.219897,-0.28988 q 0.303595,-0.41306 0.29702,-0.6368 -0.0066,-0.22374 -0.441844,-0.54366 l -1.122527,-0.8182 z"
         style="font-style:normal;font-variant:normal;font-weight:bold;font-stretch:normal;font-size:11.28888893px;font-family:Arial;-inkscape-font-specification:'Arial, Bold';font-variant-ligatures:normal;font-variant-caps:normal;font-variant-numeric:normal;font-feature-settings:normal;text-align:start;letter-spacing:2.64583325px;writing-mode:lr-tb;text-anchor:start;stroke-width:0.26458332"
         id="path7407"
         inkscape:connector-curvature="0" />
      <path
         d="m 49.230571,100.62938 -5.763802,-5.663762 4.199528,-4.273705 0.975049,0.958126 -3.055958,3.109936 1.277787,1.255609 2.843471,-2.893696 0.971118,0.954263 -2.843471,2.893695 1.568729,1.541501 3.164134,-3.220023 0.971118,0.954263 z"
         style="font-style:normal;font-variant:normal;font-weight:bold;font-stretch:normal;font-size:11.28888893px;font-family:Arial;-inkscape-font-specification:'Arial, Bold';font-variant-ligatures:normal;font-variant-caps:normal;font-variant-numeric:normal;font-feature-settings:normal;text-align:start;letter-spacing:2.64583325px;writing-mode:lr-tb;text-anchor:start;stroke-width:0.26458332"
         id="path7409"
         inkscape:connector-curvature="0" />
      <path
         d="m 53.905232,88.23019 -1.481977,0.678448 q -0.800974,-1.874925 1.100712,-3.344426 1.12531,-0.869567 2.080916,-0.813862 0.956596,0.04797 1.47227,0.715308 0.353894,0.457975 0.378679,1.030942 0.02141,0.568605 -0.286278,1.252201 0.805324,-0.273997 1.433803,-0.118764 0.62511,0.150871 1.076745,0.735334 0.650491,0.841802 0.432214,1.839439 -0.213916,0.994267 -1.443906,1.944724 -1.003183,0.775195 -1.839436,0.891974 -0.839623,0.112417 -1.839642,-0.577715 l 0.882044,-1.301571 q 0.628085,0.434183 1.060486,0.371729 0.436763,-0.06582 0.881653,-0.409607 0.610633,-0.471858 0.687555,-0.949264 0.07355,-0.481769 -0.189341,-0.821978 -0.303338,-0.39255 -0.807112,-0.386402 -0.499413,0.0028 -1.136216,0.494859 l -0.292232,0.225818 -0.744862,-0.963928 0.148297,-0.114594 q 0.593187,-0.458377 0.701631,-0.967108 0.108445,-0.508732 -0.231967,-0.94926 -0.269633,-0.348933 -0.712345,-0.38997 -0.438349,-0.04441 -0.913771,0.322967 -0.811269,0.626898 -0.41792,1.604706 z"
         style="font-style:normal;font-variant:normal;font-weight:bold;font-stretch:normal;font-size:11.28888893px;font-family:Arial;-inkscape-font-specification:'Arial, Bold';font-variant-ligatures:normal;font-variant-caps:normal;font-variant-numeric:normal;font-feature-settings:normal;text-align:start;letter-spacing:2.64583325px;writing-mode:lr-tb;text-anchor:start;stroke-width:0.26458332"
         id="path7411"
         inkscape:connector-curvature="0" />
      <path
         d="m 64.444723,87.844985 -4.00107,-7.020757 1.41756,-0.807855 1.574774,2.763285 2.777652,-1.582961 -1.574773,-2.763285 1.417561,-0.807856 4.00107,7.020757 -1.417561,0.807856 -1.749444,-3.069786 -2.777653,1.582961 1.749444,3.069785 z"
         style="font-style:normal;font-variant:normal;font-weight:bold;font-stretch:normal;font-size:11.28888893px;font-family:Arial;-inkscape-font-specification:'Arial, Bold';font-variant-ligatures:normal;font-variant-caps:normal;font-variant-numeric:normal;font-feature-settings:normal;text-align:start;letter-spacing:2.64583325px;writing-mode:lr-tb;text-anchor:start;stroke-width:0.26458332"
         id="path7413"
         inkscape:connector-curvature="0" />
      <path
         d="m 71.070956,75.236321 1.422996,-0.553536 1.950362,5.013881 1.101119,-6.200884 1.515466,-0.589505 2.929539,7.531095 -1.422996,0.553535 -1.912394,-4.916274 -1.13395,6.101279 -1.520603,0.591503 z"
         style="font-style:normal;font-variant:normal;font-weight:bold;font-stretch:normal;font-size:11.28888893px;font-family:Arial;-inkscape-font-specification:'Arial, Bold';font-variant-ligatures:normal;font-variant-caps:normal;font-variant-numeric:normal;font-feature-settings:normal;text-align:start;letter-spacing:2.64583325px;writing-mode:lr-tb;text-anchor:start;stroke-width:0.26458332"
         id="path7415"
         inkscape:connector-curvature="0" />
      <path
         d="m 82.189158,71.325644 1.590545,-0.3637 0.43005,1.880712 q 0.208881,0.913488 0.342171,1.199657 0.137434,0.279567 0.520966,0.423699 0.383532,0.144132 1.028347,-0.0033 0.510479,-0.116728 0.883541,-0.315122 0.371833,-0.203768 0.612852,-0.485057 l -0.776548,-3.396028 1.590544,-0.363699 1.801296,7.877494 -1.590544,0.3637 -0.724942,-3.170342 q -0.434463,0.325523 -0.876151,0.545263 -0.442917,0.214368 -0.894288,0.31758 -1.176788,0.269088 -2.098618,-0.102528 -0.917685,-0.378219 -1.231007,-1.748452 z"
         style="font-style:normal;font-variant:normal;font-weight:bold;font-stretch:normal;font-size:11.28888893px;font-family:Arial;-inkscape-font-specification:'Arial, Bold';font-variant-ligatures:normal;font-variant-caps:normal;font-variant-numeric:normal;font-feature-settings:normal;text-align:start;letter-spacing:2.64583325px;writing-mode:lr-tb;text-anchor:start;stroke-width:0.26458332"
         id="path7417"
         inkscape:connector-curvature="0" />
      <path
         d="m 93.836301,69.087062 1.62555,-0.14034 0.295853,3.426836 q 0.538939,-0.101855 0.71171,-0.34361 0.172772,-0.241755 0.485007,-1.303318 0.392397,-1.35065 0.875629,-1.713263 0.477739,-0.36214 1.603543,-0.459335 0.05492,-0.0047 0.23567,-0.02588 l 0.103833,1.202688 -0.231127,0.01442 q -0.499747,0.04315 -0.719494,0.189368 -0.220222,0.140731 -0.341197,0.405678 -0.120976,0.264946 -0.333254,1.074443 -0.112243,0.430173 -0.263798,0.725422 -0.146064,0.294776 -0.564066,0.579833 0.556956,0.106831 0.948727,0.543283 0.397262,0.435979 0.893614,1.250689 l 1.288939,2.112849 -1.911117,0.164994 -1.140744,-1.998392 q -0.02576,-0.04204 -0.108057,-0.162183 -0.03125,-0.04156 -0.235909,-0.361387 -0.364233,-0.566081 -0.580228,-0.696815 -0.210503,-0.131208 -0.622857,-0.101141 l 0.304386,3.525687 -1.62555,0.14034 z"
         style="font-style:normal;font-variant:normal;font-weight:bold;font-stretch:normal;font-size:11.28888893px;font-family:Arial;-inkscape-font-specification:'Arial, Bold';font-variant-ligatures:normal;font-variant-caps:normal;font-variant-numeric:normal;font-feature-settings:normal;text-align:start;letter-spacing:2.64583325px;writing-mode:lr-tb;text-anchor:start;stroke-width:0.26458332"
         id="path7419"
         inkscape:connector-curvature="0" />
      <path
         d="m 111.31259,76.971815 -1.77229,-0.09642 -0.6048,-1.871165 -3.22535,-0.17547 -0.7657,1.796604 -1.72826,-0.09402 3.58176,-7.897905 1.72276,0.09372 z m -2.82601,-3.355522 -0.94892,-3.054669 -1.25269,2.934894 z"
         style="font-style:normal;font-variant:normal;font-weight:bold;font-stretch:normal;font-size:11.28888893px;font-family:Arial;-inkscape-font-specification:'Arial, Bold';font-variant-ligatures:normal;font-variant-caps:normal;font-variant-numeric:normal;font-feature-settings:normal;text-align:start;letter-spacing:2.64583325px;writing-mode:lr-tb;text-anchor:start;stroke-width:0.26458332"
         id="path7421"
         inkscape:connector-curvature="0" />
      <path
         d="m 126.25794,77.186497 1.38322,0.917058 q -0.71336,1.171996 -1.70679,1.558797 -0.98661,0.383015 -2.23738,0.02551 -1.54758,-0.44234 -2.2425,-1.781816 -0.69341,-1.344776 -0.16927,-3.178544 0.55444,-1.939766 1.86212,-2.724038 1.3092,-0.789572 2.94158,-0.322995 1.42567,0.407498 2.07519,1.50468 0.3876,0.649678 0.38597,1.658205 l -1.65891,-0.07286 q 0.0349,-0.643576 -0.30501,-1.119104 -0.33461,-0.474012 -0.96,-0.652766 -0.86389,-0.246923 -1.58172,0.218651 -0.71253,0.467088 -1.10942,1.855663 -0.42113,1.473375 -0.0699,2.25025 0.35124,0.776875 1.19923,1.019253 0.62538,0.178754 1.18949,-0.08998 0.56411,-0.268729 1.0041,-1.065965 z"
         style="font-style:normal;font-variant:normal;font-weight:bold;font-stretch:normal;font-size:11.28888893px;font-family:Arial;-inkscape-font-specification:'Arial, Bold';font-variant-ligatures:normal;font-variant-caps:normal;font-variant-numeric:normal;font-feature-settings:normal;text-align:start;letter-spacing:2.64583325px;writing-mode:lr-tb;text-anchor:start;stroke-width:0.26458332"
         id="path7423"
         inkscape:connector-curvature="0" />
      <path
         d="m 132.15083,82.55762 2.67665,-6.157167 -2.19899,-0.955945 0.545,-1.253676 5.88924,2.560175 -0.545,1.253676 -2.19393,-0.953747 -2.67665,6.157167 z"
         style="font-style:normal;font-variant:normal;font-weight:bold;font-stretch:normal;font-size:11.28888893px;font-family:Arial;-inkscape-font-specification:'Arial, Bold';font-variant-ligatures:normal;font-variant-caps:normal;font-variant-numeric:normal;font-feature-settings:normal;text-align:start;letter-spacing:2.64583325px;writing-mode:lr-tb;text-anchor:start;stroke-width:0.26458332"
         id="path7425"
         inkscape:connector-curvature="0" />
      <path
         d="m 144.7317,89.342478 -1.51739,-0.920797 0.34908,-1.93525 -2.76145,-1.675736 -1.52245,1.223204 -1.47969,-0.89792 6.88297,-5.275489 1.47497,0.895061 z m -0.90966,-4.291665 0.60373,-3.141171 -2.48868,1.997323 z"
         style="font-style:normal;font-variant:normal;font-weight:bold;font-stretch:normal;font-size:11.28888893px;font-family:Arial;-inkscape-font-specification:'Arial, Bold';font-variant-ligatures:normal;font-variant-caps:normal;font-variant-numeric:normal;font-feature-settings:normal;text-align:start;letter-spacing:2.64583325px;writing-mode:lr-tb;text-anchor:start;stroke-width:0.26458332"
         id="path7427"
         inkscape:connector-curvature="0" />
      <path
         d="m 147.57284,91.442423 5.1719,-6.208949 1.25365,1.044258 -2.0356,2.443768 2.45647,2.046181 2.0356,-2.443768 1.25365,1.044258 -5.1719,6.208949 -1.25365,-1.044258 2.26139,-2.714827 -2.45648,-2.046181 -2.26138,2.714827 z"
         style="font-style:normal;font-variant:normal;font-weight:bold;font-stretch:normal;font-size:11.28888893px;font-family:Arial;-inkscape-font-specification:'Arial, Bold';font-variant-ligatures:normal;font-variant-caps:normal;font-variant-numeric:normal;font-feature-settings:normal;text-align:start;letter-spacing:2.64583325px;writing-mode:lr-tb;text-anchor:start;stroke-width:0.26458332"
         id="path7429"
         inkscape:connector-curvature="0" />
      <path
         d="m 161.70747,93.235575 1.01619,1.139593 -4.01531,3.580522 6.19444,-1.136774 1.08223,1.213646 -6.0312,5.378118 -1.0162,-1.13959 3.93715,-3.51082 -6.11261,1.071185 -1.08589,-1.217759 z"
         style="font-style:normal;font-variant:normal;font-weight:bold;font-stretch:normal;font-size:11.28888893px;font-family:Arial;-inkscape-font-specification:'Arial, Bold';font-variant-ligatures:normal;font-variant-caps:normal;font-variant-numeric:normal;font-feature-settings:normal;text-align:start;letter-spacing:2.64583325px;writing-mode:lr-tb;text-anchor:start;stroke-width:0.26458332"
         id="path7431"
         inkscape:connector-curvature="0" />
      <path
         d="m 169.35925,102.42549 0.89472,1.3644 -5.62354,3.6877 1.73503,2.64583 5.62354,-3.6877 0.89472,1.3644 -5.62354,3.6877 0.36877,0.56235 -2.60895,1.71085 -0.74358,-1.13392 1.47502,-0.96727 -3.14965,-4.80305 z"
         style="font-style:normal;font-variant:normal;font-weight:bold;font-stretch:normal;font-size:11.28888893px;font-family:Arial;-inkscape-font-specification:'Arial, Bold';font-variant-ligatures:normal;font-variant-caps:normal;font-variant-numeric:normal;font-feature-settings:normal;text-align:start;letter-spacing:2.64583325px;writing-mode:lr-tb;text-anchor:start;stroke-width:0.26458332"
         id="path7433"
         inkscape:connector-curvature="0" />
      <path
         d="m 171.34453,122.7302 -0.74412,-1.6114 1.37065,-1.4101 -1.3542,-2.93254 -1.94607,0.16401 -0.72563,-1.57137 8.65591,-0.53033 0.72331,1.56636 z m 1.64306,-4.06771 2.25556,-2.26802 -3.17993,0.26629 z"
         style="font-style:normal;font-variant:normal;font-weight:bold;font-stretch:normal;font-size:11.28888893px;font-family:Arial;-inkscape-font-specification:'Arial, Bold';font-variant-ligatures:normal;font-variant-caps:normal;font-variant-numeric:normal;font-feature-settings:normal;text-align:start;letter-spacing:2.64583325px;writing-mode:lr-tb;text-anchor:start;stroke-width:0.26458332"
         id="path7435"
         inkscape:connector-curvature="0" />
    </g>
  </g>
</svg>
