<?xml version="1.0" encoding="UTF-8" standalone="no"?>
<!-- Created with Inkscape (http://www.inkscape.org/) -->

<svg
   xmlns:dc="http://purl.org/dc/elements/1.1/"
   xmlns:cc="http://creativecommons.org/ns#"
   xmlns:rdf="http://www.w3.org/1999/02/22-rdf-syntax-ns#"
   xmlns:svg="http://www.w3.org/2000/svg"
   xmlns="http://www.w3.org/2000/svg"
   xmlns:sodipodi="http://sodipodi.sourceforge.net/DTD/sodipodi-0.dtd"
   xmlns:inkscape="http://www.inkscape.org/namespaces/inkscape"
   width="178.18129mm"
   height="174.73456mm"
   viewBox="0 0 178.18129 174.73456"
   version="1.1"
   id="svg8"
   inkscape:version="0.92.5 (2060ec1f9f, 2020-04-08)"
   sodipodi:docname="uggo-logo-example.svg">
  <defs
     id="defs2" />
  <sodipodi:namedview
     id="base"
     pagecolor="#ffffff"
     bordercolor="#666666"
     borderopacity="1.0"
     inkscape:pageopacity="0.0"
     inkscape:pageshadow="2"
     inkscape:zoom="0.70710678"
     inkscape:cx="302.7789"
     inkscape:cy="273.0066"
     inkscape:document-units="mm"
     inkscape:current-layer="text1027"
     showgrid="false"
     inkscape:window-width="1920"
     inkscape:window-height="1017"
     inkscape:window-x="-8"
     inkscape:window-y="-8"
     inkscape:window-maximized="1" />
  <metadata
     id="metadata5">
    <rdf:RDF>
      <cc:Work
         rdf:about="">
        <dc:format>image/svg+xml</dc:format>
        <dc:type
           rdf:resource="http://purl.org/dc/dcmitype/StillImage" />
        <dc:title></dc:title>
      </cc:Work>
    </rdf:RDF>
  </metadata>
  <g
     inkscape:label="Layer 1"
     inkscape:groupmode="layer"
     id="layer1"
     transform="translate(-15.63768,-46.177027)">
    <g
       aria-label="Železnička stanica"
       style="font-style:normal;font-variant:normal;font-weight:normal;font-stretch:normal;font-size:14.11111069px;line-height:1.25;font-family:'Courier New';-inkscape-font-specification:'Courier New';letter-spacing:0px;word-spacing:0px;fill:#000000;fill-opacity:1;stroke:none;stroke-width:0.26458332"
       id="text898"
       transform="matrix(1,0,0,1.0167062,0.74835468,0.2781662)">
      <path
         d="m 42.739788,90.669897 -3.047792,4.667148 -0.703822,-0.459617 -2.951628,-7.539842 -0.04038,-0.02637 -2.105952,3.22489 1.424951,0.930537 q 0.17884,0.116789 0.208629,0.234993 0.02979,0.118204 -0.04179,0.227815 -0.06781,0.103843 -0.188018,0.124096 -0.120205,0.02025 -0.299045,-0.09654 l -1.909551,-1.246995 2.731334,-4.182549 0.686515,0.448315 2.957397,7.543609 0.05192,0.03391 2.426178,-3.715257 -1.690327,-1.103836 q -0.17884,-0.116788 -0.212396,-0.229223 -0.02979,-0.118204 0.04179,-0.227816 0.07158,-0.109611 0.188019,-0.124095 0.120205,-0.02025 0.299045,0.09653 z m -8.825609,-2.438784 -2.209375,0.787332 q -0.148578,0.0511 -0.213568,0.04981 -0.07076,-0.0051 -0.134217,-0.0465 -0.103843,-0.06781 -0.127863,-0.182249 -0.02602,-0.123973 0.04179,-0.227816 0.04898,-0.075 0.229931,-0.137871 l 1.813322,-0.634506 -0.146149,-1.90587 q -0.01519,-0.190964 0.03755,-0.271731 0.06404,-0.09807 0.18425,-0.118326 0.118205,-0.02979 0.216278,0.03426 0.12115,0.07911 0.136814,0.319762 z"
         style="stroke-width:0.26458332"
         id="path941"
         inkscape:connector-curvature="0" />
      <path
         d="m 46.009834,81.98036 -3.752115,4.550613 q 0.962963,0.597525 1.994274,0.429816 1.030379,-0.177408 1.771158,-1.075835 0.412032,-0.499717 0.698713,-1.183161 0.286681,-0.683445 0.300473,-1.252543 0.0035,-0.166756 0.06491,-0.241182 0.07013,-0.08506 0.191843,-0.09187 0.116393,-0.01119 0.206767,0.06332 0.09037,0.07452 0.1053,0.229707 0.05541,0.47434 -0.24983,1.321091 -0.30617,0.837051 -0.871617,1.522832 -0.946795,1.148286 -2.331951,1.301079 -1.386088,0.143093 -2.454632,-0.737953 -0.972853,-0.802146 -1.077519,-2.094038 -0.100284,-1.297208 0.776379,-2.360436 0.902962,-1.095124 2.203621,-1.210423 1.295342,-0.119682 2.424229,0.828979 z m -0.824453,0.07929 q -0.848526,-0.476377 -1.780044,-0.288898 -0.927135,0.182162 -1.571482,0.963634 -0.644347,0.781472 -0.65179,1.721947 -0.0074,0.940476 0.628166,1.696742 z"
         style="stroke-width:0.26458332"
         id="path943"
         inkscape:connector-curvature="0" />
      <path
         d="m 46.145302,73.577182 5.612299,5.796671 1.633562,-1.581604 q 0.153456,-0.148575 0.275322,-0.151478 0.117072,-0.0079 0.208134,0.0862 0.08627,0.0891 0.07943,0.210811 -0.0068,0.121708 -0.160295,0.270283 l -3.682941,3.565799 q -0.148506,0.143782 -0.270371,0.146685 -0.121865,0.0029 -0.208135,-0.0862 -0.09106,-0.09405 -0.07943,-0.210811 0.0068,-0.121708 0.155345,-0.26549 l 1.633562,-1.581605 -5.204916,-5.375905 -1.197945,1.159843 q -0.148506,0.143783 -0.275322,0.151479 -0.121865,0.0029 -0.212927,-0.09115 -0.08627,-0.0891 -0.07943,-0.210811 0.0068,-0.121708 0.160296,-0.270283 z"
         style="stroke-width:0.26458332"
         id="path945"
         inkscape:connector-curvature="0" />
      <path
         d="m 59.087784,70.295416 -4.670122,3.602278 q 0.805975,0.796705 1.848757,0.862537 1.04403,0.05617 1.966052,-0.655029 0.51284,-0.395577 0.944326,-0.998157 0.431486,-0.60258 0.571488,-1.154361 0.04053,-0.161793 0.116915,-0.220709 0.08729,-0.06733 0.207469,-0.04691 0.115968,0.01497 0.187509,0.107718 0.07154,0.09275 0.05158,0.247372 -0.05146,0.474784 -0.537356,1.232454 -0.484646,0.748006 -1.188438,1.290873 -1.178442,0.908986 -2.562891,0.749924 -1.383202,-0.168725 -2.229064,-1.265331 -0.770114,-0.998402 -0.584871,-2.281222 0.190699,-1.287027 1.281849,-2.128681 1.123884,-0.866904 2.417615,-0.690077 1.289523,0.171371 2.179181,1.347318 z M 58.266342,70.18938 q -0.721343,-0.653143 -1.671227,-0.677508 -0.944429,-0.02857 -1.746424,0.590042 -0.801995,0.618615 -1.018394,1.533886 -0.216398,0.915271 0.235118,1.793947 z"
         style="stroke-width:0.26458332"
         id="path947"
         inkscape:connector-curvature="0" />
      <path
         d="m 64.392211,63.264375 0.267964,0.44186 -1.17973,6.412596 3.346356,-2.02938 -0.41445,-0.683411 q -0.107186,-0.176744 -0.08883,-0.292635 0.02425,-0.119463 0.136189,-0.187348 0.111938,-0.06788 0.229082,-0.03417 0.117145,0.03372 0.224331,0.210459 l 0.708679,1.181868 -4.524652,2.74395 -0.267963,-0.44186 1.165628,-6.395986 -3.075349,1.865029 0.407305,0.671628 q 0.107186,0.176744 0.08293,0.296208 -0.02425,0.119463 -0.130297,0.183774 -0.111938,0.06789 -0.229083,0.03417 -0.117144,-0.03372 -0.22433,-0.210459 l -0.710998,-1.172404 z"
         style="stroke-width:0.26458332"
         id="path949"
         inkscape:connector-curvature="0" />
      <path
         d="m 68.580057,61.076264 0.367799,0.794004 q 0.292428,-0.811281 0.637854,-1.229469 0.345427,-0.418189 0.901855,-0.675938 0.600193,-0.278021 1.21284,-0.250477 0.436994,0.02538 0.921058,0.332699 0.48742,0.29817 0.698833,0.754566 l 1.532013,3.307312 0.443893,-0.20562 q 0.18756,-0.08688 0.303589,-0.04951 0.113132,0.03112 0.168158,0.149912 0.05213,0.112536 0.0056,0.225209 -0.04652,0.112673 -0.234083,0.199554 l -1.406702,0.651613 q -0.193812,0.08978 -0.309841,0.0524 -0.116029,-0.03737 -0.168158,-0.149911 -0.05503,-0.118788 -0.0056,-0.225209 0.04652,-0.112673 0.240335,-0.202451 l 0.437641,-0.202724 -1.491469,-3.219783 q -0.257749,-0.556429 -0.840789,-0.749557 -0.585936,-0.199381 -1.267405,0.116289 -0.518916,0.240373 -0.801823,0.6296 -0.285802,0.382976 -0.607104,1.541747 l 1.526222,3.294808 0.593941,-0.275126 q 0.18756,-0.08688 0.303589,-0.04951 0.113132,0.03112 0.168157,0.149911 0.05213,0.112537 0.0056,0.225209 -0.04652,0.112673 -0.234084,0.199555 l -1.713049,0.793519 q -0.187561,0.08688 -0.303589,0.04951 -0.116029,-0.03738 -0.168158,-0.149912 -0.05503,-0.118788 -0.0056,-0.225209 0.04652,-0.112673 0.234084,-0.199554 l 0.593941,-0.275126 -2.018552,-4.357648 -0.443892,0.20562 q -0.18756,0.08688 -0.303589,0.04951 -0.116029,-0.03738 -0.171054,-0.156163 -0.05213,-0.112536 -0.0056,-0.225209 0.04652,-0.112673 0.234084,-0.199555 z"
         style="stroke-width:0.26458332"
         id="path951"
         inkscape:connector-curvature="0" />
      <path
         d="m 78.080041,54.015645 0.474424,1.417906 -0.810232,0.2711 -0.474425,-1.417907 z m 0.961892,2.809651 1.709676,5.109691 2.156264,-0.721474 q 0.202558,-0.06777 0.313737,-0.01779 0.108993,0.04345 0.150533,0.167602 0.03935,0.117614 -0.01936,0.224446 -0.05871,0.106831 -0.261266,0.174606 l -4.861394,1.626597 q -0.196024,0.06559 -0.307203,0.0156 -0.111179,-0.04999 -0.150532,-0.167602 -0.04154,-0.124149 0.01936,-0.224446 0.05871,-0.106831 0.254732,-0.17242 l 2.156263,-0.721474 -1.523842,-4.55429 -1.600862,0.53564 q -0.196024,0.06559 -0.313737,0.01779 -0.111179,-0.04999 -0.150533,-0.167602 -0.04154,-0.124149 0.01717,-0.23098 0.05871,-0.106831 0.261267,-0.174606 z"
         style="stroke-width:0.26458332"
         id="path953"
         inkscape:connector-curvature="0" />
      <path
         d="m 90.028375,54.576903 -0.04062,-0.188599 q -0.04498,-0.208807 0.01699,-0.313782 0.06197,-0.104975 0.18321,-0.13109 0.127978,-0.02757 0.227668,0.04259 0.09969,0.07015 0.144667,0.27896 l 0.275666,1.279784 q 0.03824,0.210258 -0.02373,0.315232 -0.05523,0.103524 -0.18321,0.131091 -0.114507,0.02466 -0.211295,-0.03202 -0.0915,-0.06487 -0.144148,-0.243831 -0.143426,-0.46953 -0.829024,-0.772938 -0.678862,-0.304859 -1.675746,-0.09013 -1.259576,0.271313 -1.743188,1.200125 -0.483611,0.928812 -0.264529,1.945903 0.236492,1.09792 1.111005,1.656661 0.874513,0.558741 2.019582,0.312093 0.660099,-0.142186 1.288174,-0.531209 0.63481,-0.390474 1.071068,-1.048302 0.112432,-0.165182 0.220204,-0.188396 0.114507,-0.02466 0.20601,0.0402 0.09679,0.05668 0.121453,0.171189 0.06239,0.289635 -0.522161,0.88073 -0.942677,0.957212 -2.289817,1.247387 -1.367348,0.294527 -2.436888,-0.384315 -1.064254,-0.687028 -1.352978,-2.027433 -0.294527,-1.367347 0.406904,-2.462898 0.708168,-1.097001 2.075515,-1.391528 1.299991,-0.280018 2.349219,0.304523 z M 87.725466,53.473004 85.60121,52.478636 q -0.141555,-0.06818 -0.18684,-0.114816 -0.04674,-0.05337 -0.0627,-0.127459 -0.02612,-0.121243 0.0373,-0.219482 0.0687,-0.106425 0.189946,-0.132541 0.08756,-0.01886 0.260414,0.06373 l 1.735239,0.824427 1.236657,-1.457526 q 0.123521,-0.146426 0.217821,-0.166738 0.114506,-0.02466 0.214196,0.04549 0.104975,0.06197 0.12964,0.176474 0.03047,0.14145 -0.127663,0.323524 z"
         style="stroke-width:0.26458332"
         id="path955"
         inkscape:connector-curvature="0" />
      <path
         d="m 95.724539,56.581184 0.260556,2.563725 -1.350411,0.137244 q -0.205647,0.0209 -0.30312,-0.0523 -0.09747,-0.0732 -0.110014,-0.196589 -0.01324,-0.130243 0.06821,-0.214703 0.08075,-0.09132 0.2864,-0.112216 l 0.774602,-0.07872 -0.756587,-7.444399 -0.774601,0.07872 q -0.205647,0.0209 -0.30312,-0.0523 -0.09747,-0.0732 -0.110711,-0.203444 -0.01254,-0.123388 0.06821,-0.214703 0.08075,-0.09132 0.286399,-0.112216 l 1.350412,-0.137244 0.539224,5.305676 2.238191,-2.305176 -0.29476,0.02996 q -0.205647,0.0209 -0.30312,-0.0523 -0.09747,-0.0732 -0.110014,-0.19659 -0.01324,-0.130243 0.06752,-0.221558 0.08075,-0.09132 0.2864,-0.112216 l 1.843962,-0.187404 q 0.212501,-0.0216 0.309975,0.0516 0.09747,0.0732 0.11071,0.203445 0.01254,0.123388 -0.06821,0.214703 -0.08075,0.09132 -0.293255,0.112912 l -0.664923,0.06758 -2.057512,2.106745 3.139467,2.610495 0.664921,-0.06758 q 0.21251,-0.0216 0.30998,0.05161 0.0968,0.06635 0.11001,0.19659 0.0125,0.123387 -0.0682,0.214703 -0.0808,0.09131 -0.29326,0.112912 l -1.864524,0.189495 q -0.205646,0.0209 -0.30312,-0.0523 -0.09747,-0.0732 -0.110013,-0.196589 -0.01324,-0.130243 0.06821,-0.214704 0.08075,-0.09132 0.2864,-0.112215 l 0.404437,-0.0411 -2.733077,-2.291661 z"
         style="stroke-width:0.26458332"
         id="path957"
         inkscape:connector-curvature="0" />
      <path
         d="m 107.26575,58.656827 0.008,-0.833672 q -1.27147,1.04841 -2.70456,1.034059 -1.04036,-0.01042 -1.62076,-0.539911 -0.58032,-0.536382 -0.57266,-1.301155 0.008,-0.840561 0.78636,-1.45981 0.77794,-0.619248 2.25925,-0.604414 0.39962,0.004 0.86757,0.06381 0.46803,0.05292 1.01122,0.168609 l 0.009,-0.937019 q 0.005,-0.4754 -0.43267,-0.831197 -0.43744,-0.355798 -1.31934,-0.36463 -0.6752,-0.0068 -1.89864,0.373748 -0.22116,0.06669 -0.28317,0.06607 -0.11024,-0.0011 -0.19209,-0.08461 -0.075,-0.08344 -0.0737,-0.207455 0.001,-0.117127 0.0708,-0.185336 0.0975,-0.102381 0.78138,-0.274687 1.07771,-0.27861 1.6289,-0.27309 1.09548,0.01097 1.70323,0.561408 0.60781,0.543549 0.60098,1.225643 l -0.0384,3.830754 0.77166,0.0077 q 0.21359,0.0021 0.30233,0.08571 0.0888,0.07669 0.0875,0.207592 -10e-4,0.124017 -0.0916,0.205798 -0.0904,0.08178 -0.30398,0.07964 z m 0.0288,-2.879956 q -0.40533,-0.121198 -0.85951,-0.18087 -0.45417,-0.05967 -0.95713,-0.06471 -1.26084,-0.01263 -1.97595,0.524565 -0.54148,0.401119 -0.54714,0.966086 -0.005,0.523629 0.39767,0.885971 0.40981,0.362412 1.19525,0.370278 0.75099,0.0075 1.39471,-0.282327 0.65069,-0.296667 1.33934,-0.944372 z"
         style="stroke-width:0.26458332"
         id="path959"
         inkscape:connector-curvature="0" />
      <path
         d="m 125.51933,55.702031 q 0.0463,-0.194368 0.14754,-0.262324 0.1012,-0.06796 0.22185,-0.03919 0.12734,0.03036 0.187,0.136665 0.0596,0.106305 0.0101,0.314078 l -0.2301,0.965138 q -0.0479,0.20107 -0.14914,0.269026 -0.1012,0.06796 -0.22854,0.0376 -0.11394,-0.02716 -0.1768,-0.120065 -0.0561,-0.0913 -0.0296,-0.262057 0.0557,-0.411728 -0.25735,-0.762602 -0.46011,-0.506359 -1.36493,-0.722076 -0.94503,-0.225305 -1.5589,0.03209 -0.46414,0.193924 -0.54883,0.549148 -0.0959,0.402141 0.30937,0.782088 0.27697,0.264365 1.15112,0.579019 1.14255,0.406978 1.55996,0.676492 0.5942,0.389578 0.81014,0.880225 0.22264,0.492245 0.10759,0.974814 -0.17097,0.717151 -0.99554,1.115564 -0.82297,0.391711 -2.15673,0.07373 -1.33377,-0.317983 -2.02358,-1.197853 -0.0543,0.227879 -0.0971,0.288511 -0.0428,0.06063 -0.1277,0.08997 -0.0782,0.03094 -0.16533,0.01017 -0.12065,-0.02876 -0.1803,-0.135068 -0.0597,-0.106305 -0.0117,-0.307375 l 0.27644,-1.159506 q 0.0479,-0.20107 0.14243,-0.270624 0.1012,-0.06796 0.22855,-0.0376 0.12064,0.02876 0.1803,0.135067 0.0679,0.101201 0.0344,0.24195 -0.0735,0.308308 0.0311,0.552833 0.15788,0.377639 0.61613,0.713555 0.46654,0.330811 1.2105,0.508178 1.09919,0.262056 1.73285,-0.01895 0.63366,-0.28101 0.74232,-0.73677 0.12463,-0.522783 -0.34316,-0.967223 -0.47449,-0.446039 -1.50119,-0.804147 -1.02,-0.35651 -1.43421,-0.639429 -0.41422,-0.282918 -0.58581,-0.69216 -0.1716,-0.409243 -0.0757,-0.811383 0.17258,-0.723854 0.98369,-0.976724 0.81272,-0.259572 1.79796,-0.02468 1.16621,0.278035 1.76094,1.021906 z"
         style="stroke-width:0.26458332"
         id="path961"
         inkscape:connector-curvature="0" />
      <path
         d="m 131.37296,57.09773 2.95559,1.065929 q 0.19445,0.07013 0.25066,0.178294 0.0562,0.108167 0.0118,0.231317 -0.0421,0.116668 -0.15438,0.164058 -0.11231,0.04739 -0.30676,-0.02274 l -2.95559,-1.065929 -1.3067,3.623188 q -0.17064,0.473153 0.0907,0.926328 0.26787,0.455512 1.00029,0.719657 0.55093,0.198693 1.25104,0.268073 0.70245,0.0629 1.13374,-0.01594 0.16002,-0.03751 0.24428,-0.0071 0.1037,0.0374 0.15109,0.149711 0.0497,0.10583 0.01,0.216016 -0.0351,0.09722 -0.14971,0.151095 -0.28455,0.13909 -1.17943,0.102012 -0.88605,-0.04122 -1.61847,-0.305366 -0.95279,-0.343622 -1.35539,-0.994217 -0.4026,-0.650595 -0.12911,-1.408937 l 1.3067,-3.623188 -1.00464,-0.362322 q -0.19445,-0.07013 -0.25066,-0.178294 -0.0562,-0.108167 -0.0118,-0.231317 0.0421,-0.116668 0.15438,-0.164058 0.11232,-0.04739 0.30676,0.02274 l 1.00464,0.362322 0.57972,-1.607425 q 0.0701,-0.194446 0.17829,-0.250656 0.10817,-0.05621 0.22484,-0.01413 0.12315,0.04441 0.17054,0.156725 0.0474,0.112311 -0.0227,0.306757 z"
         style="stroke-width:0.26458332"
         id="path963"
         inkscape:connector-curvature="0" />
      <path
         d="m 139.74243,67.156949 0.3681,-0.748047 q -1.59984,0.395338 -2.88574,-0.23744 -0.93351,-0.459372 -1.22779,-1.187807 -0.29124,-0.734618 0.0464,-1.420843 0.37115,-0.75423 1.3404,-0.976085 0.96925,-0.221855 2.29842,0.432218 0.35857,0.176448 0.75462,0.432775 0.3991,0.250145 0.83882,0.589394 l 0.41374,-0.84078 q 0.20991,-0.426573 -0.0306,-0.936567 -0.24051,-0.509993 -1.03183,-0.899395 -0.60586,-0.298136 -1.87352,-0.484219 -0.22825,-0.03553 -0.28389,-0.06291 -0.0989,-0.04868 -0.1366,-0.159368 -0.0315,-0.107651 0.0233,-0.218931 0.0517,-0.105097 0.14396,-0.136497 0.13218,-0.05014 0.82332,0.0903 1.0922,0.214931 1.58677,0.458307 0.98297,0.48371 1.29286,1.24286 0.31292,0.752969 0.0117,1.365008 l -1.69146,3.43731 0.69241,0.340726 q 0.19165,0.09431 0.23551,0.208043 0.0469,0.107553 -0.0109,0.225015 -0.0548,0.11128 -0.17163,0.145918 -0.11688,0.03464 -0.30853,-0.05967 z m 1.27164,-2.584164 q -0.31304,-0.284588 -0.69672,-0.534831 -0.38369,-0.250243 -0.83499,-0.472323 -1.13135,-0.556723 -2.00845,-0.381675 -0.6617,0.127459 -0.91116,0.634401 -0.23121,0.469848 -0.0247,0.970813 0.21273,0.504007 0.91751,0.850817 0.67386,0.3316 1.37962,0.34869 0.71498,0.01395 1.61603,-0.272183 z"
         style="stroke-width:0.26458332"
         id="path965"
         inkscape:connector-curvature="0" />
      <path
         d="m 147.24877,64.530378 -0.47009,0.738062 q 0.84085,-0.191493 1.37931,-0.126278 0.53847,0.06521 1.0557,0.394648 0.5579,0.355344 0.86525,0.886034 0.2144,0.381629 0.21681,0.955002 0.0119,0.571263 -0.25828,0.995503 l -1.95809,3.074289 0.41262,0.262807 q 0.17434,0.111044 0.20547,0.228902 0.0348,0.112046 -0.0355,0.222465 -0.0666,0.104607 -0.1866,0.126226 -0.11996,0.02162 -0.29431,-0.08943 l -1.30759,-0.832836 q -0.18016,-0.114746 -0.21129,-0.232604 -0.0311,-0.117858 0.0355,-0.222465 0.0703,-0.110419 0.18659,-0.126226 0.11997,-0.02162 0.30013,0.09313 l 0.4068,0.259105 1.90627,-2.992928 q 0.32944,-0.517225 0.17748,-1.112324 -0.14826,-0.600911 -0.78171,-1.004374 -0.48236,-0.307224 -0.96271,-0.335424 -0.47665,-0.03401 -1.62565,0.32065 l -1.95069,3.062667 0.55209,0.351642 q 0.17435,0.111044 0.20548,0.228902 0.0348,0.112046 -0.0355,0.222465 -0.0666,0.104607 -0.1866,0.126226 -0.11997,0.02162 -0.29431,-0.08943 l -1.59236,-1.01421 q -0.17434,-0.111045 -0.20547,-0.228903 -0.0311,-0.117857 0.0355,-0.222465 0.0703,-0.110418 0.1866,-0.126225 0.11996,-0.02162 0.29431,0.08943 l 0.55209,0.351642 2.57995,-4.050623 -0.41262,-0.262806 q -0.17435,-0.111045 -0.20548,-0.228903 -0.0311,-0.117857 0.0392,-0.228276 0.0666,-0.104607 0.18659,-0.126226 0.11997,-0.02162 0.29432,0.08943 z"
         style="stroke-width:0.26458332"
         id="path967"
         inkscape:connector-curvature="0" />
      <path
         d="m 158.31998,68.717429 -0.9378,1.164498 -0.66543,-0.535889 0.93781,-1.164499 z m -1.84654,2.325863 -3.37956,4.196487 1.77089,1.426157 q 0.16636,0.133973 0.18426,0.254551 0.0222,0.115212 -0.0599,0.217172 -0.0778,0.0966 -0.19941,0.104809 -0.12162,0.0082 -0.28798,-0.125758 l -3.99257,-3.215336 q -0.16099,-0.129651 -0.17889,-0.250229 -0.0179,-0.120578 0.0599,-0.217173 0.0821,-0.101961 0.19941,-0.104808 0.12163,-0.0082 0.28262,0.121436 l 1.77089,1.426157 3.01222,-3.740347 -1.31476,-1.058814 q -0.16099,-0.129651 -0.18426,-0.254551 -0.0179,-0.120578 0.0599,-0.217172 0.0821,-0.101961 0.20374,-0.110175 0.12162,-0.0082 0.28798,0.125758 z"
         style="stroke-width:0.26458332"
         id="path969"
         inkscape:connector-curvature="0" />
      <path
         d="m 164.29382,79.090251 0.13704,-0.135795 q 0.15172,-0.150345 0.27354,-0.154662 0.12183,-0.0043 0.20912,0.08378 0.0922,0.09299 0.0867,0.21477 -0.005,0.121779 -0.15715,0.272124 l -0.92991,0.921467 q -0.15657,0.145451 -0.2784,0.149768 -0.11697,0.0092 -0.20912,-0.08378 -0.0824,-0.0832 -0.0868,-0.195282 0.005,-0.112035 0.12782,-0.252769 0.3184,-0.373703 0.20485,-1.114788 -0.1087,-0.736191 -0.82648,-1.460543 -0.90692,-0.915228 -1.94998,-0.822542 -1.04306,0.09269 -1.7821,0.825011 -0.79776,0.790522 -0.79763,1.828291 1.4e-4,1.037769 0.82462,1.869795 0.47528,0.479638 1.1413,0.799365 0.67088,0.324622 1.46011,0.337965 0.19973,0.0058 0.27733,0.08409 0.0824,0.0832 0.0771,0.195237 0.004,0.11208 -0.0788,0.194527 -0.21045,0.208543 -1.02331,0.03431 -1.31421,-0.278834 -2.28417,-1.257688 -0.98452,-0.993536 -0.98849,-2.260314 0.006,-1.266733 0.97974,-2.231849 0.99354,-0.984516 2.2944,-0.983455 1.30571,0.006 2.29022,0.999491 0.93602,0.944594 1.00851,2.143474 z"
         style="stroke-width:0.26458332"
         id="path971"
         inkscape:connector-curvature="0" />
      <path
         d="m 165.40889,88.799975 0.65421,-0.516816 q -1.61425,-0.331647 -2.50266,-1.456224 -0.64495,-0.8164 -0.5971,-1.600575 0.0533,-0.788445 0.65339,-1.262548 0.65961,-0.521087 1.62998,-0.304224 0.97038,0.216862 1.88869,1.379286 0.24773,0.313584 0.49492,0.715404 0.25259,0.397549 0.50351,0.893011 l 0.7353,-0.580883 q 0.37306,-0.294713 0.37544,-0.858568 0.002,-0.563855 -0.54433,-1.255903 -0.41858,-0.529849 -1.48276,-1.243363 -0.19074,-0.1303 -0.22918,-0.178959 -0.0683,-0.08651 -0.0547,-0.20264 0.0179,-0.110727 0.11522,-0.187609 0.0919,-0.07261 0.18869,-0.06126 0.14089,0.01162 0.70431,0.435829 0.89339,0.664043 1.23509,1.096572 0.67912,0.859653 0.63213,1.678268 -0.0416,0.814343 -0.57683,1.237192 l -3.00609,2.374788 0.47838,0.605541 q 0.1324,0.167606 0.12305,0.289146 -0.004,0.11727 -0.10667,0.198422 -0.0973,0.07688 -0.21773,0.05785 -0.1204,-0.01903 -0.25281,-0.186637 z m 2.25997,-1.785362 q -0.16009,-0.391602 -0.39873,-0.782608 -0.23865,-0.391007 -0.55045,-0.785691 -0.78163,-0.989411 -1.64868,-1.208869 -0.65215,-0.169715 -1.09549,0.180523 -0.4109,0.324611 -0.44005,0.865705 -0.0249,0.546499 0.46205,1.162854 0.46556,0.589322 1.09527,0.908477 0.63938,0.320289 1.57586,0.449781 z"
         style="stroke-width:0.26458332"
         id="path973"
         inkscape:connector-curvature="0" />
    </g>
    <g
       aria-label="Udruženje gradjana"
       style="font-style:normal;font-variant:normal;font-weight:normal;font-stretch:normal;font-size:14.11111069px;line-height:1.25;font-family:'Courier New';-inkscape-font-specification:'Courier New';letter-spacing:0px;word-spacing:0px;fill:#000000;fill-opacity:1;stroke:none;stroke-width:0.26458332"
       id="text978"
       transform="matrix(1,0,0,1.1033267,-0.37417734,-22.801974)">
      <path
         d="m 47.979024,185.72811 -3.437933,3.4024 q -0.866829,0.85787 -2.026424,0.86159 -1.159595,0.004 -1.968998,-0.81413 -0.542834,-0.5485 -0.72453,-1.21206 -0.181696,-0.66356 0.0075,-1.44212 0.194084,-0.78341 0.781765,-1.36502 l 3.437932,-3.40241 -0.344117,-0.34771 q -0.145402,-0.14692 -0.154539,-0.2639 -0.0042,-0.12182 0.08881,-0.21391 0.09305,-0.0921 0.224569,-0.0865 0.107134,0.0103 0.252536,0.15722 l 1.502486,1.51817 q 0.145402,0.14692 0.149642,0.26875 0.0091,0.11698 -0.08391,0.20907 -0.09305,0.0921 -0.214825,0.0866 -0.116878,-0.0104 -0.26228,-0.15727 l -0.751243,-0.75909 -3.437933,3.4024 q -0.68073,0.6737 -0.695333,1.60908 -0.0146,0.93538 0.615472,1.57203 0.402279,0.40648 0.917955,0.55533 0.520524,0.15374 1.154597,0.0206 0.638919,-0.12823 1.123756,-0.60806 l 3.437933,-3.4024 -0.751243,-0.75909 q -0.145402,-0.14692 -0.154539,-0.2639 -0.0042,-0.12182 0.08881,-0.21391 0.09305,-0.0921 0.209928,-0.0817 0.121775,0.006 0.267177,0.15243 l 1.502487,1.51817 q 0.145401,0.14692 0.149641,0.26875 0.0091,0.11698 -0.08391,0.20907 -0.09305,0.0921 -0.214825,0.0866 -0.116878,-0.0104 -0.26228,-0.15727 z"
         style="stroke-width:0.26458332"
         id="path984"
         inkscape:connector-curvature="0" />
      <path
         d="m 54.63333,189.88574 -5.161097,6.20181 0.59317,0.49363 q 0.164181,0.13663 0.180142,0.25748 0.02037,0.11556 -0.06337,0.21618 -0.07933,0.0953 -0.201073,0.10159 -0.121739,0.006 -0.28592,-0.13037 l -1.043344,-0.86826 0.736041,-0.88446 q -1.654725,0.41574 -2.846361,-0.57593 -0.603763,-0.50244 -0.895414,-1.28299 -0.281948,-0.78144 -0.111382,-1.64346 0.175862,-0.85762 0.700346,-1.48786 0.528891,-0.63554 1.335885,-0.95897 0.816698,-0.32432 1.636352,-0.18901 0.82495,0.13971 1.434008,0.64657 1.165156,0.96963 1.078094,2.68998 l 2.089121,-2.51038 -0.59317,-0.49363 q -0.164181,-0.13663 -0.180142,-0.25749 -0.01596,-0.12085 0.06778,-0.22147 0.07933,-0.0953 0.201073,-0.10159 0.121739,-0.006 0.28592,0.13037 z m -4.081894,3.98941 q 0.705188,-0.84739 0.61802,-1.90597 -0.08717,-1.05858 -0.876296,-1.71528 -0.794424,-0.66112 -1.851227,-0.55454 -1.056802,0.10658 -1.76199,0.95396 -0.700781,0.84209 -0.61802,1.90597 0.08717,1.05858 0.881592,1.71969 0.789128,0.65671 1.845931,0.55013 1.061209,-0.11187 1.76199,-0.95396 z"
         style="stroke-width:0.26458332"
         id="path986"
         inkscape:connector-curvature="0" />
      <path
         d="m 56.460937,194.48404 -0.821408,1.20788 q 1.50784,-0.20781 2.132076,-0.13327 0.633808,0.0727 1.026942,0.34006 0.427319,0.2906 0.594362,0.82915 0.176615,0.53672 0.07588,0.68486 -0.07362,0.10825 -0.198055,0.13195 -0.114866,0.0219 -0.22312,-0.0517 -0.05698,-0.0387 -0.08523,-0.083 -0.02439,-0.0499 -0.05902,-0.23178 -0.06381,-0.33503 -0.161574,-0.50983 -0.09777,-0.17481 -0.240208,-0.27168 -0.313367,-0.2131 -0.928259,-0.26462 -0.609195,-0.0477 -2.359985,0.1866 l -1.782299,2.62089 2.119502,1.44134 q 0.176626,0.12011 0.204199,0.23885 0.03145,0.11304 -0.04217,0.2213 -0.06974,0.10255 -0.190305,0.12055 -0.120564,0.018 -0.297189,-0.10211 l -3.754709,-2.55333 q -0.170928,-0.11624 -0.202376,-0.22928 -0.02757,-0.11874 0.04217,-0.2213 0.06587,-0.0969 0.176859,-0.11304 0.120563,-0.018 0.297188,0.10211 l 1.15661,0.78654 2.712195,-3.98831 -0.883126,-0.60056 q -0.170928,-0.11624 -0.198502,-0.23498 -0.02757,-0.11874 0.04604,-0.22699 0.06974,-0.10256 0.184608,-0.12443 0.120564,-0.018 0.297189,0.10211 z"
         style="stroke-width:0.26458332"
         id="path988"
         inkscape:connector-curvature="0" />
      <path
         d="m 62.631909,205.17056 0.406768,-0.7435 q -1.555585,0.37416 -2.76452,-0.28725 -0.743495,-0.40677 -0.908782,-1.02342 -0.210687,-0.80641 0.176238,-1.51364 l 1.792425,-3.27622 -0.683049,-0.37369 q -0.18134,-0.0992 -0.220236,-0.21474 -0.0389,-0.11553 0.02394,-0.23038 0.05953,-0.1088 0.177792,-0.13835 0.118266,-0.0295 0.299606,0.0697 l 1.190801,0.65149 -2.073524,3.79001 q -0.271178,0.49566 -0.132129,0.988 0.139049,0.49233 0.610534,0.75028 1.239158,0.67795 2.894524,0.10706 l 1.792425,-3.27622 -0.936925,-0.51259 q -0.18134,-0.0992 -0.220236,-0.21474 -0.0389,-0.11553 0.02394,-0.23038 0.05953,-0.1088 0.177793,-0.13834 0.118265,-0.0296 0.299606,0.0697 l 1.444677,0.79039 -2.586117,4.72694 0.429172,0.2348 q 0.18134,0.0992 0.220236,0.21474 0.0422,0.10948 -0.02063,0.22433 -0.05953,0.1088 -0.177792,0.13835 -0.118266,0.0295 -0.299606,-0.0697 z"
         style="stroke-width:0.26458332"
         id="path990"
         inkscape:connector-curvature="0" />
      <path
         d="m 73.17781,203.43011 -0.20348,0.47502 -5.901952,2.7713 3.597462,1.54102 0.314716,-0.73469 q 0.08139,-0.19001 0.186331,-0.2425 0.111273,-0.0498 0.231611,0.002 0.120337,0.0515 0.16107,0.16644 0.04073,0.1149 -0.04066,0.3049 l -0.548949,1.264 -4.864173,-2.08364 0.203481,-0.47502 5.880237,-2.7731 -3.306117,-1.41623 -0.30929,0.72203 q -0.08139,0.19 -0.192665,0.23978 -0.111273,0.0498 -0.225277,9.5e-4 -0.120338,-0.0515 -0.16107,-0.16644 -0.04073,-0.1149 0.04066,-0.3049 l 0.539902,-1.26038 z m -1.939159,-1.89506 -1.157502,-2.03996 q -0.07602,-0.13751 -0.08598,-0.20174 -0.0072,-0.0706 0.02259,-0.14024 0.04883,-0.114 0.157395,-0.15745 0.117606,-0.0471 0.23161,0.002 0.08234,0.0353 0.175552,0.20263 l 0.938494,1.6763 1.851892,-0.4735 q 0.185461,-0.048 0.274131,-0.01 0.10767,0.0461 0.148403,0.16102 0.04978,0.11127 0.0037,0.21894 -0.05697,0.133 -0.291289,0.19004 z"
         style="stroke-width:0.26458332"
         id="path992"
         inkscape:connector-curvature="0" />
      <path
         d="m 80.275141,209.11827 -5.617408,-1.79754 q -0.197917,1.11587 0.340202,2.0115 0.546781,0.89117 1.655826,1.24606 0.616865,0.19739 1.357889,0.21025 0.741025,0.0129 1.274677,-0.18533 0.156184,-0.0585 0.248058,-0.0291 0.104998,0.0336 0.156448,0.14411 0.05355,0.10394 0.01785,0.2155 -0.0357,0.11157 -0.174296,0.18296 -0.419992,0.22733 -1.319563,0.25778 -0.890909,0.026 -1.737458,-0.2449 -1.417477,-0.45359 -2.072932,-1.68338 -0.646794,-1.23425 -0.224706,-2.55329 0.384288,-1.20092 1.545303,-1.7771 1.167577,-0.57408 2.480055,-0.15409 1.351853,0.43259 1.94116,1.5978 0.591406,1.15865 0.128895,2.5588 z m -0.379309,-0.73629 q 0.127832,-0.96467 -0.39165,-1.7603 -0.512919,-0.79352 -1.47759,-1.10221 -0.964672,-0.30869 -1.84088,0.0331 -0.876208,0.34178 -1.342922,1.21247 z"
         style="stroke-width:0.26458332"
         id="path994"
         inkscape:connector-curvature="0" />
      <path
         d="m 84.042497,206.83992 -0.18717,0.8548 q 0.72347,-0.46934 1.251461,-0.59355 0.52799,-0.1242 1.127025,0.007 0.646149,0.14148 1.117452,0.53387 0.332708,0.28446 0.532426,0.82193 0.207923,0.53221 0.100337,1.02355 l -0.779628,3.56056 0.477881,0.10464 q 0.201922,0.0442 0.271736,0.14414 0.07129,0.0932 0.04329,0.22108 -0.02653,0.12115 -0.131712,0.18276 -0.105185,0.0616 -0.307107,0.0174 l -1.514414,-0.3316 q -0.208653,-0.0457 -0.278467,-0.14562 -0.06981,-0.0999 -0.04329,-0.22108 0.028,-0.12788 0.131713,-0.18276 0.105185,-0.0616 0.313837,-0.0159 l 0.471151,0.10316 0.758996,-3.46632 q 0.131166,-0.59904 -0.216431,-1.10541 -0.346123,-0.5131 -1.079772,-0.67374 -0.558651,-0.12232 -1.019334,0.0166 -0.459209,0.13221 -1.415794,0.86086 l -0.77668,3.5471 0.639419,0.14001 q 0.201922,0.0442 0.271736,0.14414 0.07129,0.0932 0.04329,0.22108 -0.02653,0.12115 -0.131713,0.18276 -0.105185,0.0616 -0.307107,0.0174 l -1.844219,-0.40382 q -0.201922,-0.0442 -0.271736,-0.14414 -0.06981,-0.0999 -0.04329,-0.22108 0.028,-0.12788 0.131712,-0.18276 0.105185,-0.0616 0.307107,-0.0174 l 0.639419,0.14001 1.027223,-4.69132 -0.477881,-0.10464 q -0.201922,-0.0442 -0.271736,-0.14414 -0.06981,-0.0999 -0.04181,-0.22781 0.02653,-0.12115 0.131713,-0.18276 0.105185,-0.0616 0.307107,-0.0174 z"
         style="stroke-width:0.26458332"
         id="path996"
         inkscape:connector-curvature="0" />
      <path
         d="m 94.844554,205.72048 -0.182183,1.48403 -0.848017,-0.1041 0.182182,-1.48403 z m -0.399013,3.53305 -3.412587,-0.41894 q -0.205166,-0.0252 -0.283996,-0.11816 -0.07883,-0.093 -0.06288,-0.22292 0.01511,-0.1231 0.107252,-0.19509 0.09898,-0.0712 0.310984,-0.0451 l 3.987051,0.48946 -0.776583,6.32593 q -0.08983,0.73176 -0.451189,1.18722 -0.361357,0.45546 -1.000955,0.68932 -0.443196,0.1608 -1.01766,0.0903 l -1.825973,-0.22416 q -0.205165,-0.0252 -0.283996,-0.11816 -0.07967,-0.0861 -0.06372,-0.21608 0.01595,-0.12994 0.114931,-0.20109 0.09898,-0.0712 0.304145,-0.046 l 1.811456,0.22932 q 0.731757,0.0898 1.24189,-0.33348 0.510132,-0.42331 0.596606,-1.12771 z"
         style="stroke-width:0.26458332"
         id="path998"
         inkscape:connector-curvature="0" />
      <path
         d="m 104.57894,212.37523 -5.895483,-0.1723 q 0.118709,1.12705 0.883726,1.83872 0.772107,0.70499 1.936047,0.73901 0.64741,0.0189 1.36303,-0.17385 0.71563,-0.19278 1.17357,-0.53094 0.13387,-0.0995 0.23029,-0.0967 0.1102,0.003 0.19023,0.0952 0.0802,0.0851 0.0768,0.20215 -0.003,0.11708 -0.11684,0.22406 -0.34065,0.3347 -1.19664,0.61298 -0.8489,0.27159 -1.73735,0.24562 -1.487651,-0.0435 -2.457919,-1.04377 -0.963181,-1.00697 -0.922721,-2.39131 0.03684,-1.26036 0.992985,-2.13542 0.963035,-0.87485 2.340485,-0.8346 1.41877,0.0415 2.3076,0.99802 0.88903,0.94967 0.83218,2.42313 z m -0.5683,-0.60252 q -0.1442,-0.96236 -0.86363,-1.58309 -0.71253,-0.62053 -1.72496,-0.65012 -1.01243,-0.0296 -1.759785,0.54138 -0.74736,0.57096 -0.954811,1.53683 z"
         style="stroke-width:0.26458332"
         id="path1000"
         inkscape:connector-curvature="0" />
      <path
         d="m 119.38823,208.90543 -0.16526,-1.04815 1.34081,-0.21139 q 0.20418,-0.0322 0.30554,0.0355 0.10135,0.0677 0.12174,0.19704 0.0193,0.12251 -0.0563,0.21813 -0.0756,0.0956 -0.27978,0.12782 l -0.76909,0.12126 0.90031,5.71033 q 0.0901,0.57171 -0.0841,1.05955 -0.11614,0.32522 -0.44684,0.7052 -0.33071,0.37998 -0.62233,0.56546 -0.29162,0.18549 -0.81569,0.26811 l -1.61986,0.25539 q -0.20418,0.0322 -0.30554,-0.0355 -0.10028,-0.0609 -0.12067,-0.19023 -0.0204,-0.12932 0.0552,-0.22494 0.0756,-0.0956 0.27979,-0.12782 l 1.64135,-0.2518 q 0.50365,-0.0794 0.86443,-0.40135 0.36759,-0.32302 0.5547,-0.86171 0.10466,-0.30947 0.0349,-0.75187 l -0.27041,-1.71514 q -0.72031,1.404 -2.17001,1.63256 -1.17746,0.18564 -2.17238,-0.55033 -0.98919,-0.74386 -1.18342,-1.97576 -0.19423,-1.23191 0.51918,-2.23723 0.72022,-1.00639 1.89768,-1.19203 1.4497,-0.22856 2.56598,0.8789 z m 0.27148,1.72194 q -0.15881,-1.0073 -0.96249,-1.59207 -0.79687,-0.58585 -1.75653,-0.43454 -0.95967,0.1513 -1.53656,0.96071 -0.57796,0.80261 -0.42022,1.8031 0.15881,1.00731 0.95676,1.59996 0.79687,0.58584 1.75653,0.43454 0.95967,-0.1513 1.53763,-0.95391 0.5837,-0.81048 0.42488,-1.81779 z"
         style="stroke-width:0.26458332"
         id="path1002"
         inkscape:connector-curvature="0" />
      <path
         d="m 124.36951,206.73865 0.36073,1.41548 q 0.84316,-1.26723 1.31251,-1.68548 0.47433,-0.42663 0.93502,-0.54404 0.50076,-0.12762 1.01486,0.10399 0.51907,0.22323 0.56331,0.39683 0.0323,0.12686 -0.0323,0.23578 -0.0597,0.10054 -0.18656,0.13287 -0.0668,0.017 -0.11861,0.009 -0.0535,-0.0148 -0.21273,-0.10933 -0.29325,-0.17413 -0.48896,-0.21669 -0.19572,-0.0425 -0.36264,-1e-5 -0.36722,0.0936 -0.81314,0.52009 -0.43924,0.4248 -1.42353,1.89153 l 0.78273,3.07132 2.48376,-0.633 q 0.20698,-0.0528 0.3142,0.005 0.10551,0.0513 0.13784,0.17819 0.0306,0.12018 -0.0358,0.22242 -0.0664,0.10224 -0.27335,0.15499 l -4.4,1.12135 q -0.2003,0.0511 -0.30582,-2.7e-4 -0.10721,-0.058 -0.13784,-0.17819 -0.0289,-0.1135 0.0325,-0.20736 0.0664,-0.10225 0.27336,-0.155 l 1.35539,-0.34542 -1.19112,-4.67374 -1.0349,0.26375 q -0.2003,0.051 -0.30752,-0.007 -0.10722,-0.058 -0.13955,-0.18486 -0.0306,-0.12018 0.0291,-0.22072 0.0664,-0.10224 0.27336,-0.15499 z"
         style="stroke-width:0.26458332"
         id="path1004"
         inkscape:connector-curvature="0" />
      <path
         d="m 136.17055,209.32012 -0.28049,-0.78511 q -0.83042,1.42345 -2.18003,1.90562 -0.97977,0.35003 -1.70747,0.0539 -0.73002,-0.30257 -0.98733,-1.0228 -0.28281,-0.7916 0.23296,-1.64169 0.51576,-0.85008 1.9108,-1.34848 0.37633,-0.13445 0.8361,-0.24017 0.45745,-0.11221 1.00713,-0.19153 l -0.31526,-0.88244 q -0.15995,-0.44771 -0.69344,-0.63026 -0.53349,-0.18256 -1.36403,0.11416 -0.63587,0.22717 -1.65221,1.00733 -0.18445,0.13906 -0.24285,0.15992 -0.10382,0.0371 -0.2095,-0.013 -0.0992,-0.0524 -0.14091,-0.16916 -0.0394,-0.1103 0.002,-0.19837 0.0561,-0.12978 0.63816,-0.52798 0.91485,-0.63414 1.43394,-0.81959 1.03167,-0.36858 1.79229,-0.0623 0.75829,0.2998 0.98778,0.94216 l 1.28887,3.60763 0.72672,-0.25963 q 0.20114,-0.0719 0.31331,-0.0241 0.10985,0.0412 0.1539,0.16452 0.0417,0.1168 -0.0148,0.22479 -0.0565,0.108 -0.25768,0.17986 z m -0.96897,-2.71221 q -0.42223,0.0265 -0.86902,0.12756 -0.44679,0.10108 -0.92045,0.27031 -1.18741,0.42421 -1.67259,1.17557 -0.36934,0.56364 -0.17926,1.0957 0.17618,0.49313 0.67955,0.69376 0.50985,0.19832 1.24954,-0.0659 0.70725,-0.25267 1.21101,-0.74726 0.50792,-0.5034 0.93007,-1.34931 z"
         style="stroke-width:0.26458332"
         id="path1006"
         inkscape:connector-curvature="0" />
      <path
         d="m 141.33433,197.62898 3.41547,7.30985 0.69915,-0.32667 q 0.19351,-0.0904 0.30966,-0.0534 0.11324,0.0308 0.16866,0.14935 0.0525,0.11237 0.006,0.22519 -0.0461,0.11283 -0.23967,0.20325 l -1.22975,0.57459 -0.48709,-1.04248 q -0.32805,1.67432 -1.73259,2.33058 -0.71163,0.3325 -1.54209,0.26421 -0.82713,-0.0774 -1.53458,-0.59867 -0.70122,-0.52415 -1.04831,-1.26699 -0.35,-0.74909 -0.29921,-1.617 0.0541,-0.87707 0.5254,-1.56119 0.47753,-0.68704 1.19541,-1.02247 1.37333,-0.64167 2.89303,0.1693 l -1.38252,-2.9589 -0.69915,0.32668 q -0.19351,0.0904 -0.30967,0.0534 -0.11615,-0.037 -0.17157,-0.15559 -0.0525,-0.11237 -0.006,-0.22519 0.0461,-0.11283 0.23967,-0.20325 z m 1.87277,5.39166 q -0.46668,-0.99879 -1.46169,-1.37045 -0.99502,-0.37166 -1.92514,0.0629 -0.93636,0.43751 -1.2897,1.43918 -0.35334,1.00167 0.11333,2.00045 0.46376,0.99254 1.4617,1.37044 0.99501,0.37166 1.93137,-0.0658 0.93012,-0.43459 1.28346,-1.43626 0.35042,-1.00791 -0.11333,-2.00045 z"
         style="stroke-width:0.26458332"
         id="path1008"
         inkscape:connector-curvature="0" />
      <path
         d="m 146.10049,194.60057 0.75744,1.28912 -0.73664,0.43282 -0.75744,-1.28912 z m 1.8308,3.04792 -2.96438,1.74176 q -0.17822,0.10471 -0.29733,0.0788 -0.11912,-0.0259 -0.18544,-0.13878 -0.0628,-0.10694 -0.0334,-0.22011 0.0353,-0.11666 0.2195,-0.22487 l 3.46339,-2.03496 3.22871,5.4951 q 0.37348,0.63564 0.36341,1.21695 -0.0101,0.58131 -0.37578,1.1558 -0.25417,0.39708 -0.75319,0.69028 l -1.58615,0.93196 q -0.17822,0.10472 -0.29733,0.0788 -0.11562,-0.02 -0.18194,-0.13285 -0.0663,-0.11287 -0.031,-0.22953 0.0353,-0.11667 0.21356,-0.22138 l 1.57776,-0.91904 q 0.63565,-0.37348 0.7834,-1.0197 0.14774,-0.64622 -0.21178,-1.2581 z"
         style="stroke-width:0.26458332"
         id="path1010"
         inkscape:connector-curvature="0" />
      <path
         d="m 158.34419,197.1295 -0.48786,-0.67607 q -0.40157,1.59829 -1.56373,2.43693 -0.84369,0.60882 -1.62504,0.5269 -0.78538,-0.0875 -1.23293,-0.70771 -0.49189,-0.68165 -0.23302,-1.64167 0.25888,-0.96003 1.46016,-1.82689 0.32406,-0.23385 0.73625,-0.46333 0.40817,-0.23506 0.91408,-0.46418 l -0.54834,-0.75988 q -0.27821,-0.38552 -0.84143,-0.41243 -0.56321,-0.0269 -1.27839,0.48917 -0.54756,0.39513 -1.3067,1.42726 -0.13847,0.1849 -0.18876,0.22118 -0.0894,0.0645 -0.20483,0.0459 -0.10984,-0.0227 -0.18242,-0.12327 -0.0685,-0.095 -0.053,-0.19118 0.0178,-0.14025 0.46606,-0.68469 0.70229,-0.86364 1.14927,-1.1862 0.88839,-0.64108 1.70418,-0.55852 0.81177,0.077 1.21093,0.63012 l 2.24175,3.10656 0.62578,-0.45158 q 0.17321,-0.12499 0.29423,-0.11036 0.11698,0.009 0.19359,0.11521 0.0726,0.10057 0.0483,0.22003 -0.0242,0.11947 -0.19746,0.24446 z m -1.68535,-2.33551 q -0.39819,0.1429 -0.79921,0.36431 -0.40102,0.22141 -0.8089,0.51574 -1.02248,0.73784 -1.27945,1.59453 -0.19793,0.64414 0.13269,1.1023 0.30642,0.42464 0.84574,0.4773 0.5449,0.0486 1.18185,-0.41102 0.60902,-0.43948 0.95527,-1.0547 0.34781,-0.62485 0.51792,-1.5548 z"
         style="stroke-width:0.26458332"
         id="path1012"
         inkscape:connector-curvature="0" />
      <path
         d="m 158.28042,189.57669 0.57583,0.6589 q 0.053,-0.86075 0.26722,-1.35906 0.2142,-0.49832 0.67594,-0.90185 0.49807,-0.43527 1.09383,-0.58075 0.42655,-0.0983 0.97741,0.0609 0.5515,0.14941 0.88249,0.52815 l 2.39853,2.74453 0.36836,-0.32192 q 0.15564,-0.13603 0.2775,-0.13271 0.11732,-0.002 0.20347,0.0967 0.0816,0.0934 0.0686,0.21459 -0.013,0.1212 -0.16868,0.25722 l -1.16733,1.02017 q -0.16083,0.14056 -0.28269,0.13724 -0.12185,-0.003 -0.20347,-0.0967 -0.0861,-0.0986 -0.0686,-0.21459 0.013,-0.1212 0.17387,-0.26175 l 0.36317,-0.31739 -2.33506,-2.67189 q -0.40353,-0.46175 -1.01734,-0.48351 -0.61834,-0.0269 -1.18385,0.46726 -0.43061,0.37633 -0.59293,0.82931 -0.16685,0.44779 -0.15008,1.65016 l 2.38946,2.73415 0.49287,-0.43073 q 0.15565,-0.13603 0.2775,-0.13271 0.11732,-0.002 0.20347,0.0967 0.0816,0.0934 0.0686,0.21459 -0.013,0.1212 -0.16868,0.25722 l -1.42156,1.24234 q -0.15564,0.13602 -0.27749,0.13271 -0.12186,-0.003 -0.20347,-0.0967 -0.0862,-0.0986 -0.0686,-0.21458 0.013,-0.1212 0.16868,-0.25723 l 0.49288,-0.43073 -3.16026,-3.61614 -0.36836,0.32192 q -0.15564,0.13602 -0.2775,0.13271 -0.12185,-0.003 -0.208,-0.10189 -0.0816,-0.0934 -0.0686,-0.21459 0.013,-0.1212 0.16869,-0.25722 z"
         style="stroke-width:0.26458332"
         id="path1014"
         inkscape:connector-curvature="0" />
      <path
         d="m 170.86247,185.77439 -0.60497,-0.57367 q -0.0976,1.64507 -1.08379,2.68501 -0.71589,0.75496 -1.49886,0.81962 -0.78797,0.0599 -1.34294,-0.46634 -0.60997,-0.5784 -0.53395,-1.56981 0.076,-0.9914 1.09535,-2.06634 0.27498,-0.28999 0.63737,-0.59204 0.35739,-0.3068 0.81192,-0.62592 l -0.67996,-0.64478 q -0.34498,-0.32713 -0.90339,-0.24894 -0.55842,0.0782 -1.16527,0.71815 -0.46462,0.48998 -1.0188,1.64517 -0.10172,0.2074 -0.14439,0.2524 -0.0759,0.08 -0.19274,0.0831 -0.11215,-0.002 -0.20214,-0.0872 -0.085,-0.0806 -0.0876,-0.178 -0.009,-0.14111 0.33075,-0.75935 0.52962,-0.97908 0.9089,-1.37906 0.75382,-0.79496 1.57075,-0.86539 0.81194,-0.0752 1.30691,0.39418 l 2.77985,2.63602 0.53099,-0.55997 q 0.14698,-0.15499 0.26861,-0.16309 0.11663,-0.0129 0.21162,0.0772 0.09,0.0853 0.0884,0.20723 -0.002,0.12189 -0.14861,0.27688 z m -2.08989,-1.98176 q -0.36472,0.21439 -0.71762,0.50644 -0.35291,0.29206 -0.699,0.65704 -0.86761,0.91495 -0.96096,1.80446 -0.0748,0.6697 0.33516,1.05847 0.37998,0.36031 0.91968,0.31186 0.54445,-0.0534 1.08493,-0.62341 0.51677,-0.54497 0.7427,-1.21381 0.22567,-0.67858 0.22006,-1.62396 z"
         style="stroke-width:0.26458332"
         id="path1016"
         inkscape:connector-curvature="0" />
    </g>
    <path
       style="opacity:1;fill:none;fill-opacity:1;stroke:#000000;stroke-width:0.90652734;stroke-linecap:round;stroke-linejoin:round;stroke-miterlimit:4;stroke-dasharray:none;stroke-opacity:1"
       d="M 654.8418,535.67969 H 136.35547 a 258.69238,261.81851 68.319338 0 0 62.76367,141.30664 258.69238,261.81851 68.319338 0 0 368.84961,21.32812 258.69238,261.81851 68.319338 0 0 86.87305,-162.63476 z"
       id="path1045"
       transform="scale(0.26458333)"
       inkscape:connector-curvature="0" />
    <path
       style="opacity:1;fill:none;fill-opacity:1;stroke:#000000;stroke-width:0.90652734;stroke-linecap:round;stroke-linejoin:round;stroke-miterlimit:4;stroke-dasharray:none;stroke-opacity:1"
       d="M 409.37891,245.85938 A 258.69238,261.81851 68.319338 0 0 223.67773,311.1543 258.69238,261.81851 68.319338 0 0 137.14453,470.50781 H 654.96484 A 258.69238,261.81851 68.319338 0 0 592.52734,332.48242 258.69238,261.81851 68.319338 0 0 409.37891,245.85938 Z"
       id="path1019"
       transform="scale(0.26458333)"
       inkscape:connector-curvature="0" />
    <path
       style="opacity:1;fill:none;fill-opacity:1;stroke:#000000;stroke-width:0.26458332;stroke-linecap:round;stroke-linejoin:round;stroke-miterlimit:4;stroke-dasharray:none;stroke-opacity:1"
       d="M 37.785192,191.53357 A 87.160264,89.031155 78.575206 0 0 163.31356,198.71401 87.160264,89.031155 78.575206 0 0 171.67146,75.555039 87.160264,89.031155 78.575206 0 0 46.143093,68.374606 87.160264,89.031155 78.575206 0 0 37.785192,191.53357 Z"
       id="rect1021"
       inkscape:connector-curvature="0" />
    <g
       aria-label="Kamenica"
       style="font-style:normal;font-variant:normal;font-weight:normal;font-stretch:normal;font-size:14.11111069px;line-height:1.25;font-family:'Courier New';-inkscape-font-specification:'Courier New';letter-spacing:0px;word-spacing:0px;fill:#000000;fill-opacity:1;stroke:none;stroke-width:0.26458332"
       id="text1027">
      <path
         d="m 72.701782,98.149545 v 2.576935 h 1.06798 q 0.213596,0 0.303168,0.0827 0.08957,0.0758 0.08957,0.2067 0,0.12403 -0.08957,0.20671 -0.08957,0.0827 -0.303168,0.0827 h -2.425347 q -0.206706,0 -0.296279,-0.0827 -0.08957,-0.0827 -0.08957,-0.20671 0,-0.13091 0.08957,-0.2067 0.08957,-0.0827 0.296279,-0.0827 h 0.778591 v -6.903975 h -0.778591 q -0.206706,0 -0.296279,-0.07579 -0.08957,-0.08268 -0.08957,-0.213596 0,-0.130914 0.08957,-0.206706 0.08957,-0.08268 0.296279,-0.08268 h 2.425347 q 0.213596,0 0.303168,0.08268 0.08957,0.07579 0.08957,0.206706 0,0.130914 -0.08957,0.213596 -0.08957,0.07579 -0.303168,0.07579 h -1.06798 v 3.562229 l 3.996311,-3.562229 h -0.633898 q -0.213596,0 -0.303168,-0.07579 -0.08957,-0.08268 -0.08957,-0.213596 0,-0.130914 0.08957,-0.206706 0.08957,-0.08268 0.303168,-0.08268 h 1.701877 q 0.206706,0 0.296279,0.08268 0.08957,0.07579 0.08957,0.206706 0,0.130914 -0.08957,0.213596 -0.08957,0.07579 -0.296279,0.07579 h -0.234266 l -3.183268,2.845649 q 0.709689,0.289388 1.178222,0.72347 0.468533,0.434082 0.902615,1.233344 0.248047,0.447862 0.909506,2.101512 h 0.72347 q 0.213595,0 0.303168,0.0827 0.08957,0.0758 0.08957,0.2067 0,0.12403 -0.08957,0.20671 -0.08957,0.0827 -0.303168,0.0827 H 76.94614 Q 76.036634,98.817893 75.416517,98.108204 74.7964,97.391624 73.866224,97.102236 Z"
         style="stroke-width:0.26458332"
         id="path1069"
         inkscape:connector-curvature="0" />
      <path
         d="m 84.704494,101.30525 v -0.83371 q -1.260905,1.06109 -2.694064,1.06109 -1.040419,0 -1.626085,-0.52366 -0.585667,-0.53054 -0.585667,-1.295352 0,-0.840603 0.771702,-1.467611 0.771701,-0.627007 2.253092,-0.627007 0.399631,0 0.868164,0.05512 0.468533,0.04823 1.012858,0.158474 V 96.89553 q 0,-0.475423 -0.440972,-0.826823 -0.440972,-0.3514 -1.322917,-0.3514 -0.675238,0 -1.894802,0.392741 -0.220486,0.0689 -0.282498,0.0689 -0.110243,0 -0.192925,-0.08268 -0.07579,-0.08268 -0.07579,-0.206706 0,-0.117133 0.0689,-0.186035 0.09646,-0.103353 0.778591,-0.282498 1.07487,-0.289388 1.626085,-0.289388 1.09554,0 1.708767,0.544325 0.613227,0.537435 0.613227,1.219564 v 3.83095 h 0.771702 q 0.213596,0 0.303168,0.0827 0.08957,0.0758 0.08957,0.2067 0,0.12403 -0.08957,0.20671 -0.08957,0.0827 -0.303168,0.0827 z m 0,-2.880098 q -0.406521,-0.117133 -0.861274,-0.172254 -0.454752,-0.05512 -0.957736,-0.05512 -1.260905,0 -1.970595,0.544325 -0.537435,0.406521 -0.537435,0.971517 0,0.52365 0.406522,0.88194 0.413411,0.35829 1.198893,0.35829 0.751031,0 1.391818,-0.29628 0.647678,-0.30316 1.329807,-0.95773 z"
         style="stroke-width:0.26458332"
         id="path1071"
         inkscape:connector-curvature="0" />
      <path
         d="m 88.866169,95.338347 v 0.585666 q 0.737251,-0.792372 1.481391,-0.792372 0.447863,0 0.785482,0.241157 0.337619,0.234266 0.564996,0.71658 0.38585,-0.482314 0.778591,-0.71658 0.399631,-0.241157 0.799262,-0.241157 0.627008,0 0.999078,0.406521 0.489203,0.523655 0.489203,1.143772 v 4.044546 h 0.489204 q 0.206706,0 0.296278,0.0827 0.08957,0.0758 0.08957,0.2067 0,0.12403 -0.08957,0.20671 -0.08957,0.0827 -0.296278,0.0827 h -1.06798 v -4.568194 q 0,-0.440973 -0.268717,-0.730361 -0.268717,-0.289388 -0.620117,-0.289388 -0.316949,0 -0.668349,0.241157 -0.351399,0.234267 -0.799262,0.930176 v 3.83784 h 0.482314 q 0.206705,0 0.296278,0.0827 0.08957,0.0758 0.08957,0.2067 0,0.12403 -0.08957,0.20671 -0.08957,0.0827 -0.296278,0.0827 h -1.06798 v -4.526853 q 0,-0.461643 -0.275608,-0.757921 -0.268717,-0.303169 -0.606336,-0.303169 -0.310059,0 -0.613227,0.199816 -0.420302,0.282498 -0.881945,0.971517 v 3.83784 h 0.489204 q 0.206705,0 0.296278,0.0827 0.08957,0.0758 0.08957,0.2067 0,0.12403 -0.08957,0.20671 -0.08957,0.0827 -0.296278,0.0827 H 87.79819 q -0.206706,0 -0.296279,-0.0827 -0.08957,-0.0827 -0.08957,-0.20671 0,-0.13091 0.08957,-0.2067 0.08957,-0.0827 0.296279,-0.0827 h 0.489203 V 95.924013 H 87.79819 q -0.206706,0 -0.296279,-0.08268 -0.08957,-0.08268 -0.08957,-0.213596 0,-0.124024 0.08957,-0.206706 0.08957,-0.08268 0.296279,-0.08268 z"
         style="stroke-width:0.26458332"
         id="path1073"
         inkscape:connector-curvature="0" />
      <path
         d="m 103.09441,98.459603 h -5.898001 q 0.151584,1.123101 0.937065,1.812117 0.792372,0.68213 1.956816,0.68213 0.64768,0 1.35737,-0.21359 0.70969,-0.2136 1.15755,-0.565 0.13091,-0.10335 0.22737,-0.10335 0.11025,0 0.19293,0.0896 0.0827,0.0827 0.0827,0.19982 0,0.11713 -0.11024,0.22737 -0.33073,0.34451 -1.17822,0.64768 -0.84061,0.29628 -1.72944,0.29628 -1.488283,0 -2.48736,-0.97152 -0.992188,-0.978406 -0.992188,-2.363334 0,-1.260905 0.930176,-2.16352 0.937066,-0.902615 2.315104,-0.902615 1.419378,0 2.335778,0.930176 0.91639,0.923285 0.90261,2.397786 z m -0.58566,-0.585666 q -0.17226,-0.957736 -0.90951,-1.557183 -0.73036,-0.599447 -1.743218,-0.599447 -1.012858,0 -1.743218,0.592557 -0.73036,0.592556 -0.909505,1.564073 z"
         style="stroke-width:0.26458332"
         id="path1075"
         inkscape:connector-curvature="0" />
      <path
         d="m 106.55329,95.338347 v 0.875054 q 0.60634,-0.613227 1.09554,-0.847493 0.4892,-0.234267 1.10243,-0.234267 0.66146,0 1.20578,0.282498 0.38585,0.206706 0.69591,0.689019 0.31695,0.475423 0.31695,0.978407 v 3.644915 h 0.4892 q 0.20671,0 0.29628,0.0827 0.0896,0.0758 0.0896,0.2067 0,0.12403 -0.0896,0.20671 -0.0896,0.0827 -0.29628,0.0827 h -1.55029 q -0.21359,0 -0.30317,-0.0827 -0.0896,-0.0827 -0.0896,-0.20671 0,-0.13091 0.0896,-0.2067 0.0896,-0.0827 0.30317,-0.0827 h 0.48231 v -3.548452 q 0,-0.613227 -0.44786,-1.033529 -0.44786,-0.427192 -1.19889,-0.427192 -0.57189,0 -0.99219,0.234267 -0.4203,0.227376 -1.19889,1.143772 v 3.631134 h 0.65457 q 0.2067,0 0.29627,0.0827 0.0896,0.0758 0.0896,0.2067 0,0.12403 -0.0896,0.20671 -0.0896,0.0827 -0.29627,0.0827 h -1.88792 q -0.2067,0 -0.29627,-0.0827 -0.0896,-0.0827 -0.0896,-0.20671 0,-0.13091 0.0896,-0.2067 0.0896,-0.0827 0.29627,-0.0827 h 0.65457 v -4.802467 h -0.4892 q -0.20671,0 -0.29628,-0.08268 -0.0896,-0.08268 -0.0896,-0.213596 0,-0.124024 0.0896,-0.206706 0.0896,-0.08268 0.29628,-0.08268 z"
         style="stroke-width:0.26458332"
         id="path1077"
         inkscape:connector-curvature="0" />
      <path
         d="m 117.17107,92.368675 v 1.495171 h -0.85438 v -1.495171 z m 0.0207,2.969672 v 5.388133 h 2.27377 q 0.21359,0 0.30316,0.0827 0.0896,0.0758 0.0896,0.2067 0,0.12403 -0.0896,0.20671 -0.0896,0.0827 -0.30316,0.0827 h -5.12631 q -0.2067,0 -0.29627,-0.0827 -0.0896,-0.0827 -0.0896,-0.20671 0,-0.13091 0.0896,-0.2067 0.0896,-0.0827 0.29627,-0.0827 h 2.27377 v -4.802467 h -1.6881 q -0.2067,0 -0.30317,-0.08268 -0.0896,-0.08268 -0.0896,-0.206706 0,-0.130914 0.0896,-0.213596 0.0896,-0.08268 0.30317,-0.08268 z"
         style="stroke-width:0.26458332"
         id="path1079"
         inkscape:connector-curvature="0" />
      <path
         d="m 127.76129,95.924013 v -0.192925 q 0,-0.213596 0.0827,-0.303169 0.0827,-0.08957 0.2067,-0.08957 0.13091,0 0.2136,0.08957 0.0827,0.08957 0.0827,0.303169 v 1.309136 q -0.007,0.213596 -0.0896,0.303168 -0.0758,0.08957 -0.20671,0.08957 -0.11713,0 -0.19981,-0.07579 -0.0758,-0.08268 -0.0896,-0.268718 -0.0413,-0.489203 -0.64767,-0.930175 -0.59945,-0.440973 -1.6192,-0.440973 -1.28847,0 -1.95681,0.806153 -0.66835,0.806152 -0.66835,1.846571 0,1.123101 0.73725,1.85346 0.73725,0.73036 1.90858,0.73036 0.67524,0 1.37115,-0.24804 0.7028,-0.24805 1.26779,-0.799268 0.1447,-0.137803 0.25494,-0.137803 0.11713,0 0.19293,0.08268 0.0827,0.07579 0.0827,0.192931 0,0.29628 -0.69591,0.75103 -1.1231,0.73725 -2.50114,0.73725 -1.39871,0 -2.30132,-0.88884 -0.89573,-0.895724 -0.89573,-2.266872 0,-1.398709 0.9164,-2.321994 0.92328,-0.923286 2.32199,-0.923286 1.32981,0 2.23242,0.792372 z"
         style="stroke-width:0.26458332"
         id="path1081"
         inkscape:connector-curvature="0" />
      <path
         d="m 135.47142,101.30525 v -0.83371 q -1.26091,1.06109 -2.69407,1.06109 -1.04042,0 -1.62608,-0.52366 -0.58567,-0.53054 -0.58567,-1.295352 0,-0.840603 0.7717,-1.467611 0.7717,-0.627007 2.2531,-0.627007 0.39963,0 0.86816,0.05512 0.46853,0.04823 1.01286,0.158474 V 96.89553 q 0,-0.475423 -0.44098,-0.826823 -0.44097,-0.3514 -1.32291,-0.3514 -0.67524,0 -1.8948,0.392741 -0.22049,0.0689 -0.2825,0.0689 -0.11025,0 -0.19293,-0.08268 -0.0758,-0.08268 -0.0758,-0.206706 0,-0.117133 0.0689,-0.186035 0.0965,-0.103353 0.77859,-0.282498 1.07487,-0.289388 1.62609,-0.289388 1.09554,0 1.70877,0.544325 0.61322,0.537435 0.61322,1.219564 v 3.83095 h 0.7717 q 0.2136,0 0.30317,0.0827 0.0896,0.0758 0.0896,0.2067 0,0.12403 -0.0896,0.20671 -0.0896,0.0827 -0.30317,0.0827 z m 0,-2.880098 q -0.40652,-0.117133 -0.86128,-0.172254 -0.45475,-0.05512 -0.95773,-0.05512 -1.26091,0 -1.9706,0.544325 -0.53743,0.406521 -0.53743,0.971517 0,0.52365 0.40652,0.88194 0.41341,0.35829 1.19889,0.35829 0.75103,0 1.39182,-0.29628 0.64768,-0.30316 1.32981,-0.95773 z"
         style="stroke-width:0.26458332"
         id="path1083"
         inkscape:connector-curvature="0" />
    </g>
    <g
       aria-label="Gočka pruga"
       style="font-style:normal;font-variant:normal;font-weight:normal;font-stretch:normal;font-size:14.11111069px;line-height:1.25;font-family:'Courier New';-inkscape-font-specification:'Courier New';letter-spacing:0px;word-spacing:0px;fill:#000000;fill-opacity:1;stroke:none;stroke-width:0.26458332"
       id="text1031">
      <path
         d="m 66.125236,166.04101 v 2.48047 q -0.661458,0.36518 -1.322916,0.55122 -0.654568,0.18603 -1.309137,0.18603 -0.930175,0 -1.639865,-0.2756 -0.702799,-0.27561 -1.192003,-0.77171 -0.489204,-0.49609 -0.764811,-1.10932 -0.268718,-0.61322 -0.268718,-1.55718 v -1.06109 q 0,-0.95085 0.468533,-1.84657 0.475424,-0.90262 1.295356,-1.37804 0.819933,-0.47542 1.78456,-0.47542 1.398708,0 2.363335,0.76481 0,-0.33762 0.02067,-0.40652 0.02756,-0.0689 0.103353,-0.11713 0.07579,-0.0551 0.172254,-0.0551 0.124024,0 0.206706,0.0896 0.08268,0.0896 0.08268,0.29627 v 1.30914 q 0,0.2136 -0.08268,0.30317 -0.08268,0.0827 -0.206706,0.0827 -0.117133,0 -0.199815,-0.0758 -0.07579,-0.0827 -0.08268,-0.2825 -0.04134,-0.58566 -0.764811,-0.95774 -0.71658,-0.37207 -1.564073,-0.37207 -0.799262,0 -1.44694,0.3514 -0.640788,0.34451 -1.198893,1.32292 -0.372071,0.64079 -0.372071,1.45383 v 1.0542 q 0,1.44005 0.881945,2.28754 0.881944,0.8475 2.432237,0.8475 0.523655,0 0.971517,-0.11025 0.447862,-0.11024 1.047309,-0.38585 v -2.14285 h -1.991265 q -0.206706,0 -0.296278,-0.0758 -0.08957,-0.0827 -0.08957,-0.21359 0,-0.13092 0.08957,-0.2136 0.08957,-0.0827 0.296278,-0.0827 l 2.783637,0.007 q 0.206706,0 0.296278,0.0827 0.08957,0.0758 0.08957,0.20671 0,0.0896 -0.05512,0.16536 -0.05512,0.0758 -0.124023,0.10335 -0.0689,0.0207 -0.413412,0.0207 z"
         style="stroke-width:0.26458332"
         id="path1048"
         inkscape:connector-curvature="0" />
      <path
         d="m 74.675963,166.06168 q 0,1.32292 -0.950847,2.25999 -0.943956,0.93706 -2.280653,0.93706 -1.350477,0 -2.294433,-0.93706 -0.943956,-0.94396 -0.943956,-2.25999 0,-1.32291 0.943956,-2.25998 0.943956,-0.94395 2.294433,-0.94395 1.336697,0 2.280653,0.93706 0.950847,0.93707 0.950847,2.26687 z m -0.585666,0 q 0,-1.08865 -0.778592,-1.85346 -0.771701,-0.76481 -1.874132,-0.76481 -1.10243,0 -1.881022,0.7717 -0.771701,0.76481 -0.771701,1.84657 0,1.07487 0.771701,1.84658 0.778592,0.7717 1.881022,0.7717 1.102431,0 1.874132,-0.76481 0.778592,-0.77171 0.778592,-1.85347 z"
         style="stroke-width:0.26458332"
         id="path1050"
         inkscape:connector-curvature="0" />
      <path
         d="m 82.317184,163.65012 v -0.19293 q 0,-0.21359 0.08268,-0.30317 0.08268,-0.0896 0.206706,-0.0896 0.130914,0 0.213596,0.0896 0.08268,0.0896 0.08268,0.30317 v 1.30914 q -0.0069,0.21359 -0.08957,0.30317 -0.07579,0.0896 -0.206706,0.0896 -0.117133,0 -0.199815,-0.0758 -0.07579,-0.0827 -0.08957,-0.26872 -0.04134,-0.4892 -0.647678,-0.93018 -0.599446,-0.44097 -1.619195,-0.44097 -1.288465,0 -1.956814,0.80615 -0.668348,0.80616 -0.668348,1.84658 0,1.1231 0.73725,1.85346 0.73725,0.73036 1.908583,0.73036 0.675239,0 1.371148,-0.24805 0.702799,-0.24805 1.267795,-0.79926 0.144694,-0.13781 0.254937,-0.13781 0.117133,0 0.192925,0.0827 0.08268,0.0758 0.08268,0.19292 0,0.29628 -0.69591,0.75103 -1.123101,0.73725 -2.501139,0.73725 -1.398709,0 -2.301324,-0.88883 -0.895724,-0.89573 -0.895724,-2.26687 0,-1.39871 0.916395,-2.322 0.923286,-0.92328 2.321994,-0.92328 1.329807,0 2.232422,0.79237 z m -2.018826,-1.56408 -1.867242,-1.41937 q -0.124023,-0.0965 -0.158474,-0.15159 -0.03445,-0.062 -0.03445,-0.1378 0,-0.12403 0.08268,-0.20671 0.08957,-0.0896 0.213596,-0.0896 0.08957,0 0.241157,0.11713 l 1.522732,1.17133 1.515842,-1.16444 q 0.151584,-0.11713 0.248047,-0.11713 0.117133,0 0.199816,0.0896 0.08957,0.0827 0.08957,0.19982 0,0.14469 -0.192925,0.28939 z"
         style="stroke-width:0.26458332"
         id="path1052"
         inkscape:connector-curvature="0" />
      <path
         d="m 87.188548,166.45443 v 2.57693 H 85.83118 q -0.206706,0 -0.296278,-0.0827 -0.08957,-0.0827 -0.08957,-0.2067 0,-0.13091 0.08957,-0.20671 0.08957,-0.0827 0.296278,-0.0827 h 0.778592 V 160.9698 H 85.83118 q -0.206706,0 -0.296278,-0.0827 -0.08957,-0.0827 -0.08957,-0.21359 0,-0.12403 0.08957,-0.20671 0.08957,-0.0827 0.296278,-0.0827 h 1.357368 v 5.33301 l 2.459798,-2.06706 h -0.296278 q -0.206706,0 -0.296279,-0.0827 -0.08957,-0.0827 -0.08957,-0.20671 0,-0.13091 0.08957,-0.2136 0.08957,-0.0827 0.296279,-0.0827 h 1.853461 q 0.213596,0 0.303168,0.0827 0.08957,0.0827 0.08957,0.2136 0,0.12402 -0.08957,0.20671 -0.08957,0.0827 -0.303168,0.0827 H 90.53718 l -2.259982,1.88791 2.859429,2.91455 h 0.668348 q 0.213596,0 0.303169,0.0827 0.08957,0.0758 0.08957,0.20671 0,0.12402 -0.08957,0.2067 -0.08957,0.0827 -0.303169,0.0827 h -1.874131 q -0.206706,0 -0.296279,-0.0827 -0.08957,-0.0827 -0.08957,-0.2067 0,-0.13091 0.08957,-0.20671 0.08957,-0.0827 0.296279,-0.0827 h 0.406521 l -2.487359,-2.55626 z"
         style="stroke-width:0.26458332"
         id="path1054"
         inkscape:connector-curvature="0" />
      <path
         d="m 98.488461,169.03136 v -0.83372 q -1.260905,1.06109 -2.694064,1.06109 -1.040419,0 -1.626085,-0.52365 -0.585667,-0.53055 -0.585667,-1.29536 0,-0.8406 0.771702,-1.46761 0.771701,-0.62701 2.253092,-0.62701 0.399631,0 0.868164,0.0551 0.468533,0.0482 1.012858,0.15847 v -0.93707 q 0,-0.47542 -0.440972,-0.82682 -0.440972,-0.3514 -1.322917,-0.3514 -0.675238,0 -1.894802,0.39274 -0.220486,0.0689 -0.282498,0.0689 -0.110243,0 -0.192925,-0.0827 -0.07579,-0.0827 -0.07579,-0.2067 0,-0.11714 0.0689,-0.18604 0.09646,-0.10335 0.778591,-0.2825 1.07487,-0.28938 1.626085,-0.28938 1.09554,0 1.708767,0.54432 0.613227,0.53744 0.613227,1.21956 v 3.83095 h 0.771702 q 0.213591,0 0.303171,0.0827 0.0896,0.0758 0.0896,0.20671 0,0.12402 -0.0896,0.2067 -0.0896,0.0827 -0.303171,0.0827 z m 0,-2.8801 q -0.406521,-0.11714 -0.861274,-0.17226 -0.454752,-0.0551 -0.957736,-0.0551 -1.260905,0 -1.970595,0.54433 -0.537435,0.40652 -0.537435,0.97151 0,0.52366 0.406522,0.88195 0.413411,0.35829 1.198893,0.35829 0.751031,0 1.391818,-0.29628 0.647678,-0.30317 1.329807,-0.95774 z"
         style="stroke-width:0.26458332"
         id="path1056"
         inkscape:connector-curvature="0" />
      <path
         d="m 111.56604,163.06445 v 1.0542 q 0.51677,-0.62701 1.10932,-0.94396 0.59256,-0.31694 1.39871,-0.31694 0.85438,0 1.57785,0.39963 0.72347,0.39963 1.11621,1.11621 0.39964,0.70969 0.39964,1.49517 0,1.24712 -0.89573,2.13596 -0.88883,0.88194 -2.19108,0.88194 -1.55029,0 -2.51492,-1.2609 v 3.48643 h 1.4056 q 0.20671,0 0.29628,0.0758 0.0896,0.0827 0.0896,0.21359 0,0.12403 -0.0896,0.20671 -0.0896,0.0827 -0.29628,0.0827 h -2.76297 q -0.2067,0 -0.29627,-0.0827 -0.0896,-0.0758 -0.0896,-0.20671 0,-0.13091 0.0896,-0.21359 0.0896,-0.0758 0.29627,-0.0758 h 0.77859 v -7.46207 h -0.77859 q -0.2067,0 -0.29627,-0.0827 -0.0896,-0.0827 -0.0896,-0.2136 0,-0.12402 0.0896,-0.20671 0.0896,-0.0827 0.29627,-0.0827 z m 5.01606,2.80431 q 0,-0.99908 -0.73036,-1.70877 -0.72347,-0.71658 -1.77078,-0.71658 -1.0542,0 -1.78456,0.71658 -0.73036,0.71658 -0.73036,1.70877 0,0.99908 0.73036,1.71566 0.73036,0.71658 1.78456,0.71658 1.04042,0 1.77078,-0.70969 0.73036,-0.71658 0.73036,-1.72255 z"
         style="stroke-width:0.26458332"
         id="path1058"
         inkscape:connector-curvature="0" />
      <path
         d="m 121.51548,163.06445 v 1.46072 q 1.12999,-1.01975 1.68809,-1.30913 0.565,-0.29628 1.04042,-0.29628 0.51677,0 0.95774,0.3514 0.44786,0.34451 0.44786,0.52365 0,0.13092 -0.0896,0.22049 -0.0827,0.0827 -0.2136,0.0827 -0.0689,0 -0.11713,-0.0207 -0.0482,-0.0276 -0.17915,-0.15847 -0.24115,-0.24116 -0.4203,-0.33073 -0.17914,-0.0896 -0.3514,-0.0896 -0.37896,0 -0.91639,0.30317 -0.53055,0.30317 -1.84657,1.48139 v 3.16949 h 2.56315 q 0.21359,0 0.30317,0.0827 0.0896,0.0758 0.0896,0.20671 0,0.12402 -0.0896,0.2067 -0.0896,0.0827 -0.30317,0.0827 h -4.54064 q -0.2067,0 -0.29628,-0.0758 -0.0896,-0.0827 -0.0896,-0.2067 0,-0.11713 0.0827,-0.19293 0.0896,-0.0827 0.30317,-0.0827 h 1.39871 v -4.82313 h -1.06798 q -0.2067,0 -0.29628,-0.0827 -0.0896,-0.0827 -0.0896,-0.2136 0,-0.12402 0.0827,-0.20671 0.0896,-0.0827 0.30317,-0.0827 z"
         style="stroke-width:0.26458332"
         id="path1060"
         inkscape:connector-curvature="0" />
      <path
         d="m 132.65003,169.03136 v -0.8475 q -1.18512,1.07487 -2.56316,1.07487 -0.84749,0 -1.28846,-0.46164 -0.57189,-0.60634 -0.57189,-1.41249 v -3.73448 h -0.77859 q -0.2067,0 -0.29628,-0.0827 -0.0896,-0.0827 -0.0896,-0.2136 0,-0.12402 0.0896,-0.20671 0.0896,-0.0827 0.29628,-0.0827 h 1.35737 v 4.32015 q 0,0.565 0.35829,0.93018 0.35829,0.36518 0.89572,0.36518 1.41249,0 2.59072,-1.29536 v -3.73448 h -1.06798 q -0.20671,0 -0.29628,-0.0827 -0.0896,-0.0827 -0.0896,-0.2136 0,-0.12402 0.0896,-0.20671 0.0896,-0.0827 0.29628,-0.0827 h 1.64675 v 5.38813 h 0.48921 q 0.2067,0 0.29627,0.0827 0.0896,0.0758 0.0896,0.20671 0,0.12402 -0.0896,0.2067 -0.0896,0.0827 -0.29627,0.0827 z"
         style="stroke-width:0.26458332"
         id="path1062"
         inkscape:connector-curvature="0" />
      <path
         d="m 141.07673,164.12554 v -1.06109 h 1.35736 q 0.20671,0 0.29628,0.0827 0.0896,0.0827 0.0896,0.2136 0,0.12402 -0.0896,0.20671 -0.0896,0.0827 -0.29628,0.0827 h -0.77859 v 5.78087 q 0,0.57877 -0.24804,1.03353 -0.16537,0.30316 -0.55122,0.627 -0.38585,0.32384 -0.7028,0.46165 -0.31695,0.1378 -0.84749,0.1378 h -1.63987 q -0.2067,0 -0.29628,-0.0827 -0.0896,-0.0758 -0.0896,-0.20671 0,-0.13091 0.0896,-0.21359 0.0896,-0.0827 0.29628,-0.0827 l 1.66054,0.007 q 0.50987,0 0.91639,-0.26182 0.41341,-0.26183 0.68213,-0.76481 0.15159,-0.28939 0.15159,-0.73725 v -1.73633 q -0.93018,1.27468 -2.39779,1.27468 -1.192,0 -2.06017,-0.88194 -0.86127,-0.88884 -0.86127,-2.13596 0,-1.24713 0.86127,-2.12907 0.86817,-0.88194 2.06017,-0.88194 1.46761,0 2.39779,1.26779 z m 0,1.74322 q 0,-1.01975 -0.7028,-1.72255 -0.69591,-0.7028 -1.66743,-0.7028 -0.97152,0 -1.66743,0.70969 -0.6959,0.7028 -0.6959,1.71566 0,1.01975 0.6959,1.72944 0.69591,0.7028 1.66743,0.7028 0.97152,0 1.66743,-0.7028 0.7028,-0.70969 0.7028,-1.72944 z"
         style="stroke-width:0.26458332"
         id="path1064"
         inkscape:connector-curvature="0" />
      <path
         d="m 149.25539,169.03136 v -0.83372 q -1.26091,1.06109 -2.69407,1.06109 -1.04042,0 -1.62608,-0.52365 -0.58567,-0.53055 -0.58567,-1.29536 0,-0.8406 0.7717,-1.46761 0.7717,-0.62701 2.25309,-0.62701 0.39964,0 0.86817,0.0551 0.46853,0.0482 1.01286,0.15847 v -0.93707 q 0,-0.47542 -0.44098,-0.82682 -0.44097,-0.3514 -1.32291,-0.3514 -0.67524,0 -1.8948,0.39274 -0.22049,0.0689 -0.2825,0.0689 -0.11025,0 -0.19293,-0.0827 -0.0758,-0.0827 -0.0758,-0.2067 0,-0.11714 0.0689,-0.18604 0.0965,-0.10335 0.77859,-0.2825 1.07487,-0.28938 1.62609,-0.28938 1.09554,0 1.70877,0.54432 0.61322,0.53744 0.61322,1.21956 v 3.83095 h 0.7717 q 0.2136,0 0.30317,0.0827 0.0896,0.0758 0.0896,0.20671 0,0.12402 -0.0896,0.2067 -0.0896,0.0827 -0.30317,0.0827 z m 0,-2.8801 q -0.40652,-0.11714 -0.86128,-0.17226 -0.45475,-0.0551 -0.95773,-0.0551 -1.26091,0 -1.9706,0.54433 -0.53743,0.40652 -0.53743,0.97151 0,0.52366 0.40652,0.88195 0.41341,0.35829 1.19889,0.35829 0.75103,0 1.39182,-0.29628 0.64768,-0.30317 1.32981,-0.95774 z"
         style="stroke-width:0.26458332"
         id="path1066"
         inkscape:connector-curvature="0" />
    </g>
  </g>
</svg>
