<?xml version="1.0" encoding="UTF-8" standalone="no"?>
<!-- Created with Inkscape (http://www.inkscape.org/) -->

<svg
   xmlns:dc="http://purl.org/dc/elements/1.1/"
   xmlns:cc="http://creativecommons.org/ns#"
   xmlns:rdf="http://www.w3.org/1999/02/22-rdf-syntax-ns#"
   xmlns:svg="http://www.w3.org/2000/svg"
   xmlns="http://www.w3.org/2000/svg"
   xmlns:sodipodi="http://sodipodi.sourceforge.net/DTD/sodipodi-0.dtd"
   xmlns:inkscape="http://www.inkscape.org/namespaces/inkscape"
   width="794.57581"
   height="811.50989"
   viewBox="0 0 210.23152 214.71199"
   version="1.1"
   id="svg8"
   inkscape:version="0.92.5 (2060ec1f9f, 2020-04-08)"
   sodipodi:docname="uggo-logo-example.svg">
  <defs
     id="defs2" />
  <sodipodi:namedview
     id="base"
     pagecolor="#ffffff"
     bordercolor="#666666"
     borderopacity="1.0"
     inkscape:pageopacity="0.0"
     inkscape:pageshadow="2"
     inkscape:zoom="0.76095916"
     inkscape:cx="142.89884"
     inkscape:cy="462.2032"
     inkscape:document-units="mm"
     inkscape:current-layer="layer1"
     showgrid="false"
     inkscape:window-width="1920"
     inkscape:window-height="1017"
     inkscape:window-x="-8"
     inkscape:window-y="-8"
     inkscape:window-maximized="1"
     units="px" />
  <metadata
     id="metadata5">
    <rdf:RDF>
      <cc:Work
         rdf:about="">
        <dc:format>image/svg+xml</dc:format>
        <dc:type
           rdf:resource="http://purl.org/dc/dcmitype/StillImage" />
        <dc:title></dc:title>
      </cc:Work>
    </rdf:RDF>
  </metadata>
  <g
     inkscape:label="Layer 1"
     inkscape:groupmode="layer"
     id="layer1"
     transform="translate(-61.884242,-10.282511)">
    <g
       aria-label="ЖЕЛЕЗНИЧКА СТАНИЦА"
       style="font-style:normal;font-variant:normal;font-weight:normal;font-stretch:normal;font-size:14.11111069px;line-height:1.25;font-family:'Courier New';-inkscape-font-specification:'Courier New';letter-spacing:3.96875px;word-spacing:0px;fill:#000000;fill-opacity:1;stroke:none;stroke-width:1.32291663;stroke-miterlimit:4;stroke-dasharray:none"
       id="text1473"
       transform="translate(0.34769715)">
      <path
         d="m 82.297263,81.621646 -0.686127,1.986345 -5.360477,1.822368 q -0.229595,0.07378 -0.399867,0.102436 l -0.009,0.02605 4.552312,1.572466 -0.517406,1.497899 -4.552313,-1.572466 -0.009,0.02605 q 0.13357,0.140903 0.251393,0.327395 l 3.092887,4.742341 -0.688375,1.992858 -3.490652,-5.637862 -5.751695,2.131902 0.645633,-1.869118 5.054273,-1.716737 q 0.240607,-0.08455 0.450191,-0.121502 l 0.009,-0.02605 -4.350422,-1.502728 0.517407,-1.4979 4.350422,1.502729 0.009,-0.02605 q -0.13357,-0.140903 -0.279221,-0.373456 l -2.917159,-4.47024 0.643384,-1.862606 3.211903,5.220831 z"
         style="font-style:normal;font-variant:normal;font-weight:bold;font-stretch:normal;font-size:14.11111069px;font-family:'Yu Gothic UI';-inkscape-font-specification:'Yu Gothic UI, Bold';font-variant-ligatures:normal;font-variant-caps:normal;font-variant-numeric:normal;font-feature-settings:normal;text-align:start;letter-spacing:3.96875px;writing-mode:lr-tb;text-anchor:start;stroke-width:1.32291663;stroke-miterlimit:4;stroke-dasharray:none"
         id="path1517"
         inkscape:connector-curvature="0" />
      <path
         d="m 87.229147,72.169906 -2.601011,4.898933 -8.726796,-4.633354 2.497617,-4.704194 1.229297,0.652677 -1.728622,3.255813 2.470766,1.311814 1.592918,-3.000216 1.223212,0.649445 -1.592918,3.000216 2.580308,1.369974 1.832017,-3.450553 z"
         style="font-style:normal;font-variant:normal;font-weight:bold;font-stretch:normal;font-size:14.11111069px;font-family:'Yu Gothic UI';-inkscape-font-specification:'Yu Gothic UI, Bold';font-variant-ligatures:normal;font-variant-caps:normal;font-variant-numeric:normal;font-feature-settings:normal;text-align:start;letter-spacing:3.96875px;writing-mode:lr-tb;text-anchor:start;stroke-width:1.32291663;stroke-miterlimit:4;stroke-dasharray:none"
         id="path1519"
         inkscape:connector-curvature="0" />
      <path
         d="m 94.574072,61.286682 -0.962389,1.327768 -6.856412,-4.969647 -1.40719,1.941441 q 2.600239,2.505911 3.629859,3.609608 1.024041,1.099653 1.419208,1.751996 0.389587,0.6483 0.369299,1.263318 -0.02587,0.610974 -0.442362,1.185596 -0.355841,0.490939 -0.746992,0.760561 l -1.132508,-0.820862 q 0.333567,-0.166693 0.572142,-0.495846 0.246663,-0.34031 0.06488,-0.923088 -0.181785,-0.582779 -1.621883,-2.094624 -1.441633,-1.521467 -4.043818,-3.977731 l 3.158091,-4.357085 z"
         style="font-style:normal;font-variant:normal;font-weight:bold;font-stretch:normal;font-size:14.11111069px;font-family:'Yu Gothic UI';-inkscape-font-specification:'Yu Gothic UI, Bold';font-variant-ligatures:normal;font-variant-caps:normal;font-variant-numeric:normal;font-feature-settings:normal;text-align:start;letter-spacing:3.96875px;writing-mode:lr-tb;text-anchor:start;stroke-width:1.32291663;stroke-miterlimit:4;stroke-dasharray:none"
         id="path1521"
         inkscape:connector-curvature="0" />
      <path
         d="m 102.61421,52.410973 -3.844923,3.997672 -7.121319,-6.849217 3.692081,-3.838758 1.003143,0.964813 -2.555321,2.656838 2.016217,1.939178 2.354716,-2.448263 0.998177,0.960036 -2.354717,2.448264 2.105606,2.025152 2.70816,-2.815752 z"
         style="font-style:normal;font-variant:normal;font-weight:bold;font-stretch:normal;font-size:14.11111069px;font-family:'Yu Gothic UI';-inkscape-font-specification:'Yu Gothic UI, Bold';font-variant-ligatures:normal;font-variant-caps:normal;font-variant-numeric:normal;font-feature-settings:normal;text-align:start;letter-spacing:3.96875px;writing-mode:lr-tb;text-anchor:start;stroke-width:1.32291663;stroke-miterlimit:4;stroke-dasharray:none"
         id="path1523"
         inkscape:connector-curvature="0" />
      <path
         d="m 106.12322,48.659869 -0.98607,-1.222947 q 1.42546,-0.08724 2.57868,-1.017088 0.7563,-0.609804 0.92038,-1.317414 0.16512,-0.717299 -0.31062,-1.307317 -1.03796,-1.287312 -2.85629,0.178813 l -0.88503,0.713601 -0.80442,-0.997667 0.83139,-0.670353 q 0.77239,-0.622778 0.93664,-1.28627 0.16424,-0.663492 -0.30716,-1.248146 -0.40654,-0.504197 -1.00811,-0.514805 -0.60589,-0.01597 -1.23345,0.490036 -0.95476,0.769824 -1.39416,2.080015 l -0.91687,-1.137126 q 0.51413,-1.184576 1.67808,-2.12307 1.15858,-0.934168 2.25185,-0.939433 1.08895,-0.01063 1.78092,0.847579 1.19799,1.485773 0.0279,3.075315 l 0.0173,0.02145 q 0.86736,-0.548894 1.73623,-0.426322 0.87422,0.118246 1.46673,0.853087 0.85199,1.056669 0.56952,2.319987 -0.28247,1.263318 -1.65024,2.366156 -1.35704,1.094188 -2.44323,1.261914 z"
         style="font-style:normal;font-variant:normal;font-weight:bold;font-stretch:normal;font-size:14.11111069px;font-family:'Yu Gothic UI';-inkscape-font-specification:'Yu Gothic UI, Bold';font-variant-ligatures:normal;font-variant-caps:normal;font-variant-numeric:normal;font-feature-settings:normal;text-align:start;letter-spacing:3.96875px;writing-mode:lr-tb;text-anchor:start;stroke-width:1.32291663;stroke-miterlimit:4;stroke-dasharray:none"
         id="path1525"
         inkscape:connector-curvature="0" />
      <path
         d="m 123.02722,37.442237 -1.41587,0.840903 -2.18846,-3.684814 -3.99879,2.374935 2.18846,3.684815 -1.40995,0.837384 -5.04542,-8.495216 1.40995,-0.837384 2.12161,3.572256 3.99879,-2.374936 -2.12161,-3.572256 1.41587,-0.840903 z"
         style="font-style:normal;font-variant:normal;font-weight:bold;font-stretch:normal;font-size:14.11111069px;font-family:'Yu Gothic UI';-inkscape-font-specification:'Yu Gothic UI, Bold';font-variant-ligatures:normal;font-variant-caps:normal;font-variant-numeric:normal;font-feature-settings:normal;text-align:start;letter-spacing:3.96875px;writing-mode:lr-tb;text-anchor:start;stroke-width:1.32291663;stroke-miterlimit:4;stroke-dasharray:none"
         id="path1527"
         inkscape:connector-curvature="0" />
      <path
         d="m 136.58499,31.511421 -1.46738,0.580025 -2.41888,-6.119409 q -0.32674,-0.826601 -0.3969,-1.191541 l -0.0384,0.0152 q 0.005,0.331407 -0.0589,0.638224 l -1.7389,8.496382 -1.67243,0.661076 -3.63211,-9.188725 1.47378,-0.582557 2.30997,5.843875 q 0.39766,1.006018 0.46797,1.333854 l 0.0256,-0.01013 q 0.0268,-0.306967 0.11031,-0.695591 l 1.64844,-8.2754 1.75573,-0.694003 z"
         style="font-style:normal;font-variant:normal;font-weight:bold;font-stretch:normal;font-size:14.11111069px;font-family:'Yu Gothic UI';-inkscape-font-specification:'Yu Gothic UI, Bold';font-variant-ligatures:normal;font-variant-caps:normal;font-variant-numeric:normal;font-feature-settings:normal;text-align:start;letter-spacing:3.96875px;writing-mode:lr-tb;text-anchor:start;stroke-width:1.32291663;stroke-miterlimit:4;stroke-dasharray:none"
         id="path1529"
         inkscape:connector-curvature="0" />
      <path
         d="m 149.79841,28.085906 -1.60047,0.35729 -0.91725,-4.108769 q -1.33891,1.117835 -2.63677,1.40757 -1.3382,0.298743 -2.22131,-0.210091 -0.87789,-0.517059 -1.15111,-1.740947 l -0.83468,-3.738912 1.59375,-0.355789 0.77012,3.449752 q 0.33477,1.499599 1.868,1.157321 1.08939,-0.243197 2.32527,-1.253314 l -0.94877,-4.249986 1.60047,-0.35729 z"
         style="font-style:normal;font-variant:normal;font-weight:bold;font-stretch:normal;font-size:14.11111069px;font-family:'Yu Gothic UI';-inkscape-font-specification:'Yu Gothic UI, Bold';font-variant-ligatures:normal;font-variant-caps:normal;font-variant-numeric:normal;font-feature-settings:normal;text-align:start;letter-spacing:3.96875px;writing-mode:lr-tb;text-anchor:start;stroke-width:1.32291663;stroke-miterlimit:4;stroke-dasharray:none"
         id="path1531"
         inkscape:connector-curvature="0" />
      <path
         d="m 163.69218,26.61411 -2.1301,0.158102 -3.76333,-4.253074 q -0.21127,-0.239958 -0.25913,-0.326224 l -0.0275,0.002 0.36006,4.85113 -1.63537,0.121381 -0.73134,-9.853429 1.63536,-0.121381 0.34375,4.631249 0.0275,-0.002 q 0.0712,-0.157288 0.20864,-0.354033 l 2.98633,-4.539869 1.95832,-0.145351 -3.51765,5.01458 z"
         style="font-style:normal;font-variant:normal;font-weight:bold;font-stretch:normal;font-size:14.11111069px;font-family:'Yu Gothic UI';-inkscape-font-specification:'Yu Gothic UI, Bold';font-variant-ligatures:normal;font-variant-caps:normal;font-variant-numeric:normal;font-feature-settings:normal;text-align:start;letter-spacing:3.96875px;writing-mode:lr-tb;text-anchor:start;stroke-width:1.32291663;stroke-miterlimit:4;stroke-dasharray:none"
         id="path1533"
         inkscape:connector-curvature="0" />
      <path
         d="m 176.91769,27.235416 -1.79392,-0.126026 -0.71041,-2.571025 -3.87651,-0.27233 -1.02853,2.448862 -1.78704,-0.125542 4.38335,-9.596949 1.84203,0.129406 z m -2.84367,-4.060881 -1.09158,-4.027588 q -0.0483,-0.196797 -0.0871,-0.627767 l -0.0275,-0.0019 q -0.0894,0.387429 -0.18092,0.608935 l -1.63023,3.836377 z"
         style="font-style:normal;font-variant:normal;font-weight:bold;font-stretch:normal;font-size:14.11111069px;font-family:'Yu Gothic UI';-inkscape-font-specification:'Yu Gothic UI, Bold';font-variant-ligatures:normal;font-variant-caps:normal;font-variant-numeric:normal;font-feature-settings:normal;text-align:start;letter-spacing:3.96875px;writing-mode:lr-tb;text-anchor:start;stroke-width:1.32291663;stroke-miterlimit:4;stroke-dasharray:none"
         id="path1535"
         inkscape:connector-curvature="0" />
      <path
         d="m 196.56172,31.460337 q -1.23713,0.224505 -2.82407,-0.264369 -2.05447,-0.632898 -2.89279,-2.31147 -0.83833,-1.678571 -0.1892,-3.785713 0.69781,-2.265177 2.51725,-3.233141 1.82603,-0.965935 3.95292,-0.310723 1.36965,0.421933 2.15208,1.088344 l -0.47873,1.554018 q -0.78034,-0.86043 -1.93269,-1.215421 -1.53426,-0.472646 -2.79131,0.214357 -1.25046,0.689031 -1.75556,2.32865 -0.48076,1.560602 0.12217,2.762912 0.60495,1.195725 2.05361,1.641999 1.33672,0.41179 2.5126,0.0819 z"
         style="font-style:normal;font-variant:normal;font-weight:bold;font-stretch:normal;font-size:14.11111069px;font-family:'Yu Gothic UI';-inkscape-font-specification:'Yu Gothic UI, Bold';font-variant-ligatures:normal;font-variant-caps:normal;font-variant-numeric:normal;font-feature-settings:normal;text-align:start;letter-spacing:3.96875px;writing-mode:lr-tb;text-anchor:start;stroke-width:1.32291663;stroke-miterlimit:4;stroke-dasharray:none"
         id="path1537"
         inkscape:connector-curvature="0" />
      <path
         d="m 211.19283,28.965175 -2.57679,-1.191101 -3.56174,7.705342 -1.48853,-0.688064 3.56174,-7.705342 -2.57053,-1.18821 0.58398,-1.263376 6.63585,3.067375 z"
         style="font-style:normal;font-variant:normal;font-weight:bold;font-stretch:normal;font-size:14.11111069px;font-family:'Yu Gothic UI';-inkscape-font-specification:'Yu Gothic UI, Bold';font-variant-ligatures:normal;font-variant-caps:normal;font-variant-numeric:normal;font-feature-settings:normal;text-align:start;letter-spacing:3.96875px;writing-mode:lr-tb;text-anchor:start;stroke-width:1.32291663;stroke-miterlimit:4;stroke-dasharray:none"
         id="path1539"
         inkscape:connector-curvature="0" />
      <path
         d="m 219.21286,43.69546 -1.51153,-0.974318 0.61547,-2.595388 -3.2663,-2.105422 -2.08067,1.650936 -1.50575,-0.970584 8.46308,-6.300115 1.55208,1.000449 z m -0.53671,-4.928401 0.98282,-4.055502 q 0.0524,-0.195754 0.22593,-0.592146 l -0.0232,-0.01493 q -0.26491,0.296508 -0.4518,0.446558 l -3.27617,2.577227 z"
         style="font-style:normal;font-variant:normal;font-weight:bold;font-stretch:normal;font-size:14.11111069px;font-family:'Yu Gothic UI';-inkscape-font-specification:'Yu Gothic UI, Bold';font-variant-ligatures:normal;font-variant-caps:normal;font-variant-numeric:normal;font-feature-settings:normal;text-align:start;letter-spacing:3.96875px;writing-mode:lr-tb;text-anchor:start;stroke-width:1.32291663;stroke-miterlimit:4;stroke-dasharray:none"
         id="path1541"
         inkscape:connector-curvature="0" />
      <path
         d="m 229.37356,52.238722 -1.23103,-1.093788 2.84659,-3.203765 -3.47675,-3.08915 -2.8466,3.203765 -1.22587,-1.089212 6.56272,-7.386172 1.22588,1.089212 -2.75964,3.1059 3.47676,3.089151 2.75964,-3.105901 1.23103,1.093788 z"
         style="font-style:normal;font-variant:normal;font-weight:bold;font-stretch:normal;font-size:14.11111069px;font-family:'Yu Gothic UI';-inkscape-font-specification:'Yu Gothic UI, Bold';font-variant-ligatures:normal;font-variant-caps:normal;font-variant-numeric:normal;font-feature-settings:normal;text-align:start;letter-spacing:3.96875px;writing-mode:lr-tb;text-anchor:start;stroke-width:1.32291663;stroke-miterlimit:4;stroke-dasharray:none"
         id="path1543"
         inkscape:connector-curvature="0" />
      <path
         d="m 239.1309,63.36457 -0.99702,-1.222934 5.10001,-4.15789 q 0.6889,-0.561641 1.01547,-0.73899 l -0.0261,-0.03204 q -0.31433,0.105136 -0.62611,0.137073 l -8.62412,0.914774 -1.13635,-1.393825 7.65803,-6.243365 1.00138,1.228275 -4.87038,3.970675 q -0.83843,0.683549 -1.1296,0.849809 l 0.0174,0.02136 q 0.30069,-0.06735 0.69635,-0.105438 l 8.38612,-0.934097 1.19294,1.463249 z"
         style="font-style:normal;font-variant:normal;font-weight:bold;font-stretch:normal;font-size:14.11111069px;font-family:'Yu Gothic UI';-inkscape-font-specification:'Yu Gothic UI, Bold';font-variant-ligatures:normal;font-variant-caps:normal;font-variant-numeric:normal;font-feature-settings:normal;text-align:start;letter-spacing:3.96875px;writing-mode:lr-tb;text-anchor:start;stroke-width:1.32291663;stroke-miterlimit:4;stroke-dasharray:none"
         id="path1545"
         inkscape:connector-curvature="0" />
      <path
         d="m 245.09268,78.052879 -0.73085,-1.272684 2.31831,-1.33133 -3.89791,-6.787652 8.56822,-4.92043 0.81664,1.422061 -7.32541,4.206728 2.3161,4.033155 7.32541,-4.206727 0.82007,1.428036 -7.32541,4.206727 0.67596,1.177084 z"
         style="font-style:normal;font-variant:normal;font-weight:bold;font-stretch:normal;font-size:14.11111069px;font-family:'Yu Gothic UI';-inkscape-font-specification:'Yu Gothic UI, Bold';font-variant-ligatures:normal;font-variant-caps:normal;font-variant-numeric:normal;font-feature-settings:normal;text-align:start;letter-spacing:3.96875px;writing-mode:lr-tb;text-anchor:start;stroke-width:1.32291663;stroke-miterlimit:4;stroke-dasharray:none"
         id="path1547"
         inkscape:connector-curvature="0" />
      <path
         d="m 252.63758,89.457882 -0.64356,-1.679246 2.03029,-1.72996 -1.39066,-3.628714 -2.65412,0.102185 -0.64109,-1.672811 10.55029,-0.08084 0.66082,1.724283 z m 2.47957,-4.292891 3.18951,-2.690736 q 0.15795,-0.126945 0.5322,-0.344159 l -0.01,-0.02573 q -0.38892,0.08264 -0.62836,0.09324 l -4.16593,0.142915 z"
         style="font-style:normal;font-variant:normal;font-weight:bold;font-stretch:normal;font-size:14.11111069px;font-family:'Yu Gothic UI';-inkscape-font-specification:'Yu Gothic UI, Bold';font-variant-ligatures:normal;font-variant-caps:normal;font-variant-numeric:normal;font-feature-settings:normal;text-align:start;letter-spacing:3.96875px;writing-mode:lr-tb;text-anchor:start;stroke-width:1.32291663;stroke-miterlimit:4;stroke-dasharray:none"
         id="path1549"
         inkscape:connector-curvature="0" />
    </g>
    <g
       aria-label="УДРУЖЕЊЕ ГРАЂАНА"
       style="font-style:normal;font-variant:normal;font-weight:normal;font-stretch:normal;font-size:14.11111069px;line-height:1.25;font-family:'Courier New';-inkscape-font-specification:'Courier New';letter-spacing:3.96875px;word-spacing:0px;fill:#000000;fill-opacity:1;stroke:none;stroke-width:1.32291663;stroke-miterlimit:4;stroke-dasharray:none"
       id="text1554"
       transform="matrix(0.98608372,0,0,1.0884372,0.39490548,-18.197502)">
      <path
         d="m 90.829914,169.16147 -7.373503,1.37381 q -2.021266,0.36201 -3.031608,0.09 -1.000754,-0.27025 -1.538686,-1.04593 -0.427989,-0.61715 -0.539105,-1.15219 l 1.285255,-0.89132 q 0.04719,0.69677 0.361307,1.14972 0.278782,0.402 0.816189,0.52402 0.541334,0.12768 1.582283,-0.0156 l 3.832075,-6.6739 1.064083,1.53438 -2.687855,4.34595 q -0.08356,0.13341 -0.451412,0.60652 l 0.0079,0.0113 q 0.0684,-0.0223 0.738047,-0.19321 l 4.945597,-1.09035 z"
         style="font-style:normal;font-variant:normal;font-weight:bold;font-stretch:normal;font-size:14.11111069px;font-family:'Yu Gothic UI';-inkscape-font-specification:'Yu Gothic UI, Bold';font-variant-ligatures:normal;font-variant-caps:normal;font-variant-numeric:normal;font-feature-settings:normal;text-align:start;letter-spacing:3.96875px;writing-mode:lr-tb;text-anchor:start;stroke-width:1.32291663;stroke-miterlimit:4;stroke-dasharray:none"
         id="path1560"
         inkscape:connector-curvature="0" />
      <path
         d="m 89.647993,186.99981 -0.978469,-1.09384 1.987395,-1.77778 -4.474313,-5.00186 -1.987394,1.77778 -0.973875,-1.0887 3.024742,-2.70572 0.555844,0.62138 q 1.919409,-0.46894 4.081846,-1.53431 2.167573,-1.06996 3.783856,-2.40484 l 3.422343,3.82587 -6.326795,5.6595 0.909562,1.0168 z m 1.021867,-4.94475 5.274042,-4.71778 -1.424063,-1.59197 q -1.214639,0.95711 -3.141671,1.91359 -1.927033,0.95648 -3.427808,1.35602 z"
         style="font-style:normal;font-variant:normal;font-weight:bold;font-stretch:normal;font-size:14.11111069px;font-family:'Yu Gothic UI';-inkscape-font-specification:'Yu Gothic UI, Bold';font-variant-ligatures:normal;font-variant-caps:normal;font-variant-numeric:normal;font-feature-settings:normal;text-align:start;letter-spacing:3.96875px;writing-mode:lr-tb;text-anchor:start;stroke-width:1.32291663;stroke-miterlimit:4;stroke-dasharray:none"
         id="path1562"
         inkscape:connector-curvature="0" />
      <path
         d="m 99.346302,187.51502 -2.354314,2.70081 -1.230946,-1.07303 6.492478,-7.448 2.25933,1.96948 q 1.28288,1.1183 1.46858,2.33134 0.1857,1.21303 -0.76055,2.29855 -0.94626,1.08552 -2.28594,1.13339 -1.33969,0.0479 -2.59661,-1.04778 z m 3.250768,-3.7292 -2.37243,2.72159 0.79986,0.69724 q 0.79466,0.69271 1.53162,0.68615 0.73697,-0.007 1.32102,-0.67657 1.14546,-1.31405 -0.38153,-2.64514 z"
         style="font-style:normal;font-variant:normal;font-weight:bold;font-stretch:normal;font-size:14.11111069px;font-family:'Yu Gothic UI';-inkscape-font-specification:'Yu Gothic UI, Bold';font-variant-ligatures:normal;font-variant-caps:normal;font-variant-numeric:normal;font-feature-settings:normal;text-align:start;letter-spacing:3.96875px;writing-mode:lr-tb;text-anchor:start;stroke-width:1.32291663;stroke-miterlimit:4;stroke-dasharray:none"
         id="path1564"
         inkscape:connector-curvature="0" />
      <path
         d="m 116.69587,192.79891 -6.40851,3.89703 q -1.76191,1.05463 -2.80308,1.15824 -1.03158,0.10183 -1.80944,-0.43295 -0.61887,-0.42549 -0.91234,-0.88646 l 0.88611,-1.28885 q 0.29098,0.63485 0.7452,0.94713 0.40312,0.27716 0.9489,0.20087 0.55146,-0.0724 1.47411,-0.57522 l 1.21904,-7.59866 1.53868,1.05786 -0.97381,5.01633 q -0.0309,0.15437 -0.20725,0.72711 l 0.0114,0.008 q 0.0561,-0.0451 0.62172,-0.44215 l 4.23852,-2.77179 z"
         style="font-style:normal;font-variant:normal;font-weight:bold;font-stretch:normal;font-size:14.11111069px;font-family:'Yu Gothic UI';-inkscape-font-specification:'Yu Gothic UI, Bold';font-variant-ligatures:normal;font-variant-caps:normal;font-variant-numeric:normal;font-feature-settings:normal;text-align:start;letter-spacing:3.96875px;writing-mode:lr-tb;text-anchor:start;stroke-width:1.32291663;stroke-miterlimit:4;stroke-dasharray:none"
         id="path1566"
         inkscape:connector-curvature="0" />
      <path
         d="m 126.13155,208.97515 -1.87737,-0.94435 -1.09282,-5.55531 q -0.0426,-0.23737 -0.0483,-0.40994 l -0.0246,-0.0124 -2.16427,4.30257 -1.41573,-0.71213 2.16428,-4.30258 -0.0246,-0.0124 q -0.15743,0.11363 -0.35794,0.20559 l -5.11175,2.4343 -1.88352,-0.94745 6.05223,-2.70936 -1.34754,-5.98424 1.76657,0.88862 1.02888,5.23778 q 0.0518,0.24972 0.0605,0.46235 l 0.0246,0.0124 2.06829,-4.11176 1.41572,0.71214 -2.06829,4.11175 0.0246,0.0124 q 0.15743,-0.11363 0.40729,-0.22704 l 4.81868,-2.29635 1.76043,0.88553 -5.60182,2.48858 z"
         style="font-style:normal;font-variant:normal;font-weight:bold;font-stretch:normal;font-size:14.11111069px;font-family:'Yu Gothic UI';-inkscape-font-specification:'Yu Gothic UI, Bold';font-variant-ligatures:normal;font-variant-caps:normal;font-variant-numeric:normal;font-feature-settings:normal;text-align:start;letter-spacing:3.96875px;writing-mode:lr-tb;text-anchor:start;stroke-width:1.32291663;stroke-miterlimit:4;stroke-dasharray:none"
         id="path1568"
         inkscape:connector-curvature="0" />
      <path
         d="m 136.17266,212.53932 -5.23729,-1.82636 3.25341,-9.32954 5.0291,1.75376 -0.45829,1.3142 -3.48068,-1.21379 -0.92112,2.64142 3.20743,1.1185 -0.45602,1.3077 -3.20744,-1.1185 -0.96195,2.75852 3.68887,1.28639 z"
         style="font-style:normal;font-variant:normal;font-weight:bold;font-stretch:normal;font-size:14.11111069px;font-family:'Yu Gothic UI';-inkscape-font-specification:'Yu Gothic UI, Bold';font-variant-ligatures:normal;font-variant-caps:normal;font-variant-numeric:normal;font-feature-settings:normal;text-align:start;letter-spacing:3.96875px;writing-mode:lr-tb;text-anchor:start;stroke-width:1.32291663;stroke-miterlimit:4;stroke-dasharray:none"
         id="path1570"
         inkscape:connector-curvature="0" />
      <path
         d="m 147.40682,215.40574 0.87891,-4.3353 -4.15298,-0.84195 -0.87891,4.33531 -1.60042,-0.32446 1.96318,-9.68354 1.60041,0.32446 -0.80087,3.9504 4.15298,0.84194 0.80088,-3.95039 1.60041,0.32445 -0.79129,3.90313 1.66119,0.33678 q 1.53289,0.31077 2.23863,1.19906 0.71249,0.88967 0.4428,2.21997 -0.28339,1.39783 -1.3593,2.02335 -1.06916,0.62689 -2.64932,0.30654 z m 2.5026,-4.12564 -0.63522,3.1333 1.38433,0.28065 q 0.87786,0.17797 1.43544,-0.14487 0.5657,-0.32823 0.71766,-1.07779 0.31213,-1.53964 -1.51788,-1.91064 z"
         style="font-style:normal;font-variant:normal;font-weight:bold;font-stretch:normal;font-size:14.11111069px;font-family:'Yu Gothic UI';-inkscape-font-specification:'Yu Gothic UI, Bold';font-variant-ligatures:normal;font-variant-caps:normal;font-variant-numeric:normal;font-feature-settings:normal;text-align:start;letter-spacing:3.96875px;writing-mode:lr-tb;text-anchor:start;stroke-width:1.32291663;stroke-miterlimit:4;stroke-dasharray:none"
         id="path1572"
         inkscape:connector-curvature="0" />
      <path
         d="m 165.18066,217.56203 -5.53505,-0.35791 0.63756,-9.85994 5.31502,0.34368 -0.0898,1.38891 -3.67857,-0.23786 -0.18051,2.79159 3.38978,0.21919 -0.0894,1.38204 -3.38979,-0.21919 -0.18851,2.91535 3.8986,0.25209 z"
         style="font-style:normal;font-variant:normal;font-weight:bold;font-stretch:normal;font-size:14.11111069px;font-family:'Yu Gothic UI';-inkscape-font-specification:'Yu Gothic UI, Bold';font-variant-ligatures:normal;font-variant-caps:normal;font-variant-numeric:normal;font-feature-settings:normal;text-align:start;letter-spacing:3.96875px;writing-mode:lr-tb;text-anchor:start;stroke-width:1.32291663;stroke-miterlimit:4;stroke-dasharray:none"
         id="path1574"
         inkscape:connector-curvature="0" />
      <path
         d="m 183.2607,208.16835 -3.80777,0.42079 0.92936,8.40996 -1.62994,0.18012 -1.08526,-9.82075 5.43771,-0.60091 z"
         style="font-style:normal;font-variant:normal;font-weight:bold;font-stretch:normal;font-size:14.11111069px;font-family:'Yu Gothic UI';-inkscape-font-specification:'Yu Gothic UI, Bold';font-variant-ligatures:normal;font-variant-caps:normal;font-variant-numeric:normal;font-feature-settings:normal;text-align:start;letter-spacing:3.96875px;writing-mode:lr-tb;text-anchor:start;stroke-width:1.32291663;stroke-miterlimit:4;stroke-dasharray:none"
         id="path1576"
         inkscape:connector-curvature="0" />
      <path
         d="m 190.35629,211.82787 0.77217,3.49871 -1.5946,0.35193 -2.12942,-9.64834 2.9268,-0.64596 q 1.66188,-0.36678 2.7477,0.20502 1.08581,0.57179 1.39616,1.978 0.31036,1.40621 -0.44756,2.51194 -0.75791,1.10572 -2.38615,1.46508 z m -1.0662,-4.8309 0.77812,3.52562 1.03615,-0.22868 q 1.02942,-0.2272 1.46226,-0.82371 0.43283,-0.5965 0.24127,-1.46445 -0.3757,-1.70225 -2.35381,-1.26567 z"
         style="font-style:normal;font-variant:normal;font-weight:bold;font-stretch:normal;font-size:14.11111069px;font-family:'Yu Gothic UI';-inkscape-font-specification:'Yu Gothic UI, Bold';font-variant-ligatures:normal;font-variant-caps:normal;font-variant-numeric:normal;font-feature-settings:normal;text-align:start;letter-spacing:3.96875px;writing-mode:lr-tb;text-anchor:start;stroke-width:1.32291663;stroke-miterlimit:4;stroke-dasharray:none"
         id="path1578"
         inkscape:connector-curvature="0" />
      <path
         d="m 209.03818,210.03057 -1.69746,0.59387 -1.66948,-2.0803 -3.66805,1.28331 0.0241,2.65598 -1.69095,0.5916 0.22956,-10.54811 1.74298,-0.6098 z m -4.21809,-2.60479 -2.59574,-3.26728 q -0.12225,-0.16163 -0.32836,-0.5421 l -0.026,0.009 q 0.0712,0.39119 0.0747,0.63084 l 0.0203,4.16833 z"
         style="font-style:normal;font-variant:normal;font-weight:bold;font-stretch:normal;font-size:14.11111069px;font-family:'Yu Gothic UI';-inkscape-font-specification:'Yu Gothic UI, Bold';font-variant-ligatures:normal;font-variant-caps:normal;font-variant-numeric:normal;font-feature-settings:normal;text-align:start;letter-spacing:3.96875px;writing-mode:lr-tb;text-anchor:start;stroke-width:1.32291663;stroke-miterlimit:4;stroke-dasharray:none"
         id="path1580"
         inkscape:connector-curvature="0" />
      <path
         d="m 217.82787,205.88613 -0.58965,-1.17653 q 0.48993,-0.007 1.04432,-0.28447 0.50511,-0.25315 0.61863,-0.78017 0.11351,-0.52703 -0.20755,-1.16765 -0.37973,-0.75767 -1.05165,-0.945 -0.675,-0.1935 -1.50042,0.22019 l -1.36134,0.68226 2.0221,4.03472 -1.46605,0.73475 -3.80031,-7.58281 -2.26684,1.13608 -0.62669,-1.25045 6.52947,-3.27241 0.62669,1.25045 -2.79658,1.40158 1.19782,2.39003 1.55229,-0.77796 q 1.39213,-0.69771 2.56028,-0.38142 1.16814,0.31629 1.82262,1.62218 0.60509,1.20734 0.30712,2.19674 -0.29489,0.98016 -1.44679,1.55746 -0.60982,0.30563 -1.16747,0.39243 z"
         style="font-style:normal;font-variant:normal;font-weight:bold;font-stretch:normal;font-size:14.11111069px;font-family:'Yu Gothic UI';-inkscape-font-specification:'Yu Gothic UI, Bold';font-variant-ligatures:normal;font-variant-caps:normal;font-variant-numeric:normal;font-feature-settings:normal;text-align:start;letter-spacing:3.96875px;writing-mode:lr-tb;text-anchor:start;stroke-width:1.32291663;stroke-miterlimit:4;stroke-dasharray:none"
         id="path1582"
         inkscape:connector-curvature="0" />
      <path
         d="m 233.16715,196.64156 -1.49332,1.00201 -2.13936,-1.59311 -3.22693,2.16528 0.69181,2.5644 -1.48759,0.99818 -2.43286,-10.26628 1.53336,-1.02888 z m -4.73792,-1.4592 -3.33457,-2.50873 q -0.15899,-0.12565 -0.45423,-0.44199 l -0.0229,0.0154 q 0.16734,0.36067 0.2311,0.59172 l 1.06884,4.02901 z"
         style="font-style:normal;font-variant:normal;font-weight:bold;font-stretch:normal;font-size:14.11111069px;font-family:'Yu Gothic UI';-inkscape-font-specification:'Yu Gothic UI, Bold';font-variant-ligatures:normal;font-variant-caps:normal;font-variant-numeric:normal;font-feature-settings:normal;text-align:start;letter-spacing:3.96875px;writing-mode:lr-tb;text-anchor:start;stroke-width:1.32291663;stroke-miterlimit:4;stroke-dasharray:none"
         id="path1584"
         inkscape:connector-curvature="0" />
      <path
         d="m 243.35122,188.12858 -1.23873,1.08505 -2.82386,-3.22382 -3.49852,3.06447 2.82385,3.22382 -1.23356,1.08051 -6.51029,-7.43242 1.23355,-1.08051 2.7376,3.12535 3.49852,-3.06447 -2.73759,-3.12535 1.23874,-1.08505 z"
         style="font-style:normal;font-variant:normal;font-weight:bold;font-stretch:normal;font-size:14.11111069px;font-family:'Yu Gothic UI';-inkscape-font-specification:'Yu Gothic UI, Bold';font-variant-ligatures:normal;font-variant-caps:normal;font-variant-numeric:normal;font-feature-settings:normal;text-align:start;letter-spacing:3.96875px;writing-mode:lr-tb;text-anchor:start;stroke-width:1.32291663;stroke-miterlimit:4;stroke-dasharray:none"
         id="path1586"
         inkscape:connector-curvature="0" />
      <path
         d="m 253.24132,177.47364 -1.18755,1.35047 -2.47553,-0.99328 -2.56619,2.91825 1.32438,2.30235 -1.183,1.34529 -4.97645,-9.30323 1.2194,-1.38669 z m -4.95352,-0.19953 -3.86509,-1.57293 q -0.18583,-0.0808 -0.55213,-0.31119 l -0.0182,0.0207 q 0.25398,0.30591 0.37468,0.51298 l 2.06329,3.62191 z"
         style="font-style:normal;font-variant:normal;font-weight:bold;font-stretch:normal;font-size:14.11111069px;font-family:'Yu Gothic UI';-inkscape-font-specification:'Yu Gothic UI, Bold';font-variant-ligatures:normal;font-variant-caps:normal;font-variant-numeric:normal;font-feature-settings:normal;text-align:start;letter-spacing:3.96875px;writing-mode:lr-tb;text-anchor:start;stroke-width:1.32291663;stroke-miterlimit:4;stroke-dasharray:none"
         id="path1588"
         inkscape:connector-curvature="0" />
    </g>
    <g
       aria-label="КАМЕНИЦА"
       style="font-style:normal;font-variant:normal;font-weight:normal;font-stretch:normal;font-size:14.11111069px;line-height:1.25;font-family:'Courier New';-inkscape-font-specification:'Courier New';letter-spacing:0px;word-spacing:0px;fill:#000000;fill-opacity:1;stroke:none;stroke-width:1.32291663;stroke-miterlimit:4;stroke-dasharray:none"
       id="text1597">
      <path
         d="m 120.71278,111.03928 h -2.13596 l -3.43821,-4.51996 q -0.19292,-0.25494 -0.23426,-0.34451 h -0.0276 v 4.86447 h -1.63987 v -9.88053 h 1.63987 v 4.64399 h 0.0276 q 0.0827,-0.15159 0.23426,-0.33762 l 3.31419,-4.30637 h 1.9637 l -3.87918,4.74045 z"
         style="font-style:normal;font-variant:normal;font-weight:bold;font-stretch:normal;font-size:14.11111069px;font-family:'Yu Gothic UI';-inkscape-font-specification:'Yu Gothic UI, Bold';font-variant-ligatures:normal;font-variant-caps:normal;font-variant-numeric:normal;font-feature-settings:normal;text-align:start;letter-spacing:3.96875px;writing-mode:lr-tb;text-anchor:start;stroke-width:1.32291663;stroke-miterlimit:4;stroke-dasharray:none"
         id="path1684" />
      <path
         d="m 133.94883,111.03928 h -1.79834 l -0.88883,-2.51492 h -3.88607 l -0.85438,2.51492 h -1.79145 l 3.70003,-9.88053 h 1.84657 z m -3.12125,-3.85161 -1.37115,-3.94119 q -0.062,-0.19293 -0.13091,-0.62012 h -0.0276 q -0.062,0.39274 -0.13781,0.62012 l -1.35737,3.94119 z"
         style="font-style:normal;font-variant:normal;font-weight:bold;font-stretch:normal;font-size:14.11111069px;font-family:'Yu Gothic UI';-inkscape-font-specification:'Yu Gothic UI, Bold';font-variant-ligatures:normal;font-variant-caps:normal;font-variant-numeric:normal;font-feature-settings:normal;text-align:start;letter-spacing:3.96875px;writing-mode:lr-tb;text-anchor:start;stroke-width:1.32291663;stroke-miterlimit:4;stroke-dasharray:none"
         id="path1686" />
      <path
         d="m 149.89274,111.03928 h -1.62609 v -6.39409 q 0,-0.78549 0.0965,-1.92237 h -0.0276 q -0.15158,0.64768 -0.26871,0.93018 l -2.94901,7.38628 h -1.12999 l -2.95589,-7.33116 q -0.12402,-0.32384 -0.26183,-0.9853 h -0.0276 q 0.0551,0.59256 0.0551,1.93615 v 6.38031 h -1.51584 v -9.88053 h 2.30822 l 2.5976,6.58013 q 0.29628,0.75792 0.38585,1.12999 h 0.0344 q 0.25494,-0.77859 0.41341,-1.15755 l 2.64583,-6.55257 h 2.22554 z"
         style="font-style:normal;font-variant:normal;font-weight:bold;font-stretch:normal;font-size:14.11111069px;font-family:'Yu Gothic UI';-inkscape-font-specification:'Yu Gothic UI, Bold';font-variant-ligatures:normal;font-variant-caps:normal;font-variant-numeric:normal;font-feature-settings:normal;text-align:start;letter-spacing:3.96875px;writing-mode:lr-tb;text-anchor:start;stroke-width:1.32291663;stroke-miterlimit:4;stroke-dasharray:none"
         id="path1688" />
      <path
         d="m 161.83344,111.03928 h -5.54661 v -9.88053 h 5.32612 v 1.39182 h -3.68625 v 2.79742 h 3.39686 v 1.38492 h -3.39686 v 2.92145 h 3.90674 z"
         style="font-style:normal;font-variant:normal;font-weight:bold;font-stretch:normal;font-size:14.11111069px;font-family:'Yu Gothic UI';-inkscape-font-specification:'Yu Gothic UI, Bold';font-variant-ligatures:normal;font-variant-caps:normal;font-variant-numeric:normal;font-feature-settings:normal;text-align:start;letter-spacing:3.96875px;writing-mode:lr-tb;text-anchor:start;stroke-width:1.32291663;stroke-miterlimit:4;stroke-dasharray:none"
         id="path1690" />
      <path
         d="m 175.49669,111.03928 h -1.64676 v -4.28569 h -4.65088 v 4.28569 h -1.63986 v -9.88053 h 1.63986 v 4.15479 h 4.65088 v -4.15479 h 1.64676 z"
         style="font-style:normal;font-variant:normal;font-weight:bold;font-stretch:normal;font-size:14.11111069px;font-family:'Yu Gothic UI';-inkscape-font-specification:'Yu Gothic UI, Bold';font-variant-ligatures:normal;font-variant-caps:normal;font-variant-numeric:normal;font-feature-settings:normal;text-align:start;letter-spacing:3.96875px;writing-mode:lr-tb;text-anchor:start;stroke-width:1.32291663;stroke-miterlimit:4;stroke-dasharray:none"
         id="path1692" />
      <path
         d="m 190.29681,111.03928 h -1.57785 v -6.58013 q 0,-0.88883 0.0689,-1.25401 h -0.0413 q -0.11713,0.31006 -0.28939,0.57188 l -4.74045,7.26226 h -1.79834 v -9.88053 h 1.58474 v 6.28385 q 0,1.08176 -0.0551,1.41249 h 0.0276 q 0.13781,-0.2756 0.35829,-0.60633 l 4.57509,-7.09001 h 1.88791 z"
         style="font-style:normal;font-variant:normal;font-weight:bold;font-stretch:normal;font-size:14.11111069px;font-family:'Yu Gothic UI';-inkscape-font-specification:'Yu Gothic UI, Bold';font-variant-ligatures:normal;font-variant-caps:normal;font-variant-numeric:normal;font-feature-settings:normal;text-align:start;letter-spacing:3.96875px;writing-mode:lr-tb;text-anchor:start;stroke-width:1.32291663;stroke-miterlimit:4;stroke-dasharray:none"
         id="path1694" />
      <path
         d="m 206.01334,113.71268 h -1.46761 v -2.6734 h -7.82726 v -9.88053 h 1.63987 v 8.44737 h 4.65088 v -8.44737 h 1.64675 v 8.44737 h 1.35737 z"
         style="font-style:normal;font-variant:normal;font-weight:bold;font-stretch:normal;font-size:14.11111069px;font-family:'Yu Gothic UI';-inkscape-font-specification:'Yu Gothic UI, Bold';font-variant-ligatures:normal;font-variant-caps:normal;font-variant-numeric:normal;font-feature-settings:normal;text-align:start;letter-spacing:3.96875px;writing-mode:lr-tb;text-anchor:start;stroke-width:1.32291663;stroke-miterlimit:4;stroke-dasharray:none"
         id="path1696" />
      <path
         d="m 219.77305,111.03928 h -1.79834 l -0.88883,-2.51492 h -3.88607 l -0.85438,2.51492 h -1.79145 l 3.70003,-9.88053 h 1.84657 z m -3.12125,-3.85161 -1.37115,-3.94119 q -0.062,-0.19293 -0.13092,-0.62012 h -0.0276 q -0.062,0.39274 -0.1378,0.62012 l -1.35737,3.94119 z"
         style="font-style:normal;font-variant:normal;font-weight:bold;font-stretch:normal;font-size:14.11111069px;font-family:'Yu Gothic UI';-inkscape-font-specification:'Yu Gothic UI, Bold';font-variant-ligatures:normal;font-variant-caps:normal;font-variant-numeric:normal;font-feature-settings:normal;text-align:start;letter-spacing:3.96875px;writing-mode:lr-tb;text-anchor:start;stroke-width:1.32291663;stroke-miterlimit:4;stroke-dasharray:none"
         id="path1698" />
    </g>
    <path
       style="opacity:1;fill:none;fill-opacity:1;stroke:#000000;stroke-width:4.5;stroke-linecap:round;stroke-linejoin:round;stroke-miterlimit:4;stroke-dasharray:none;stroke-dashoffset:0;stroke-opacity:1"
       d="M 568.52344,-0.11132812 A 395.03717,403.50474 0 0 0 190.50195,298.94336 395.03717,403.50474 0 0 0 469.83398,793.13281 395.03717,403.50474 0 0 0 953.6543,507.8125 395.03717,403.50474 0 0 0 674.32031,13.623047 395.03717,403.50474 0 0 0 568.52344,-0.11132812 Z M 565.69336,79.40625 A 313.47136,323.98441 0 0 1 649.64648,90.433594 313.47136,323.98441 0 0 1 872.40625,325.39844 H 264.41602 a 313.47136,323.98441 0 0 1 1.30859,-5.87305 A 313.47136,323.98441 0 0 1 565.69336,79.40625 Z M 260.625,462.61719 H 876.5957 A 313.47136,323.98441 0 0 1 871.30469,487.23047 313.47136,323.98441 0 0 1 487.38086,716.32227 313.47136,323.98441 0 0 1 260.625,462.61719 Z"
       id="path1591"
       transform="matrix(0.26458333,0,0,0.26458333,15.63768,10.911585)"
       inkscape:connector-curvature="0" />
    <g
       aria-label="ГОЧКА ПРУГА"
       style="font-style:normal;font-variant:normal;font-weight:normal;font-stretch:normal;font-size:14.11111069px;line-height:1.25;font-family:'Courier New';-inkscape-font-specification:'Courier New';letter-spacing:0px;word-spacing:0px;fill:#000000;fill-opacity:1;stroke:none;stroke-width:1.32291663;stroke-miterlimit:4;stroke-dasharray:none"
       id="text1603">
      <path
         d="m 106.47076,121.70146 h -3.83095 v 8.46115 h -1.63987 v -9.88053 h 5.47082 z"
         style="font-style:normal;font-variant:normal;font-weight:bold;font-stretch:normal;font-size:14.11111069px;font-family:'Yu Gothic UI';-inkscape-font-specification:'Yu Gothic UI, Bold';font-variant-ligatures:normal;font-variant-caps:normal;font-variant-numeric:normal;font-feature-settings:normal;text-align:start;letter-spacing:3.96875px;writing-mode:lr-tb;text-anchor:start;stroke-width:1.32291663;stroke-miterlimit:4;stroke-dasharray:none"
         id="path1663" />
      <path
         d="m 115.95855,130.32798 q -2.13596,0 -3.42443,-1.38493 -1.28157,-1.38493 -1.28157,-3.60357 0,-2.38401 1.30913,-3.80339 1.30914,-1.41938 3.55534,-1.41938 2.08084,0 3.34864,1.37804 1.27468,1.37804 1.27468,3.60357 0,2.41846 -1.30225,3.82406 -1.30224,1.4056 -3.47954,1.4056 z m 0.0758,-8.77122 q -1.35737,0 -2.21175,1.01286 -0.84749,1.01286 -0.84749,2.66651 0,1.64675 0.82682,2.65272 0.82682,1.00597 2.16352,1.00597 1.41938,0 2.23931,-0.95774 0.81993,-0.95774 0.81993,-2.68028 0,-1.77078 -0.79926,-2.73541 -0.79237,-0.96463 -2.19108,-0.96463 z"
         style="font-style:normal;font-variant:normal;font-weight:bold;font-stretch:normal;font-size:14.11111069px;font-family:'Yu Gothic UI';-inkscape-font-specification:'Yu Gothic UI, Bold';font-variant-ligatures:normal;font-variant-caps:normal;font-variant-numeric:normal;font-feature-settings:normal;text-align:start;letter-spacing:3.96875px;writing-mode:lr-tb;text-anchor:start;stroke-width:1.32291663;stroke-miterlimit:4;stroke-dasharray:none"
         id="path1665" />
      <path
         d="m 133.74902,130.16261 h -1.63986 v -4.2099 q -1.5503,0.79926 -2.8801,0.79926 -1.37115,0 -2.12218,-0.68902 -0.74414,-0.69591 -0.74414,-1.94992 v -3.83095 h 1.63297 v 3.53467 q 0,1.53651 1.57097,1.53651 1.11621,0 2.54248,-0.71658 v -4.3546 h 1.63986 z"
         style="font-style:normal;font-variant:normal;font-weight:bold;font-stretch:normal;font-size:14.11111069px;font-family:'Yu Gothic UI';-inkscape-font-specification:'Yu Gothic UI, Bold';font-variant-ligatures:normal;font-variant-caps:normal;font-variant-numeric:normal;font-feature-settings:normal;text-align:start;letter-spacing:3.96875px;writing-mode:lr-tb;text-anchor:start;stroke-width:1.32291663;stroke-miterlimit:4;stroke-dasharray:none"
         id="path1667" />
      <path
         d="m 147.72233,130.16261 h -2.13596 l -3.4382,-4.51996 q -0.19293,-0.25494 -0.23427,-0.34451 h -0.0276 v 4.86447 h -1.63987 v -9.88053 h 1.63987 v 4.64399 h 0.0276 q 0.0827,-0.15159 0.23427,-0.33762 l 3.31418,-4.30637 h 1.9637 l -3.87918,4.74045 z"
         style="font-style:normal;font-variant:normal;font-weight:bold;font-stretch:normal;font-size:14.11111069px;font-family:'Yu Gothic UI';-inkscape-font-specification:'Yu Gothic UI, Bold';font-variant-ligatures:normal;font-variant-caps:normal;font-variant-numeric:normal;font-feature-settings:normal;text-align:start;letter-spacing:3.96875px;writing-mode:lr-tb;text-anchor:start;stroke-width:1.32291663;stroke-miterlimit:4;stroke-dasharray:none"
         id="path1669" />
      <path
         d="m 160.95839,130.16261 h -1.79834 l -0.88884,-2.51492 h -3.88607 l -0.85438,2.51492 h -1.79145 l 3.70003,-9.88053 h 1.84657 z m -3.12126,-3.85161 -1.37115,-3.94119 q -0.062,-0.19293 -0.13091,-0.62012 h -0.0276 q -0.062,0.39274 -0.13781,0.62012 l -1.35736,3.94119 z"
         style="font-style:normal;font-variant:normal;font-weight:bold;font-stretch:normal;font-size:14.11111069px;font-family:'Yu Gothic UI';-inkscape-font-specification:'Yu Gothic UI, Bold';font-variant-ligatures:normal;font-variant-caps:normal;font-variant-numeric:normal;font-feature-settings:normal;text-align:start;letter-spacing:3.96875px;writing-mode:lr-tb;text-anchor:start;stroke-width:1.32291663;stroke-miterlimit:4;stroke-dasharray:none"
         id="path1671" />
      <path
         d="m 182.11816,130.16261 h -1.64676 v -8.41292 h -4.68533 v 8.41292 h -1.63986 v -9.88053 h 7.97195 z"
         style="font-style:normal;font-variant:normal;font-weight:bold;font-stretch:normal;font-size:14.11111069px;font-family:'Yu Gothic UI';-inkscape-font-specification:'Yu Gothic UI, Bold';font-variant-ligatures:normal;font-variant-caps:normal;font-variant-numeric:normal;font-feature-settings:normal;text-align:start;letter-spacing:3.96875px;writing-mode:lr-tb;text-anchor:start;stroke-width:1.32291663;stroke-miterlimit:4;stroke-dasharray:none"
         id="path1673" />
      <path
         d="m 190.13834,126.57971 v 3.5829 h -1.63297 v -9.88053 h 2.99723 q 1.70188,0 2.63894,0.79237 0.93707,0.79237 0.93707,2.23242 0,1.44005 -0.97841,2.35645 -0.9784,0.91639 -2.64583,0.91639 z m 0,-4.94715 v 3.61046 h 1.06109 q 1.0542,0 1.60542,-0.48921 0.55121,-0.4892 0.55121,-1.37803 0,-1.74322 -2.02571,-1.74322 z"
         style="font-style:normal;font-variant:normal;font-weight:bold;font-stretch:normal;font-size:14.11111069px;font-family:'Yu Gothic UI';-inkscape-font-specification:'Yu Gothic UI, Bold';font-variant-ligatures:normal;font-variant-caps:normal;font-variant-numeric:normal;font-feature-settings:normal;text-align:start;letter-spacing:3.96875px;writing-mode:lr-tb;text-anchor:start;stroke-width:1.32291663;stroke-miterlimit:4;stroke-dasharray:none"
         id="path1675" />
      <path
         d="m 207.8737,120.28208 -3.07303,6.84196 q -0.85438,1.86724 -1.65364,2.54248 -0.79238,0.66835 -1.73633,0.66835 -0.75103,0 -1.25402,-0.2136 v -1.56407 q 0.59945,0.35829 1.15066,0.35829 0.48921,0 0.89573,-0.37207 0.41341,-0.37207 0.88883,-1.30914 l -3.3004,-6.9522 h 1.86724 l 2.0395,4.68533 q 0.062,0.14469 0.24116,0.71658 h 0.0138 q 0.0207,-0.0689 0.26182,-0.71658 l 1.92237,-4.68533 z"
         style="font-style:normal;font-variant:normal;font-weight:bold;font-stretch:normal;font-size:14.11111069px;font-family:'Yu Gothic UI';-inkscape-font-specification:'Yu Gothic UI, Bold';font-variant-ligatures:normal;font-variant-caps:normal;font-variant-numeric:normal;font-feature-settings:normal;text-align:start;letter-spacing:3.96875px;writing-mode:lr-tb;text-anchor:start;stroke-width:1.32291663;stroke-miterlimit:4;stroke-dasharray:none"
         id="path1677" />
      <path
         d="m 218.4777,121.70146 h -3.83095 v 8.46115 h -1.63986 v -9.88053 h 5.47081 z"
         style="font-style:normal;font-variant:normal;font-weight:bold;font-stretch:normal;font-size:14.11111069px;font-family:'Yu Gothic UI';-inkscape-font-specification:'Yu Gothic UI, Bold';font-variant-ligatures:normal;font-variant-caps:normal;font-variant-numeric:normal;font-feature-settings:normal;text-align:start;letter-spacing:3.96875px;writing-mode:lr-tb;text-anchor:start;stroke-width:1.32291663;stroke-miterlimit:4;stroke-dasharray:none"
         id="path1679" />
      <path
         d="m 232.01004,130.16261 h -1.79834 l -0.88884,-2.51492 h -3.88607 l -0.85438,2.51492 h -1.79145 l 3.70003,-9.88053 h 1.84657 z m -3.12126,-3.85161 -1.37115,-3.94119 q -0.062,-0.19293 -0.13091,-0.62012 h -0.0276 q -0.062,0.39274 -0.13781,0.62012 l -1.35736,3.94119 z"
         style="font-style:normal;font-variant:normal;font-weight:bold;font-stretch:normal;font-size:14.11111069px;font-family:'Yu Gothic UI';-inkscape-font-specification:'Yu Gothic UI, Bold';font-variant-ligatures:normal;font-variant-caps:normal;font-variant-numeric:normal;font-feature-settings:normal;text-align:start;letter-spacing:3.96875px;writing-mode:lr-tb;text-anchor:start;stroke-width:1.32291663;stroke-miterlimit:4;stroke-dasharray:none"
         id="path1681" />
    </g>
    <path
       style="opacity:1;fill:none;fill-opacity:1;stroke:#000000;stroke-width:0.39687499;stroke-linecap:round;stroke-linejoin:round;stroke-miterlimit:4;stroke-dasharray:none;stroke-dashoffset:0;stroke-opacity:1"
       d="M 112.99288,114.86396 H 219.7359 v 0.69539 H 112.99288 Z"
       id="rect1621" />
  </g>
</svg>
